<?xml version="1.0" encoding="UTF-8" standalone="no"?>
<!-- Created with Inkscape (http://www.inkscape.org/) -->

<svg
   xmlns:dc="http://purl.org/dc/elements/1.1/"
   xmlns:cc="http://creativecommons.org/ns#"
   xmlns:rdf="http://www.w3.org/1999/02/22-rdf-syntax-ns#"
   xmlns:svg="http://www.w3.org/2000/svg"
   xmlns="http://www.w3.org/2000/svg"
   xmlns:xlink="http://www.w3.org/1999/xlink"
   xmlns:sodipodi="http://sodipodi.sourceforge.net/DTD/sodipodi-0.dtd"
   xmlns:inkscape="http://www.inkscape.org/namespaces/inkscape"
   width="143.63092mm"
   height="143.63092mm"
   viewBox="0 0 143.63092 143.63092"
   version="1.1"
   id="svg31"
   inkscape:version="0.92.1 r15371"
   sodipodi:docname="Abeja.svg">
  <defs
     id="defs25">
    <radialGradient
       inkscape:collect="always"
       xlink:href="#linearGradient43"
       id="radialGradient45"
       cx="32.606884"
       cy="6.1048827"
       fx="32.606884"
       fy="6.1048827"
       r="64.633911"
       gradientUnits="userSpaceOnUse"
       gradientTransform="matrix(-1.4614512,1.8803868,-1.7177367,-1.3350561,90.746839,-47.058306)" />
    <linearGradient
       inkscape:collect="always"
       id="linearGradient43">
      <stop
         style="stop-color:#66ff00;stop-opacity:1;"
         offset="0"
         id="stop39" />
      <stop
         style="stop-color:#00ff00;stop-opacity:0.44"
         offset="1"
         id="stop41" />
    </linearGradient>
  </defs>
  <sodipodi:namedview
     id="base"
     pagecolor="#ffffff"
     bordercolor="#666666"
     borderopacity="1.0"
     inkscape:pageopacity="0.0"
     inkscape:pageshadow="2"
     inkscape:zoom="0.49497475"
     inkscape:cx="209.75943"
     inkscape:cy="115.06841"
     inkscape:document-units="px"
     inkscape:current-layer="layer1"
     showgrid="false"
     inkscape:snap-object-midpoints="true"
     inkscape:snap-center="true"
     inkscape:pagecheckerboard="true"
     fit-margin-top="0"
     fit-margin-left="0"
     fit-margin-right="0"
     fit-margin-bottom="0"
     borderlayer="true"
     inkscape:window-width="667"
     inkscape:window-height="729"
     inkscape:window-x="683"
     inkscape:window-y="0"
     inkscape:window-maximized="0" />
  <metadata
     id="metadata28">
    <rdf:RDF>
      <cc:Work
         rdf:about="">
        <dc:format>image/svg+xml</dc:format>
        <dc:type
           rdf:resource="http://purl.org/dc/dcmitype/StillImage" />
        <dc:title></dc:title>
      </cc:Work>
    </rdf:RDF>
  </metadata>
  <g
     inkscape:label="Capa 1"
     inkscape:groupmode="layer"
     id="layer1"
     transform="translate(5.4495665e-7,16.720213)">
    <rect
       style="fill:#00112b;stroke-width:0.28221554"
       id="rect33"
       width="143.63092"
       height="143.63092"
       x="-5.4495666e-007"
       y="-16.720213"
       ry="20.641569" />
    <rect
       ry="13.318157"
       y="-9.5386639"
       x="7.1815486"
       height="129.26782"
       width="129.26782"
       id="rect41"
       style="fill:url(#radialGradient45);fill-opacity:1;stroke-width:0.25399399"
       rx="12.82894" />
    <g
       id="g2158"
       transform="matrix(0.19375214,0,0,0.22322454,22.214815,-2.0503425)">
      <g
         id="g2068">
        <path
           id="path2064"
           d="m 239.698,103.147 c -2.667,0 -5.286,-1.289 -6.874,-3.675 -7.55,-11.323 -16.762,-17.857 -28.148,-19.961 -24.643,-4.578 -50.72,13.667 -50.97,13.853 -3.715,2.644 -8.865,1.765 -11.507,-1.942 -2.635,-3.707 -1.781,-8.848 1.926,-11.492 1.289,-0.926 31.887,-22.458 63.453,-16.665 15.827,2.902 28.945,11.999 38.979,27.053 2.53,3.796 1.507,8.913 -2.289,11.443 -1.411,0.934 -2.999,1.386 -4.57,1.386 z"
           style="fill:#6b676e"
           inkscape:connector-curvature="0" />
        <path
           id="path2066"
           d="m 272.692,103.147 c 2.667,0 5.286,-1.289 6.874,-3.675 7.55,-11.323 16.762,-17.857 28.148,-19.961 24.643,-4.578 50.72,13.667 50.97,13.853 3.715,2.644 8.865,1.765 11.507,-1.942 2.635,-3.707 1.781,-8.848 -1.926,-11.492 -1.289,-0.926 -31.887,-22.458 -63.453,-16.665 -15.827,2.902 -28.945,11.999 -38.979,27.053 -2.53,3.796 -1.507,8.913 2.289,11.443 1.411,0.934 2.998,1.386 4.57,1.386 z"
           style="fill:#6b676e"
           inkscape:connector-curvature="0" />
      </g>
      <path
         id="path2070"
         d="m 313.957,136.154 c 0,-27.345 -25.861,-49.511 -57.763,-49.511 -31.902,0 -57.763,22.167 -57.763,49.511"
         style="fill:#585661"
         inkscape:connector-curvature="0" />
      <ellipse
         id="ellipse2072"
         ry="132.02901"
         rx="107.274"
         cy="317.69501"
         cx="256.189"
         style="fill:#ffd750" />
      <g
         id="g2078">
        <path
           id="path2074"
           d="m 162.677,253.12 c -6.038,13.216 -10.208,27.85 -12.249,43.383 16.827,7.666 48.138,18.084 105.763,18.084 57.632,0 88.944,-10.422 105.769,-18.088 -2.041,-15.532 -6.212,-30.165 -12.25,-43.381 -19.671,5.961 -49.209,11.486 -93.518,11.486 -44.306,-10e-4 -73.844,-5.523 -93.515,-11.484 z"
           style="fill:#6b676e"
           inkscape:connector-curvature="0" />
        <path
           id="path2076"
           d="m 149.944,334.981 c 2.44,22.914 9.645,43.928 20.365,61.58 18.6,6.291 45.869,11.902 85.881,11.902 40.019,0 67.292,-5.613 85.891,-11.906 10.719,-17.652 17.922,-38.666 20.363,-61.579 -18.805,8.158 -51.086,17.705 -106.254,17.705 -55.161,0 -87.441,-9.545 -106.246,-17.702 z"
           style="fill:#6b676e"
           inkscape:connector-curvature="0" />
      </g>
      <path
         id="path2080"
         d="m 326.335,181.538 c 0,29.623 -14.186,53.637 -70.141,53.637 -55.955,0 -70.141,-24.014 -70.141,-53.637 0,-29.623 14.186,-53.637 70.141,-53.637 55.955,0 70.141,24.015 70.141,53.637 z"
         style="fill:#585661"
         inkscape:connector-curvature="0" />
      <path
         id="path2082"
         d="m 330.461,160.908 c 0,22.786 -15.02,41.259 -74.267,41.259 -59.247,0 -74.267,-18.473 -74.267,-41.259 0,-22.786 15.02,-41.259 74.267,-41.259 59.247,0 74.267,18.473 74.267,41.259 z"
         style="fill:#6b676e"
         inkscape:connector-curvature="0" />
      <path
         id="path2084"
         d="M 470.742,259.931 C 339.744,138.216 313.57,130.48 313.57,130.48 c 19.254,22.693 11.86,40.957 8.639,55.184 -16.504,72.891 14.441,117.589 33.007,132.029 39.73,30.9 156.785,69.109 156.785,41.259 C 512,315.63 494.786,282.271 470.742,259.931 Z"
         style="fill:#ffebd2"
         inkscape:connector-curvature="0" />
      <path
         id="path2086"
         d="m 483.595,274.056 c -4.022,-5.062 -8.262,-9.858 -12.854,-14.124 -2.657,-2.468 -5.201,-4.815 -7.772,-7.19 -26.761,-5.794 -62.742,-13.56 -81.27,-17.385 -20.848,-22.705 -46.25,-48.217 -57.218,-59.129 -0.505,2.223 -1.047,4.371 -1.557,6.434 -0.236,0.973 -0.509,2.085 -0.716,3.002 -0.754,3.331 -1.306,6.539 -1.867,9.752 31.539,31.649 71.399,73.493 77.004,84.709 3.049,6.098 14.491,41.828 20.357,69.805 0.014,0.005 0.028,0.011 0.042,0.016 5.965,2.288 11.987,4.453 17.957,6.426 10e-4,10e-4 0.002,10e-4 0.002,10e-4 -5.358,-31.159 -19.773,-75.986 -23.596,-83.63 -1.883,-3.768 -6.3,-9.664 -12.167,-16.709 30.301,6.398 65.61,14.065 82.979,17.85 0.227,0.056 0.45,0.115 0.676,0.172 z"
         style="fill:#ffdeb7"
         inkscape:connector-curvature="0" />
      <path
         id="path2088"
         d="M 41.259,259.931 C 172.257,138.216 198.431,130.48 198.431,130.48 c -19.254,22.693 -11.86,40.957 -8.639,55.184 16.504,72.891 -14.441,117.589 -33.007,132.029 C 117.055,348.593 0,386.803 0,358.953 0,315.63 17.214,282.271 41.259,259.931 Z"
         style="fill:#ffebd2"
         inkscape:connector-curvature="0" />
      <path
         id="path2090"
         d="m 28.405,274.056 c 4.022,-5.062 8.262,-9.858 12.854,-14.124 2.657,-2.468 5.201,-4.815 7.772,-7.19 26.761,-5.794 62.742,-13.56 81.27,-17.385 20.848,-22.705 46.25,-48.217 57.218,-59.129 0.505,2.223 1.047,4.371 1.557,6.434 0.236,0.973 0.509,2.085 0.716,3.002 0.754,3.331 1.306,6.539 1.867,9.752 -31.539,31.649 -71.399,73.493 -77.004,84.709 -3.049,6.098 -14.491,41.828 -20.357,69.805 -0.014,0.005 -0.028,0.011 -0.042,0.016 -5.965,2.288 -11.987,4.453 -17.957,6.426 l -0.003,10e-4 c 5.359,-31.159 19.775,-75.986 23.597,-83.63 1.883,-3.768 6.3,-9.664 12.167,-16.709 -30.301,6.398 -65.61,14.065 -82.979,17.85 -0.227,0.056 -0.449,0.115 -0.676,0.172 z"
         style="fill:#ffdeb7"
         inkscape:connector-curvature="0" />
      <g
         id="g2092" />
      <g
         id="g2094" />
      <g
         id="g2096" />
      <g
         id="g2098" />
      <g
         id="g2100" />
      <g
         id="g2102" />
      <g
         id="g2104" />
      <g
         id="g2106" />
      <g
         id="g2108" />
      <g
         id="g2110" />
      <g
         id="g2112" />
      <g
         id="g2114" />
      <g
         id="g2116" />
      <g
         id="g2118" />
      <g
         id="g2120" />
    </g>
  </g>
</svg>
