<?xml version="1.0" encoding="UTF-8" standalone="no"?>
<!-- Created with Inkscape (http://www.inkscape.org/) -->

<svg
   xmlns:dc="http://purl.org/dc/elements/1.1/"
   xmlns:cc="http://creativecommons.org/ns#"
   xmlns:rdf="http://www.w3.org/1999/02/22-rdf-syntax-ns#"
   xmlns:svg="http://www.w3.org/2000/svg"
   xmlns="http://www.w3.org/2000/svg"
   xmlns:xlink="http://www.w3.org/1999/xlink"
   xmlns:sodipodi="http://sodipodi.sourceforge.net/DTD/sodipodi-0.dtd"
   xmlns:inkscape="http://www.inkscape.org/namespaces/inkscape"
   width="143.63092mm"
   height="143.63092mm"
   viewBox="0 0 143.63092 143.63092"
   version="1.1"
   id="svg31"
   inkscape:version="0.92.1 r15371"
   sodipodi:docname="Burro2.svg">
  <defs
     id="defs25">
    <radialGradient
       inkscape:collect="always"
       xlink:href="#linearGradient43"
       id="radialGradient45"
       cx="32.606884"
       cy="6.1048827"
       fx="32.606884"
       fy="6.1048827"
       r="64.633911"
       gradientUnits="userSpaceOnUse"
       gradientTransform="matrix(-1.4614512,1.8803868,-1.7177367,-1.3350561,90.746839,-47.058306)" />
    <linearGradient
       inkscape:collect="always"
       id="linearGradient43">
      <stop
         style="stop-color:#66ff00;stop-opacity:1;"
         offset="0"
         id="stop39" />
      <stop
         style="stop-color:#00ff00;stop-opacity:0.44"
         offset="1"
         id="stop41" />
    </linearGradient>
  </defs>
  <sodipodi:namedview
     id="base"
     pagecolor="#ffffff"
     bordercolor="#666666"
     borderopacity="1.0"
     inkscape:pageopacity="0.0"
     inkscape:pageshadow="2"
     inkscape:zoom="0.49497475"
     inkscape:cx="209.75943"
     inkscape:cy="115.06841"
     inkscape:document-units="px"
     inkscape:current-layer="layer1"
     showgrid="false"
     inkscape:snap-object-midpoints="true"
     inkscape:snap-center="true"
     inkscape:pagecheckerboard="true"
     fit-margin-top="0"
     fit-margin-left="0"
     fit-margin-right="0"
     fit-margin-bottom="0"
     borderlayer="true"
     inkscape:window-width="667"
     inkscape:window-height="729"
     inkscape:window-x="683"
     inkscape:window-y="0"
     inkscape:window-maximized="0" />
  <metadata
     id="metadata28">
    <rdf:RDF>
      <cc:Work
         rdf:about="">
        <dc:format>image/svg+xml</dc:format>
        <dc:type
           rdf:resource="http://purl.org/dc/dcmitype/StillImage" />
        <dc:title></dc:title>
      </cc:Work>
    </rdf:RDF>
  </metadata>
  <g
     inkscape:label="Capa 1"
     inkscape:groupmode="layer"
     id="layer1"
     transform="translate(5.4495665e-7,16.720213)">
    <rect
       style="fill:#00112b;stroke-width:0.28221554"
       id="rect33"
       width="143.63092"
       height="143.63092"
       x="-5.4495666e-007"
       y="-16.720213"
       ry="20.641569" />
    <rect
       ry="13.318157"
       y="-9.5386639"
       x="7.1815486"
       height="129.26782"
       width="129.26782"
       id="rect41"
       style="fill:url(#radialGradient45);fill-opacity:1;stroke-width:0.25399399"
       rx="12.82894" />
    <g
       id="g1213"
       transform="matrix(0.22202421,0,0,0.22595458,14.97719,-2.7490777)">
      <path
         id="path1122"
         d="M 185.492,116.687 C 181.109,74.255 165.773,42.555 139.91,22.47 103.847,-5.534 60.95,0.446 59.141,0.714 l -10.35,1.536 -2.55,10.147 c -0.302,1.197 -7.307,29.729 -1.397,64.232 5.58,32.582 23.932,76.801 79.672,102.439 z"
         style="fill:#87868a"
         inkscape:connector-curvature="0" />
      <path
         id="path1124"
         d="M 137.616,150.589 C 103.161,134.742 82.403,108.421 75.921,72.358 72.987,56.035 73.681,41.123 74.792,31.433 c 11.555,0.473 30.147,3.439 46.173,16.019 18.674,14.656 29.892,39.034 33.345,72.458 z"
         style="fill:#d37b93"
         inkscape:connector-curvature="0" />
      <path
         id="path1126"
         d="M 326.508,116.687 C 330.891,74.254 346.227,42.554 372.091,22.469 408.153,-5.535 451.052,0.445 452.859,0.713 l 10.351,1.535 2.55,10.148 c 0.302,1.197 7.307,29.729 1.396,64.231 -5.579,32.581 -23.932,76.801 -79.672,102.439 l -60.976,-62.379"
         style="fill:#646467"
         inkscape:connector-curvature="0" />
      <path
         id="path1128"
         d="m 374.384,150.589 c 34.455,-15.847 55.213,-42.168 61.695,-78.231 2.934,-16.323 2.24,-31.234 1.13,-40.927 -11.555,0.474 -30.148,3.439 -46.174,16.02 -18.675,14.656 -29.893,39.035 -33.346,72.458 l 16.695,30.68"
         style="fill:#9d5b6e"
         inkscape:connector-curvature="0" />
      <path
         id="path1130"
         d="m 147.171,403.007 c -0.013,3.43 -0.085,6.689 -0.206,9.514 l -0.015,0.675 c 0,47.041 23.227,70.799 42.711,82.445 22.62,13.52 48.561,16.358 66.339,16.358 17.778,0 43.719,-2.838 66.339,-16.358 19.484,-11.647 42.711,-35.405 42.711,-82.445 l -0.015,-0.675 c -0.12,-2.824 -0.193,-6.083 -0.206,-9.513 -35.559,-16.264 -72.903,-22.005 -108.831,-22.005 -35.925,0 -73.269,5.74 -108.827,22.004 z"
         style="fill:#aeadb3"
         inkscape:connector-curvature="0" />
      <path
         id="path1132"
         d="M 373.97,125.76 C 348.576,97.463 308.886,83.116 256.001,83.116 c -52.885,0 -92.575,14.347 -117.969,42.644 -25.746,28.689 -35.843,70.5 -30.011,124.271 4.196,38.688 13.335,61.724 23.917,88.396 4.113,10.367 8.366,21.088 12.684,33.642 1.928,5.605 2.59,19.278 2.549,30.938 35.559,-16.264 72.902,-22.004 108.83,-22.004 35.928,0 73.272,5.741 108.831,22.005 -0.042,-11.66 0.621,-25.334 2.549,-30.939 4.319,-12.556 8.572,-23.276 12.684,-33.642 10.582,-26.672 19.722,-49.707 23.917,-88.396 5.831,-53.771 -4.267,-95.581 -30.012,-124.271 z"
         style="fill:#87868a"
         inkscape:connector-curvature="0" />
      <path
         id="path1134"
         d="m 256,512 v 0 c 17.779,0 43.72,-2.838 66.34,-16.358 19.484,-11.647 42.711,-35.405 42.711,-82.446 l -0.015,-0.675 c -0.12,-2.824 -0.193,-6.082 -0.206,-9.513 -35.559,-16.264 -72.903,-22.005 -108.831,-22.005 z"
         style="fill:#818186"
         inkscape:connector-curvature="0" />
      <path
         id="path1136"
         d="M 373.97,125.76 C 348.576,97.463 308.886,83.116 256.001,83.116 v 0 297.887 c 35.928,0 73.272,5.741 108.831,22.005 -0.042,-11.66 0.621,-25.334 2.549,-30.939 4.319,-12.556 8.572,-23.276 12.684,-33.642 10.582,-26.672 19.722,-49.707 23.917,-88.396 5.831,-53.771 -4.267,-95.581 -30.012,-124.271 z"
         style="fill:#646467"
         inkscape:connector-curvature="0" />
      <g
         id="g1146">
        <path
           id="path1138"
           d="m 183.266,266.443 c 0,-11.513 9.229,-20.836 20.569,-20.836 11.355,0 20.583,9.324 20.583,20.836 0,11.511 -9.228,20.843 -20.583,20.843 -11.34,-10e-4 -20.569,-9.332 -20.569,-20.843 z"
           style="fill:#333333"
           inkscape:connector-curvature="0" />
        <path
           id="path1140"
           d="m 328.734,266.443 c 0,-11.598 -9.288,-20.999 -20.725,-20.999 -11.45,0 -20.739,9.401 -20.739,20.999 0,11.598 9.288,20.999 20.739,20.999 11.437,-0.001 20.725,-9.402 20.725,-20.999 z"
           style="fill:#333333"
           inkscape:connector-curvature="0" />
        <path
           id="path1142"
           d="m 202.095,433.631 c 0,-9.938 7.966,-17.986 17.756,-17.986 9.802,0 17.768,8.048 17.768,17.986 0,9.936 -7.965,17.993 -17.768,17.993 -9.79,-0.001 -17.756,-8.057 -17.756,-17.993 z"
           style="fill:#333333"
           inkscape:connector-curvature="0" />
        <path
           id="path1144"
           d="m 309.906,433.631 c 0,-10.011 -8.018,-18.126 -17.89,-18.126 -9.885,0 -17.903,8.115 -17.903,18.126 0,10.011 8.018,18.126 17.903,18.126 9.872,10e-4 17.89,-8.114 17.89,-18.126 z"
           style="fill:#333333"
           inkscape:connector-curvature="0" />
      </g>
      <g
         id="g1148" />
      <g
         id="g1150" />
      <g
         id="g1152" />
      <g
         id="g1154" />
      <g
         id="g1156" />
      <g
         id="g1158" />
      <g
         id="g1160" />
      <g
         id="g1162" />
      <g
         id="g1164" />
      <g
         id="g1166" />
      <g
         id="g1168" />
      <g
         id="g1170" />
      <g
         id="g1172" />
      <g
         id="g1174" />
      <g
         id="g1176" />
    </g>
  </g>
</svg>
