<?xml version="1.0" encoding="UTF-8" standalone="no"?>
<!-- Created with Inkscape (http://www.inkscape.org/) -->

<svg
   xmlns:dc="http://purl.org/dc/elements/1.1/"
   xmlns:cc="http://creativecommons.org/ns#"
   xmlns:rdf="http://www.w3.org/1999/02/22-rdf-syntax-ns#"
   xmlns:svg="http://www.w3.org/2000/svg"
   xmlns="http://www.w3.org/2000/svg"
   xmlns:xlink="http://www.w3.org/1999/xlink"
   xmlns:sodipodi="http://sodipodi.sourceforge.net/DTD/sodipodi-0.dtd"
   xmlns:inkscape="http://www.inkscape.org/namespaces/inkscape"
   width="143.63092mm"
   height="143.63092mm"
   viewBox="0 0 143.63092 143.63092"
   version="1.1"
   id="svg31"
   inkscape:version="0.92.1 r15371"
   sodipodi:docname="Burro.svg">
  <defs
     id="defs25">
    <radialGradient
       inkscape:collect="always"
       xlink:href="#linearGradient43"
       id="radialGradient45"
       cx="32.606884"
       cy="6.1048827"
       fx="32.606884"
       fy="6.1048827"
       r="64.633911"
       gradientUnits="userSpaceOnUse"
       gradientTransform="matrix(-1.4614512,1.8803868,-1.7177367,-1.3350561,90.746839,-47.058306)" />
    <linearGradient
       inkscape:collect="always"
       id="linearGradient43">
      <stop
         style="stop-color:#66ff00;stop-opacity:1;"
         offset="0"
         id="stop39" />
      <stop
         style="stop-color:#00ff00;stop-opacity:0.44"
         offset="1"
         id="stop41" />
    </linearGradient>
  </defs>
  <sodipodi:namedview
     id="base"
     pagecolor="#ffffff"
     bordercolor="#666666"
     borderopacity="1.0"
     inkscape:pageopacity="0.0"
     inkscape:pageshadow="2"
     inkscape:zoom="0.49497475"
     inkscape:cx="209.75943"
     inkscape:cy="115.06841"
     inkscape:document-units="px"
     inkscape:current-layer="layer1"
     showgrid="false"
     inkscape:snap-object-midpoints="true"
     inkscape:snap-center="true"
     inkscape:pagecheckerboard="true"
     fit-margin-top="0"
     fit-margin-left="0"
     fit-margin-right="0"
     fit-margin-bottom="0"
     borderlayer="true"
     inkscape:window-width="667"
     inkscape:window-height="729"
     inkscape:window-x="683"
     inkscape:window-y="0"
     inkscape:window-maximized="0" />
  <metadata
     id="metadata28">
    <rdf:RDF>
      <cc:Work
         rdf:about="">
        <dc:format>image/svg+xml</dc:format>
        <dc:type
           rdf:resource="http://purl.org/dc/dcmitype/StillImage" />
        <dc:title></dc:title>
      </cc:Work>
    </rdf:RDF>
  </metadata>
  <g
     inkscape:label="Capa 1"
     inkscape:groupmode="layer"
     id="layer1"
     transform="translate(5.4495665e-7,16.720213)">
    <rect
       style="fill:#00112b;stroke-width:0.28221554"
       id="rect33"
       width="143.63092"
       height="143.63092"
       x="-5.4495666e-007"
       y="-16.720213"
       ry="20.641569" />
    <rect
       ry="13.318157"
       y="-9.5386639"
       x="7.1815486"
       height="129.26782"
       width="129.26782"
       id="rect41"
       style="fill:url(#radialGradient45);fill-opacity:1;stroke-width:0.25399399"
       rx="12.82894" />
    <g
       id="g1120"
       transform="matrix(0.2134263,0,0,0.21957406,13.821985,-1.115713)">
      <path
         id="path1011"
         d="m 420.875,111.028 h -12.227 c -6.911,0 -12.566,-5.655 -12.566,-12.566 V 45.699 c 0,-18.238 14.922,-33.16 33.16,-33.16 h 0.011 c 2.304,0 4.189,1.885 4.189,4.189 v 81.734 c -0.001,6.911 -5.656,12.566 -12.567,12.566 z"
         style="fill:#628fa3"
         inkscape:connector-curvature="0" />
      <g
         id="g1017">
        <path
           id="path1013"
           d="m 75.475,249.205 v 0 c -29.628,0 -55.227,20.711 -61.42,49.693 L 0.094,364.232 c -0.557,2.608 1.43,5.067 4.097,5.067 v 0 c 25.763,0 48.096,-17.839 53.794,-42.971 z"
           style="fill:#476775"
           inkscape:connector-curvature="0" />
        <path
           id="path1015"
           d="m 333.131,480.565 -2.986,15.685 c -0.352,1.867 -1.874,3.21 -3.635,3.21 h -35.192 c -2.421,0 -4.312,-2.271 -4.08,-4.895 l 1.966,-24.748 12.363,-155.749 46.497,-22.326 -32.276,171.706 c -0.093,0.495 -0.102,0.99 -0.019,1.473 0.177,1.181 0.835,2.231 1.828,2.846 l 13.727,8.458 c 1.4,0.869 2.132,2.615 1.807,4.34 z"
           style="fill:#476775"
           inkscape:connector-curvature="0" />
      </g>
      <path
         id="path1019"
         d="m 333.131,480.565 -2.986,15.685 c -0.352,1.867 -1.874,3.21 -3.635,3.21 h -35.192 c -2.421,0 -4.312,-2.271 -4.08,-4.895 l 1.966,-24.748 26.567,-4.895 c 0.177,1.181 0.835,2.231 1.828,2.846 l 13.727,8.458 c 1.398,0.868 2.13,2.614 1.805,4.339 z"
         style="fill:#3f5666"
         inkscape:connector-curvature="0" />
      <path
         id="path1021"
         d="m 123.209,406.097 v 54.635 c 0,0.929 0.312,1.817 0.878,2.513 0.282,0.364 0.626,0.666 1.029,0.918 l 16.377,10.124 c 0.969,0.605 1.645,1.595 1.846,2.715 l 3.219,17.693 c 0.455,2.483 -1.453,4.764 -3.965,4.764 h -39.706 c -2.23,0 -4.036,-1.807 -4.036,-4.038 V 384.367 l 12.522,-68.099 80.218,15.14 -44.004,72.672 z"
         style="fill:#476775"
         inkscape:connector-curvature="0" />
      <path
         id="path1023"
         d="m 142.592,499.46 h -39.705 c -2.23,0 -4.036,-1.807 -4.036,-4.038 v -27.817 l 25.236,-4.36 c 0.282,0.364 0.626,0.666 1.029,0.918 l 16.377,10.124 c 0.969,0.605 1.645,1.595 1.846,2.715 l 3.219,17.693 c 0.454,2.484 -1.453,4.765 -3.966,4.765 z"
         style="fill:#3f5666"
         inkscape:connector-curvature="0" />
      <path
         id="path1025"
         d="m 512,115.213 v 19.186 c 0,15.308 -13.797,26.909 -28.866,24.281 l -16.212,-0.399 -36.282,-0.894 c 0,0 -1.833,38.081 0.065,85.244 0.572,14.296 -0.237,28.58 -2.403,42.649 v 0.022 c -2.188,14.37 -5.789,28.537 -10.735,42.283 -2.415,6.689 -4.7,13.703 -6.856,20.855 -15.565,51.634 -24.404,110.711 -24.404,110.711 0.065,0.506 0.205,0.98 0.432,1.4 0.27,0.517 0.657,0.98 1.132,1.336 l 20.932,15.954 c 1.272,0.98 1.843,2.607 1.476,4.159 l -3.439,14.36 c -0.432,1.82 -2.048,3.102 -3.924,3.102 h -37.618 c -2.058,0 -3.869,-1.411 -4.344,-3.437 l -5.648,-27.372 -1.628,-109.623 c -0.464,-1.96 -2.178,-3.361 -4.183,-3.415 l -201.071,-7.099 c -1.164,-0.032 -2.318,0.388 -3.19,1.196 l -58.928,54.735 c -0.83,0.765 -1.918,1.196 -3.05,1.196 H 63.822 c -2.48,0 -4.473,2.003 -4.473,4.482 v 54.724 c 0,0.722 0.183,1.433 0.507,2.046 0.29,0.593 0.732,1.11 1.283,1.519 l 10.337,7.767 c 0.819,0.604 1.412,1.498 1.649,2.479 l 3.816,15.253 c 0.701,2.822 -1.412,5.548 -4.323,5.548 H 35.915 c -2.468,0 -4.463,-2.004 -4.463,-4.46 V 380.563 c 0,-1.745 0.992,-3.318 2.555,-4.05 l 12.74,-14.339 c 1.552,-0.732 2.565,-2.315 2.565,-4.04 v -60.822 c 0,-36.368 27.034,-67.07 63.1,-71.649 l 153.438,1.4 c 30.947,0.281 58.638,-19.218 68.802,-48.465 l 23.293,-67.006 c 0.884,-2.532 1.994,-4.934 3.299,-7.197 V 45.718 c 0,-18.248 14.929,-33.18 33.178,-33.18 1.154,0 2.198,0.474 2.964,1.228 0.754,0.765 1.229,1.811 1.229,2.962 v 66.909 h 21.892 c 7.718,0 15.123,3.092 20.555,8.564 l 6.294,6.345 c 5.443,5.472 12.848,8.542 20.555,8.542 h 35.97 c 4.487,0.001 8.119,3.632 8.119,8.125 z"
         style="fill:#91bed4"
         inkscape:connector-curvature="0" />
      <g
         id="g1033">
        <path
           id="path1027"
           d="m 286.464,226.536 c 30.952,0.297 58.637,-20.194 68.807,-50.936 l 23.295,-70.414 c 0.88,-2.663 1.991,-5.186 3.3,-7.564 V 35.963 c 0,-8.868 3.195,-16.987 8.43,-23.157 -16.316,2.049 -29.045,16.061 -29.045,32.914 v 58.675 c -1.309,2.263 -2.42,4.662 -3.3,7.198 l -23.295,67.004 c -9.047,26.021 -31.956,44.311 -58.692,47.839 z"
           style="fill:#628fa3"
           inkscape:connector-curvature="0" />
        <path
           id="path1029"
           d="m 52.065,387.842 c 0,-1.828 0.995,-3.48 2.556,-4.251 l 12.737,-15.074 c 1.561,-0.771 2.566,-2.434 2.566,-4.239 v -63.917 c 0,-36.654 24.86,-67.805 58.696,-74.552 l -16.213,-0.148 c -36.064,4.58 -63.098,35.278 -63.098,71.656 v 60.822 c 0,1.718 -1.005,3.3 -2.566,4.033 l -12.737,14.343 c -1.561,0.735 -2.556,2.306 -2.556,4.045 v 114.435 c 0,2.466 1.998,4.465 4.463,4.465 h 16.152 c 0,0 0,-111.618 0,-111.618 z"
           style="fill:#628fa3"
           inkscape:connector-curvature="0" />
        <path
           id="path1031"
           d="m 375.917,480.41 -1.624,-115.194 c -0.461,-2.058 -2.179,-3.535 -4.18,-3.589 l -16.406,-0.609 1.595,107.63 5.656,27.377 c 0.471,2.022 2.283,3.437 4.336,3.437 h 14.367 z"
           style="fill:#628fa3"
           inkscape:connector-curvature="0" />
      </g>
      <g
         id="g1039">
        <path
           id="path1035"
           d="M 72.616,499.46 H 35.908 c -2.472,0 -4.46,-1.999 -4.46,-4.471 v -23.86 L 59.862,466.9 c 0.293,0.585 0.726,1.11 1.272,1.514 l 10.342,7.762 c 0.817,0.615 1.413,1.504 1.655,2.483 l 3.814,15.261 c 0.696,2.815 -1.423,5.54 -4.329,5.54 z"
           style="fill:#3f5666"
           inkscape:connector-curvature="0" />
        <path
           id="path1037"
           d="m 410.279,481.999 -3.441,14.363 c -0.434,1.817 -2.048,3.099 -3.925,3.099 h -37.617 c -2.058,0 -3.865,-1.413 -4.338,-3.431 l -5.651,-27.383 31.432,-8.095 c 0.273,0.525 0.656,0.979 1.131,1.343 l 20.938,15.958 c 1.269,0.966 1.844,2.592 1.471,4.146 z"
           style="fill:#3f5666"
           inkscape:connector-curvature="0" />
      </g>
      <g
         id="g1045">
        <path
           id="path1041"
           d="m 428.302,285.28 v 0.022 c -2.188,14.37 -5.789,28.537 -10.735,42.283 -2.415,6.689 -4.7,13.703 -6.856,20.855 l -0.324,0.076 -60.89,7.099 -201.071,-7.099 10.127,-7.563 c 21.452,-16.021 47.513,-24.678 74.293,-24.678 h 106.897 c 20.731,0 41.131,-5.19 59.339,-15.096 z"
           style="fill:#f2e5cb"
           inkscape:connector-curvature="0" />
        <path
           id="path1043"
           d="m 512,115.208 v 19.194 c 0,15.308 -13.795,26.907 -28.867,24.277 l -16.215,-0.399 5.687,-51.193 h 31.277 c 4.484,10e-4 8.118,3.637 8.118,8.121 z"
           style="fill:#f2e5cb"
           inkscape:connector-curvature="0" />
      </g>
      <circle
         id="circle1047"
         r="8.0839996"
         cy="111.156"
         cx="425.35699"
         style="fill:#3f5666" />
      <g
         id="g1049" />
      <g
         id="g1051" />
      <g
         id="g1053" />
      <g
         id="g1055" />
      <g
         id="g1057" />
      <g
         id="g1059" />
      <g
         id="g1061" />
      <g
         id="g1063" />
      <g
         id="g1065" />
      <g
         id="g1067" />
      <g
         id="g1069" />
      <g
         id="g1071" />
      <g
         id="g1073" />
      <g
         id="g1075" />
      <g
         id="g1077" />
    </g>
  </g>
</svg>
