<?xml version="1.0" encoding="UTF-8" standalone="no"?>
<!-- Created with Inkscape (http://www.inkscape.org/) -->

<svg
   xmlns:dc="http://purl.org/dc/elements/1.1/"
   xmlns:cc="http://creativecommons.org/ns#"
   xmlns:rdf="http://www.w3.org/1999/02/22-rdf-syntax-ns#"
   xmlns:svg="http://www.w3.org/2000/svg"
   xmlns="http://www.w3.org/2000/svg"
   xmlns:xlink="http://www.w3.org/1999/xlink"
   xmlns:sodipodi="http://sodipodi.sourceforge.net/DTD/sodipodi-0.dtd"
   xmlns:inkscape="http://www.inkscape.org/namespaces/inkscape"
   width="143.63092mm"
   height="143.63092mm"
   viewBox="0 0 143.63092 143.63092"
   version="1.1"
   id="svg31"
   inkscape:version="0.92.1 r15371"
   sodipodi:docname="Caballo2.svg">
  <defs
     id="defs25">
    <radialGradient
       inkscape:collect="always"
       xlink:href="#linearGradient43"
       id="radialGradient45"
       cx="32.606884"
       cy="6.1048827"
       fx="32.606884"
       fy="6.1048827"
       r="64.633911"
       gradientUnits="userSpaceOnUse"
       gradientTransform="matrix(-1.4614512,1.8803868,-1.7177367,-1.3350561,90.746839,-47.058306)" />
    <linearGradient
       inkscape:collect="always"
       id="linearGradient43">
      <stop
         style="stop-color:#66ff00;stop-opacity:1;"
         offset="0"
         id="stop39" />
      <stop
         style="stop-color:#00ff00;stop-opacity:0.44"
         offset="1"
         id="stop41" />
    </linearGradient>
  </defs>
  <sodipodi:namedview
     id="base"
     pagecolor="#ffffff"
     bordercolor="#666666"
     borderopacity="1.0"
     inkscape:pageopacity="0.0"
     inkscape:pageshadow="2"
     inkscape:zoom="0.49497475"
     inkscape:cx="209.75943"
     inkscape:cy="115.06841"
     inkscape:document-units="px"
     inkscape:current-layer="layer1"
     showgrid="false"
     inkscape:snap-object-midpoints="true"
     inkscape:snap-center="true"
     inkscape:pagecheckerboard="true"
     fit-margin-top="0"
     fit-margin-left="0"
     fit-margin-right="0"
     fit-margin-bottom="0"
     borderlayer="true"
     inkscape:window-width="667"
     inkscape:window-height="729"
     inkscape:window-x="683"
     inkscape:window-y="0"
     inkscape:window-maximized="0" />
  <metadata
     id="metadata28">
    <rdf:RDF>
      <cc:Work
         rdf:about="">
        <dc:format>image/svg+xml</dc:format>
        <dc:type
           rdf:resource="http://purl.org/dc/dcmitype/StillImage" />
        <dc:title></dc:title>
      </cc:Work>
    </rdf:RDF>
  </metadata>
  <g
     inkscape:label="Capa 1"
     inkscape:groupmode="layer"
     id="layer1"
     transform="translate(5.4495665e-7,16.720213)">
    <rect
       style="fill:#00112b;stroke-width:0.28221554"
       id="rect33"
       width="143.63092"
       height="143.63092"
       x="-5.4495666e-007"
       y="-16.720213"
       ry="20.641569" />
    <rect
       ry="13.318157"
       y="-9.5386639"
       x="7.1815486"
       height="129.26782"
       width="129.26782"
       id="rect41"
       style="fill:url(#radialGradient45);fill-opacity:1;stroke-width:0.25399399"
       rx="12.82894" />
    <g
       id="g1009"
       transform="matrix(0.23754905,0,0,0.24593846,11.002741,-7.8651214)">
      <path
         id="path903"
         d="m 436.884,45.82 c 0.397,-2.608 -1.623,-4.958 -4.262,-4.958 h -31.435 c -21.028,0 -40.137,12.202 -48.955,31.261 l -68.468,147.981 h 50.052 L 391.31,85.191 h 39.574 z"
         style="fill:#2f3f4a"
         inkscape:connector-curvature="0" />
      <path
         id="path905"
         d="m 340.899,462.33 -2.857,14.975 c -0.337,1.783 -1.792,3.065 -3.477,3.065 h -33.663 c -2.315,0 -4.125,-2.168 -3.904,-4.674 l 1.881,-23.629 11.826,-148.704 44.478,-21.316 -30.875,163.938 c -0.089,0.472 -0.097,0.945 -0.018,1.406 0.168,1.127 0.798,2.129 1.748,2.718 l 13.13,8.076 c 1.34,0.831 2.041,2.497 1.731,4.145 z"
         style="fill:#804836"
         inkscape:connector-curvature="0" />
      <path
         id="path907"
         d="m 340.899,462.33 -2.857,14.975 c -0.337,1.783 -1.792,3.065 -3.477,3.065 h -33.663 c -2.315,0 -4.125,-2.168 -3.904,-4.674 l 1.881,-23.629 25.413,-4.674 c 0.168,1.127 0.798,2.129 1.748,2.718 l 13.13,8.076 c 1.338,0.829 2.039,2.495 1.729,4.143 z"
         style="fill:#3f5666"
         inkscape:connector-curvature="0" />
      <path
         id="path909"
         d="m 205.505,321.77 -40.951,67.505 c -0.716,1.181 -1.955,1.947 -3.332,2.061 l -21.134,1.746 v 52.162 c 0,1.336 0.693,2.578 1.831,3.28 l 15.661,9.668 c 0.929,0.574 1.572,1.514 1.767,2.587 l 3.082,16.896 c 0.432,2.367 -1.388,4.545 -3.794,4.545 h -37.982 c -2.133,0 -3.861,-1.727 -3.861,-3.859 V 372.337 l 11.978,-65.022 z"
         style="fill:#804836"
         inkscape:connector-curvature="0" />
      <g
         id="g915">
        <path
           id="path911"
           d="m 158.635,482.221 h -37.981 c -2.133,0 -3.861,-1.725 -3.861,-3.855 v -26.558 l 24.14,-4.163 c 0.271,0.347 0.599,0.636 0.984,0.877 l 15.665,9.665 c 0.927,0.578 1.574,1.522 1.766,2.592 l 3.079,16.893 c 0.436,2.371 -1.389,4.549 -3.792,4.549 z"
           style="fill:#3f5666"
           inkscape:connector-curvature="0" />
        <path
           id="path913"
           d="M 106.179,241.391 H 88.175 c -26.542,0 -50.167,16.798 -58.846,41.841 L 0.118,361.506 c -0.38,1.018 0.194,2.142 1.242,2.434 v 0 0 c 20.313,0 38.486,-12.603 45.578,-31.605 L 65.705,282.05 91.53,281.631 Z"
           style="fill:#3f5666"
           inkscape:connector-curvature="0" />
      </g>
      <path
         id="path917"
         d="m 512.001,93.658 v 23.234 c 0,13.954 -11.619,27.919 -25.405,25.672 -29.651,-4.831 -58.57,14.109 -58.57,14.109 0,0 7.366,104.958 -15.588,147.217 -13.022,23.973 -20.675,138.002 -20.675,138.002 0.057,0.472 0.203,0.925 0.415,1.33 0.26,0.502 0.627,0.935 1.081,1.281 l 20.029,15.236 c 1.216,0.925 1.766,2.476 1.41,3.961 l -3.291,13.713 c -0.415,1.735 -1.959,2.958 -3.754,2.958 h -35.984 c -1.969,0 -3.697,-1.349 -4.15,-3.277 L 362.114,450.95 360.56,346.296 c -0.444,-1.869 -76.793,6.794 -103.151,-20.252 -47.331,-7.25 -95.824,10.962 -96.243,11.357 l -56.369,52.26 c -0.791,0.732 -1.834,1.137 -2.915,1.137 h -18.6 c -2.365,0 -4.276,1.918 -4.276,4.269 v 52.25 c 0,0.694 0.173,1.369 0.492,1.965 0.28,0.559 0.695,1.06 1.216,1.445 l 9.893,7.41 c 0.782,0.588 1.351,1.436 1.583,2.371 l 3.649,14.57 c 0.666,2.689 -1.362,5.29 -4.141,5.29 H 56.581 c -2.356,0 -4.266,-1.907 -4.266,-4.259 V 366.85 c 0,-1.657 0.956,-3.161 2.451,-3.864 l 12.181,-13.693 c 1.496,-0.703 2.451,-2.207 2.451,-3.855 v -58.07 c 0,-34.73 25.867,-64.036 60.365,-68.411 L 324.458,201.442 388.457,63.513 h 36.017 c 7.394,0 14.469,2.949 19.671,8.172 l 6.023,6.061 c 5.203,5.223 12.287,8.162 19.662,8.162 h 34.411 c 4.285,0.002 7.76,3.471 7.76,7.75 z"
         style="fill:#b8674d"
         inkscape:connector-curvature="0" />
      <g
         id="g925">
        <path
           id="path919"
           d="M 354.526,184.496 410.662,63.515 h -22.204 l -63.101,135.995 8.969,-0.807 c 8.788,-0.792 16.488,-6.207 20.2,-14.207 z"
           style="fill:#91523d"
           inkscape:connector-curvature="0" />
        <path
           id="path921"
           d="m 389.341,477.093 -5.405,-26.144 -1.399,-90.914 c -0.088,-5.73 -4.817,-10.297 -10.55,-10.19 -3.231,0.061 -7.085,0.122 -11.374,0.117 l 1.499,100.987 5.405,26.144 c 0.453,1.927 2.182,3.277 4.15,3.277 h 21.825 c -1.97,0 -3.697,-1.349 -4.151,-3.277 z"
           style="fill:#91523d"
           inkscape:connector-curvature="0" />
        <path
           id="path923"
           d="M 74.139,476.111 V 366.85 c 0,-1.657 0.956,-3.161 2.451,-3.864 l 12.181,-13.693 c 1.496,-0.703 2.451,-2.207 2.451,-3.855 v -58.07 c 0,-30.334 21.447,-59.592 49.861,-69.429 l -11.32,1.019 c -34.497,4.375 -60.365,33.68 -60.365,68.411 v 58.07 c 0,1.648 -0.956,3.151 -2.451,3.855 l -12.181,13.693 c -1.496,0.703 -2.451,2.207 -2.451,3.864 v 109.261 c 0,2.352 1.91,4.259 4.266,4.259 h 21.825 c -2.357,-10e-4 -4.267,-1.908 -4.267,-4.26 z"
           style="fill:#91523d"
           inkscape:connector-curvature="0" />
      </g>
      <g
         id="g931">
        <path
           id="path927"
           d="M 91.696,480.37 H 56.581 c -2.365,0 -4.266,-1.908 -4.266,-4.269 V 453.32 l 27.181,-4.038 c 0.28,0.559 0.695,1.06 1.216,1.445 l 9.893,7.41 c 0.782,0.588 1.351,1.436 1.583,2.371 l 3.649,14.57 c 0.665,2.69 -1.362,5.292 -4.141,5.292 z"
           style="fill:#3f5666"
           inkscape:connector-curvature="0" />
        <path
           id="path929"
           d="m 414.697,463.699 -3.291,13.713 c -0.415,1.735 -1.959,2.958 -3.754,2.958 h -35.984 c -1.969,0 -3.697,-1.349 -4.15,-3.277 l -5.405,-26.144 30.067,-7.729 c 0.26,0.502 0.627,0.935 1.081,1.281 l 20.029,15.236 c 1.213,0.926 1.764,2.478 1.407,3.962 z"
           style="fill:#3f5666"
           inkscape:connector-curvature="0" />
      </g>
      <circle
         id="circle933"
         r="8.0839996"
         cy="92.640999"
         cx="437.63501"
         style="fill:#804836" />
      <path
         id="path935"
         d="m 388.457,63.514 6.258,-21.258 c 2.178,-7.397 8.97,-12.476 16.685,-12.476 v 0 c 1.86,0 3.35,1.542 3.284,3.4 l -1.077,30.585 c -0.178,5.056 -2.895,9.442 -6.903,11.954 -3.673,2.302 -8.518,1.285 -11.053,-2.229 z"
         style="fill:#b8674d"
         inkscape:connector-curvature="0" />
      <path
         id="path937"
         d="m 396.397,56.608 2.929,-11.035 c 1.1,-4.147 4.534,-6.995 8.434,-6.995 v 0 c 0.94,0 1.694,0.864 1.66,1.906 l -0.544,17.148 c -0.092,2.906 -1.533,5.417 -3.643,6.805 -1.825,1.203 -4.192,0.556 -5.435,-1.353 l -3.151,-4.845 c -0.305,-0.473 -0.398,-1.074 -0.25,-1.631 z"
         style="fill:#91523d"
         inkscape:connector-curvature="0" />
      <g
         id="g939" />
      <g
         id="g941" />
      <g
         id="g943" />
      <g
         id="g945" />
      <g
         id="g947" />
      <g
         id="g949" />
      <g
         id="g951" />
      <g
         id="g953" />
      <g
         id="g955" />
      <g
         id="g957" />
      <g
         id="g959" />
      <g
         id="g961" />
      <g
         id="g963" />
      <g
         id="g965" />
      <g
         id="g967" />
    </g>
  </g>
</svg>
