<?xml version="1.0" encoding="UTF-8" standalone="no"?>
<!-- Created with Inkscape (http://www.inkscape.org/) -->

<svg
   xmlns:dc="http://purl.org/dc/elements/1.1/"
   xmlns:cc="http://creativecommons.org/ns#"
   xmlns:rdf="http://www.w3.org/1999/02/22-rdf-syntax-ns#"
   xmlns:svg="http://www.w3.org/2000/svg"
   xmlns="http://www.w3.org/2000/svg"
   xmlns:xlink="http://www.w3.org/1999/xlink"
   xmlns:sodipodi="http://sodipodi.sourceforge.net/DTD/sodipodi-0.dtd"
   xmlns:inkscape="http://www.inkscape.org/namespaces/inkscape"
   width="143.63092mm"
   height="143.63092mm"
   viewBox="0 0 143.63092 143.63092"
   version="1.1"
   id="svg31"
   inkscape:version="0.92.1 r15371"
   sodipodi:docname="Caballo.svg">
  <defs
     id="defs25">
    <radialGradient
       inkscape:collect="always"
       xlink:href="#linearGradient43"
       id="radialGradient45"
       cx="32.606884"
       cy="6.1048827"
       fx="32.606884"
       fy="6.1048827"
       r="64.633911"
       gradientUnits="userSpaceOnUse"
       gradientTransform="matrix(-1.4614512,1.8803868,-1.7177367,-1.3350561,90.746839,-47.058306)" />
    <linearGradient
       inkscape:collect="always"
       id="linearGradient43">
      <stop
         style="stop-color:#66ff00;stop-opacity:1;"
         offset="0"
         id="stop39" />
      <stop
         style="stop-color:#00ff00;stop-opacity:0.44"
         offset="1"
         id="stop41" />
    </linearGradient>
  </defs>
  <sodipodi:namedview
     id="base"
     pagecolor="#ffffff"
     bordercolor="#666666"
     borderopacity="1.0"
     inkscape:pageopacity="0.0"
     inkscape:pageshadow="2"
     inkscape:zoom="0.49497475"
     inkscape:cx="209.75943"
     inkscape:cy="115.06841"
     inkscape:document-units="px"
     inkscape:current-layer="layer1"
     showgrid="false"
     inkscape:snap-object-midpoints="true"
     inkscape:snap-center="true"
     inkscape:pagecheckerboard="true"
     fit-margin-top="0"
     fit-margin-left="0"
     fit-margin-right="0"
     fit-margin-bottom="0"
     borderlayer="true"
     inkscape:window-width="667"
     inkscape:window-height="729"
     inkscape:window-x="683"
     inkscape:window-y="0"
     inkscape:window-maximized="0" />
  <metadata
     id="metadata28">
    <rdf:RDF>
      <cc:Work
         rdf:about="">
        <dc:format>image/svg+xml</dc:format>
        <dc:type
           rdf:resource="http://purl.org/dc/dcmitype/StillImage" />
        <dc:title></dc:title>
      </cc:Work>
    </rdf:RDF>
  </metadata>
  <g
     inkscape:label="Capa 1"
     inkscape:groupmode="layer"
     id="layer1"
     transform="translate(5.4495665e-7,16.720213)">
    <rect
       style="fill:#00112b;stroke-width:0.28221554"
       id="rect33"
       width="143.63092"
       height="143.63092"
       x="-5.4495666e-007"
       y="-16.720213"
       ry="20.641569" />
    <rect
       ry="13.318157"
       y="-9.5386639"
       x="7.1815486"
       height="129.26782"
       width="129.26782"
       id="rect41"
       style="fill:url(#radialGradient45);fill-opacity:1;stroke-width:0.25399399"
       rx="12.82894" />
    <g
       id="g901"
       transform="matrix(0.26458335,0,0,0.26458335,26.802424,10.082475)">
      <g
         id="g836">
        <path
           id="path816"
           d="m 340.253,170.122 c 0,77.67 -52.03,143.18 -123.15,163.56 -5.31,1.52 -10.72,2.79 -16.22,3.79 -9.98,1.83 -20.25,2.78 -30.75,2.78 -5.91,0 -11.74,-0.3 -17.49,-0.89 -10.12,-1.03 -19.97,-2.95 -29.48,-5.68 -0.88,-0.25 -1.76,-0.51 -2.64,-0.79 -11.25,-3.42 -22,-7.98 -32.13,-13.54 -40.95,-22.46 -71.64,-61.29 -83.27,-107.68 -1.95,-7.73 -3.36,-15.66 -4.2,-23.77 -0.61,-5.84 -0.92,-11.78 -0.92,-17.78 0,-1.86 0.03,-3.7 0.09,-5.55 2.55,-79.7 59.94,-145.56 135.67,-161.09 11.1,-2.28 22.6,-3.48 34.37,-3.48 24.09,0 47.01,5.01 67.77,14.04 60.231,26.18 102.35,86.22 102.35,156.08 z"
           style="fill:#7ccfed"
           inkscape:connector-curvature="0" />
        <polygon
           id="polygon818"
           points="200.88,213.361 200.88,113.282 163.397,126.282 163.397,201.948 "
           style="fill:#7c5228" />
        <path
           id="path820"
           d="m 307.39,130.591 h -37.01 l -112,-18.33 -153.26,99.41 C 3.17,203.941 1.76,196.011 0.92,187.901 0.31,182.061 0,176.121 0,170.121 c 0,-1.86 0.03,-3.7 0.09,-5.55 l 2.81,-2.15 c 15.53,-11.9 28.2,-27.45 36.64,-44.97 13.95,-29.01 35.68,-53.55 62.83,-70.97 27.9,-17.91 60.25,-27.37 93.54,-27.37 61.47,0 111.48,50.01 111.48,111.48 z"
           style="fill:#666666"
           inkscape:connector-curvature="0" />
        <path
           id="path822"
           d="m 195.91,39.111 c -60.94,0 -113.59,35.53 -138.35,87.01 -10.01,20.8 -24.69,38.54 -42.5,52.18 -4.52,3.47 -9.24,6.68 -14.14,9.6 7.14,68.81 55.29,125.43 119.6,144.99 8.13,-2.88 15.87,-6.61 23.09,-11.08 34.37,-21.26 57.27,-59.3 57.27,-102.69 v -5.76 c -13.72,-10.03 -22.91,-29.13 -22.91,-46.21 v -43.35 l 3.56,42.52 c 1.98,23.57 19.51,42.9 42.78,47.17 v 13.92 c 0,17.42 14.12,31.54 31.54,31.54 h 31.54 v -128.36 c 0,-50.52 -40.96,-91.48 -91.48,-91.48 z"
           style="fill:#b27538"
           inkscape:connector-curvature="0" />
        <path
           id="path824"
           d="m 272.588,172.165 v 0 c -10.056,0 -18.208,-8.152 -18.208,-18.208 v 0 0 c 10.056,0 18.208,8.152 18.208,18.208 z"
           style="fill:#4d4d4d"
           inkscape:connector-curvature="0" />
        <path
           id="path826"
           d="m 279.027,249.415 c 0,-4.776 -3.871,-8.647 -8.647,-8.647 -4.776,0 -8.647,3.872 -8.647,8.647"
           style="fill:#4d4d4d"
           inkscape:connector-curvature="0" />
        <path
           id="path828"
           d="M 261.72,53.201 C 252.921,73.465 229.362,82.759 209.098,73.96 188.834,65.161 179.54,41.602 188.339,21.338"
           style="fill:#666666"
           inkscape:connector-curvature="0" />
        <path
           id="path830"
           d="m 243.377,95.555 v 0 c 30.409,0 55.061,-24.652 55.061,-55.061 v 0 0 c -30.41,0 -55.061,24.651 -55.061,55.061 z"
           style="fill:#b27538"
           inkscape:connector-curvature="0" />
        <path
           id="path832"
           d="m 253.127,85.805 v 0 c 15.052,0 27.253,-12.202 27.253,-27.253 v 0 0 c -15.052,-10e-4 -27.253,12.201 -27.253,27.253 z"
           style="fill:#7c5228"
           inkscape:connector-curvature="0" />
        <path
           id="path834"
           d="m 185.093,39.491 v 0 c 0,70.047 -56.784,126.831 -126.831,126.831 H 22.639 l 30.424,-51.373 43.333,-48 72,-32.667"
           style="fill:#666666"
           inkscape:connector-curvature="0" />
      </g>
      <g
         id="g838" />
      <g
         id="g840" />
      <g
         id="g842" />
      <g
         id="g844" />
      <g
         id="g846" />
      <g
         id="g848" />
      <g
         id="g850" />
      <g
         id="g852" />
      <g
         id="g854" />
      <g
         id="g856" />
      <g
         id="g858" />
      <g
         id="g860" />
      <g
         id="g862" />
      <g
         id="g864" />
      <g
         id="g866" />
    </g>
  </g>
</svg>
