<?xml version="1.0" encoding="UTF-8" standalone="no"?>
<!-- Created with Inkscape (http://www.inkscape.org/) -->

<svg
   xmlns:dc="http://purl.org/dc/elements/1.1/"
   xmlns:cc="http://creativecommons.org/ns#"
   xmlns:rdf="http://www.w3.org/1999/02/22-rdf-syntax-ns#"
   xmlns:svg="http://www.w3.org/2000/svg"
   xmlns="http://www.w3.org/2000/svg"
   xmlns:xlink="http://www.w3.org/1999/xlink"
   xmlns:sodipodi="http://sodipodi.sourceforge.net/DTD/sodipodi-0.dtd"
   xmlns:inkscape="http://www.inkscape.org/namespaces/inkscape"
   width="143.63092mm"
   height="143.63092mm"
   viewBox="0 0 143.63092 143.63092"
   version="1.1"
   id="svg31"
   inkscape:version="0.92.1 r15371"
   sodipodi:docname="Cascabel.svg">
  <defs
     id="defs25">
    <radialGradient
       inkscape:collect="always"
       xlink:href="#linearGradient43"
       id="radialGradient45"
       cx="32.606884"
       cy="6.1048827"
       fx="32.606884"
       fy="6.1048827"
       r="64.633911"
       gradientUnits="userSpaceOnUse"
       gradientTransform="matrix(-1.4614512,1.8803868,-1.7177367,-1.3350561,90.746839,-47.058306)" />
    <linearGradient
       inkscape:collect="always"
       id="linearGradient43">
      <stop
         style="stop-color:#66ff00;stop-opacity:1;"
         offset="0"
         id="stop39" />
      <stop
         style="stop-color:#00ff00;stop-opacity:0.44"
         offset="1"
         id="stop41" />
    </linearGradient>
  </defs>
  <sodipodi:namedview
     id="base"
     pagecolor="#ffffff"
     bordercolor="#666666"
     borderopacity="1.0"
     inkscape:pageopacity="0.0"
     inkscape:pageshadow="2"
     inkscape:zoom="0.49497475"
     inkscape:cx="209.75943"
     inkscape:cy="115.06841"
     inkscape:document-units="px"
     inkscape:current-layer="layer1"
     showgrid="false"
     inkscape:snap-object-midpoints="true"
     inkscape:snap-center="true"
     inkscape:pagecheckerboard="true"
     fit-margin-top="0"
     fit-margin-left="0"
     fit-margin-right="0"
     fit-margin-bottom="0"
     borderlayer="true"
     inkscape:window-width="667"
     inkscape:window-height="729"
     inkscape:window-x="683"
     inkscape:window-y="0"
     inkscape:window-maximized="0" />
  <metadata
     id="metadata28">
    <rdf:RDF>
      <cc:Work
         rdf:about="">
        <dc:format>image/svg+xml</dc:format>
        <dc:type
           rdf:resource="http://purl.org/dc/dcmitype/StillImage" />
        <dc:title></dc:title>
      </cc:Work>
    </rdf:RDF>
  </metadata>
  <g
     inkscape:label="Capa 1"
     inkscape:groupmode="layer"
     id="layer1"
     transform="translate(5.4495665e-7,16.720213)">
    <rect
       style="fill:#00112b;stroke-width:0.28221554"
       id="rect33"
       width="143.63092"
       height="143.63092"
       x="-5.4495666e-007"
       y="-16.720213"
       ry="20.641569" />
    <rect
       ry="13.318157"
       y="-9.5386639"
       x="7.1815486"
       height="129.26782"
       width="129.26782"
       id="rect41"
       style="fill:url(#radialGradient45);fill-opacity:1;stroke-width:0.25399399"
       rx="12.82894" />
    <g
       id="g727"
       transform="matrix(0.17897324,0,0,0.16018119,27.947866,17.578729)">
      <path
         id="path606"
         d="M 245.106,70.808 V 332.254 H 157.957 V 5.447 h 21.787 c 36.1,0 65.362,29.263 65.362,65.361 z"
         style="fill:#b98c3f"
         inkscape:connector-curvature="0" />
      <path
         id="path608"
         d="m 245.106,299.574 v 0 98.042 h -21.787 c -36.098,0 -65.362,-29.263 -65.362,-65.362 v -32.681 -87.149 c 0.001,48.132 39.019,87.15 87.149,87.15 z"
         style="fill:#ad803e"
         inkscape:connector-curvature="0" />
      <path
         id="path610"
         d="m 27.235,101.31 v 34.859 10.894 2.673 c 0,3.033 -3.668,4.552 -5.812,2.407 L 18.26,148.98 c -0.509,-0.509 -1.198,-0.794 -1.917,-0.794 v 0 c -0.719,0 -1.41,0.285 -1.917,0.794 l -3.164,3.163 c -2.146,2.146 -5.814,0.626 -5.814,-2.406 V 147.063 136.17 103.489 L 16.342,102.4 Z"
         style="fill:#7c331c"
         inkscape:connector-curvature="0" />
      <path
         id="path612"
         d="m 59.915,81.702 v 21.787 h -32.68 c -12.033,0 -21.787,9.754 -21.787,21.787 v -21.787 0 c 0,-12.033 9.754,-21.787 21.787,-21.787 z"
         style="fill:#99411f"
         inkscape:connector-curvature="0" />
      <path
         id="path614"
         d="m 506.553,462.978 c 0,24.065 -19.509,43.574 -43.574,43.574 H 49.022 c -24.065,0 -43.574,-19.509 -43.574,-43.574 0,-24.065 19.509,-43.574 43.574,-43.574 h 65.362 c -24.065,0 -43.574,-19.509 -43.574,-43.574 0,-24.065 19.509,-43.574 43.574,-43.574 h 43.574 v -87.149 c 0,48.131 39.018,87.149 87.149,87.149 h 152.51 c 24.065,0 43.574,19.509 43.574,43.574 0,24.065 -19.509,43.574 -43.574,43.574 h 65.362 c 24.065,-10e-4 43.574,19.509 43.574,43.574 z"
         style="fill:#e1b958"
         inkscape:connector-curvature="0" />
      <g
         id="g620">
        <path
           id="path616"
           d="m 505.18,473.871 c -4.837,18.794 -21.897,32.681 -42.202,32.681 H 49.022 c -20.303,0 -37.364,-13.887 -42.202,-32.681 z"
           style="fill:#d3aa4f"
           inkscape:connector-curvature="0" />
        <path
           id="path618"
           d="m 114.383,419.403 h 283.233 c 20.303,0 37.364,-13.887 42.202,-32.681 H 72.183 c 4.836,18.795 21.897,32.681 42.2,32.681 z"
           style="fill:#d3aa4f"
           inkscape:connector-curvature="0" />
      </g>
      <g
         id="g636">
        <path
           id="path622"
           d="m 174.298,364.935 c -9.024,0 -16.34,-7.316 -16.34,-16.34 v -16.34 h 32.681 v 16.34 c -0.001,9.025 -7.316,16.34 -16.341,16.34 z"
           style="fill:#704c2c"
           inkscape:connector-curvature="0" />
        <path
           id="path624"
           d="m 354.042,348.595 v -16.34 h -32.681 v 16.34 c 0,9.024 7.316,16.34 16.34,16.34 9.024,0 16.341,-7.315 16.341,-16.34 z"
           style="fill:#704c2c"
           inkscape:connector-curvature="0" />
        <path
           id="path626"
           d="m 272.34,348.595 v -16.34 h -32.68 v 16.34 c 0,9.024 7.316,16.34 16.34,16.34 9.024,0 16.34,-7.315 16.34,-16.34 z"
           style="fill:#704c2c"
           inkscape:connector-curvature="0" />
        <path
           id="path628"
           d="m 125.277,435.744 c 0,9.024 7.316,16.34 16.34,16.34 9.024,0 16.34,-7.316 16.34,-16.34 v -16.34 h -32.681 v 16.34 z"
           style="fill:#704c2c"
           inkscape:connector-curvature="0" />
        <path
           id="path630"
           d="m 201.532,435.744 c 0,9.024 7.316,16.34 16.34,16.34 9.024,0 16.34,-7.316 16.34,-16.34 v -16.34 h -32.681 v 16.34 z"
           style="fill:#704c2c"
           inkscape:connector-curvature="0" />
        <path
           id="path632"
           d="m 354.042,419.403 v 16.34 c 0,9.024 7.316,16.34 16.34,16.34 9.024,0 16.34,-7.316 16.34,-16.34 v -16.34 z"
           style="fill:#704c2c"
           inkscape:connector-curvature="0" />
        <path
           id="path634"
           d="m 277.787,435.744 c 0,9.024 7.316,16.34 16.34,16.34 9.024,0 16.34,-7.316 16.34,-16.34 v -16.34 h -32.681 v 16.34 z"
           style="fill:#704c2c"
           inkscape:connector-curvature="0" />
      </g>
      <path
         id="path638"
         d="M 462.978,289.379 V 506.553 H 375.83 l 61.799,-226.597 c 2.172,-7.963 6.881,-13.063 12.064,-13.063 7.337,0 13.285,10.067 13.285,22.486 z"
         style="fill:#ad803e"
         inkscape:connector-curvature="0" />
      <path
         id="path640"
         d="m 441.191,289.379 v 142.819 c 0,41.065 -19.671,74.354 -43.937,74.354 H 375.83 c 0,0 47.419,-173.629 59.959,-219.189 1.258,-4.572 5.383,-3.173 5.402,1.87 0,0.05 0,0.098 0,0.146 z"
         style="fill:#b98c3f"
         inkscape:connector-curvature="0" />
      <path
         id="path642"
         d="m 179.745,59.915 h -21.787 v 87.149 0 c 48.131,0 87.149,39.018 87.149,87.149 V 147.064 125.277 C 245.106,89.179 215.844,59.915 179.745,59.915 Z"
         style="fill:#ad803e"
         inkscape:connector-curvature="0" />
      <path
         id="path644"
         d="m 245.106,92.596 v 21.787 87.149 c 0,-48.131 -39.018,-87.149 -87.149,-87.149 H 41.76 c -8.022,0 -14.526,-6.502 -14.526,-14.524 0,-4.572 2.153,-8.877 5.81,-11.62 l 72.624,-54.468 c 5.657,-4.243 12.537,-6.536 19.608,-6.536 h 54.468 c 36.1,-10e-4 65.362,29.264 65.362,65.361 z"
         style="fill:#d3aa4f"
         inkscape:connector-curvature="0" />
      <path
         id="path646"
         d="m 41.76,92.596 h 116.199 c 48.131,0 87.149,39.018 87.149,87.149 V 92.596 70.808 c 0,-36.098 -29.263,-65.362 -65.362,-65.362 h -54.468 c -7.071,0 -13.951,2.293 -19.608,6.536 L 33.045,66.451 c -3.658,2.743 -5.811,7.048 -5.811,11.62 10e-4,8.022 6.504,14.525 14.526,14.525 z"
         style="fill:#e1b958"
         inkscape:connector-curvature="0" />
      <path
         id="path648"
         d="m 119.83,38.128 c 3.008,0 5.447,-2.439 5.447,-5.447 0,-3.008 -2.439,-5.447 -5.447,-5.447 -3.008,0 -5.447,2.439 -5.447,5.447 0,3.008 2.439,5.447 5.447,5.447 z"
         style="fill:#704c2c"
         inkscape:connector-curvature="0" />
      <path
         id="path650"
         d="m 511.999,462.978 c 0,27.03 -21.991,49.021 -49.021,49.021 h -87.025 c -0.04,10e-4 -0.081,10e-4 -0.121,10e-4 -0.04,0 -0.081,0 -0.121,-10e-4 H 49.022 c -27.03,0 -49.021,-21.991 -49.021,-49.021 0,-27.03 21.991,-49.021 49.021,-49.021 h 34.583 c -11.119,-8.995 -18.242,-22.745 -18.242,-38.128 0,-27.03 21.991,-49.021 49.021,-49.021 h 38.128 V 119.83 H 41.76 c -3.241,0 -6.335,-0.778 -9.078,-2.178 v 32.085 c 0,3.594 -2.145,6.804 -5.465,8.179 -3.32,1.377 -7.106,0.621 -9.646,-1.922 l -1.23,-1.228 -1.231,1.23 c -2.538,2.539 -6.325,3.296 -9.644,1.919 -3.319,-1.375 -5.465,-4.585 -5.465,-8.179 v -46.248 c 0,-0.014 0,-0.026 0,-0.04 0,-0.009 0,-0.016 0,-0.024 v -0.015 c 0,-0.013 0,-0.024 0,-0.037 0.054,-12.649 8.776,-23.292 20.52,-26.28 0.431,-0.111 0.868,-0.21 1.308,-0.298 0.376,-5.782 3.287,-11.205 7.948,-14.7 L 102.4,7.626 C 108.957,2.708 117.082,0 125.277,0 h 54.468 c 39.044,0 70.808,31.765 70.808,70.808 v 255.999 h 147.064 c 3.008,0 5.447,2.438 5.447,5.447 0,3.009 -2.439,5.447 -5.447,5.447 h -38.128 v 10.894 c 0,12.013 -9.774,21.787 -21.787,21.787 -12.013,0 -21.787,-9.774 -21.787,-21.787 v -10.894 h -38.128 v 10.894 c 0,12.013 -9.774,21.787 -21.787,21.787 -12.013,0 -21.787,-9.774 -21.787,-21.787 v -10.894 h -38.128 v 10.894 c 0,12.013 -9.774,21.787 -21.787,21.787 -12.013,0 -21.787,-9.774 -21.787,-21.787 v -10.894 h -38.128 c -21.024,0 -38.128,17.104 -38.128,38.128 0,21.024 17.104,38.128 38.128,38.128 h 281.055 l 36.937,-135.435 c 2.873,-10.533 9.509,-17.076 17.318,-17.076 10.505,0 18.733,12.269 18.733,27.932 v 211.339 c 18.453,-2.651 32.681,-18.565 32.681,-37.74 0,-12.687 -6.286,-24.506 -16.814,-31.619 -2.494,-1.684 -3.148,-5.07 -1.464,-7.562 1.684,-2.495 5.069,-3.149 7.562,-1.464 13.531,9.141 21.608,24.336 21.608,40.646 z M 326.808,348.595 c 0,6.007 4.887,10.894 10.894,10.894 6.007,0 10.894,-4.887 10.894,-10.894 v -10.894 h -21.787 v 10.894 z m -81.702,0 c 0,6.007 4.887,10.894 10.894,10.894 6.007,0 10.894,-4.887 10.894,-10.894 v -10.894 h -21.787 v 10.894 z m -59.914,-10.894 h -21.787 v 10.894 c 0,6.007 4.887,10.894 10.894,10.894 6.007,0 10.894,-4.887 10.894,-10.894 v -10.894 z m 16.319,-10.893 c -6.446,-3.441 -12.507,-7.66 -18.045,-12.604 -8.224,-7.341 -14.981,-16.014 -20.061,-25.548 v 38.152 h 27.234 z M 157.958,108.936 c 23.21,0 45.412,8.627 62.517,24.289 2.218,2.032 2.369,5.476 0.339,7.695 -2.032,2.219 -5.476,2.37 -7.695,0.339 -13.748,-12.589 -31.228,-20.026 -49.713,-21.25 v 125.097 c 0,23.251 9.956,45.474 27.315,60.97 13.618,12.156 30.822,19.347 48.941,20.551 V 70.808 c 0,-33.037 -26.878,-59.915 -59.915,-59.915 h -54.468 c -5.854,0 -11.657,1.934 -16.34,5.447 L 36.313,70.808 c -2.273,1.705 -3.632,4.421 -3.632,7.262 0,5.007 4.073,9.079 9.079,9.079 3.008,0 5.447,2.438 5.447,5.447 0,3.009 -2.439,5.447 -5.447,5.447 -7.627,0 -14.268,-4.296 -17.632,-10.598 -0.955,0.185 -1.881,0.453 -2.77,0.796 -6.13,2.384 -10.434,8.395 -10.463,15.178 0,0 0,0.015 0,0.023 v 0.008 c 0,0.005 0,0.011 0,0.016 0,0 0,0.016 0,0.024 v 41.335 c 1.498,-1.346 3.416,-2.084 5.447,-2.084 2.031,0 3.948,0.738 5.447,2.084 v -41.336 c 0,-3.009 2.439,-5.447 5.447,-5.447 h 0.458 c 2.486,0 4.656,1.683 5.275,4.089 1.031,4.008 4.646,6.805 8.792,6.805 z m 125.276,326.808 c 0,6.007 4.887,10.894 10.894,10.894 6.007,0 10.894,-4.887 10.894,-10.894 V 424.85 h -21.787 v 10.894 z m -76.255,0 c 0,6.007 4.887,10.894 10.894,10.894 6.007,0 10.894,-4.887 10.894,-10.894 V 424.85 H 206.98 v 10.894 z m -76.255,0 c 0,6.007 4.887,10.894 10.894,10.894 6.007,0 10.894,-4.887 10.894,-10.894 V 424.85 h -21.787 v 10.894 z M 392.466,424.85 h -32.977 v 10.894 c 0,6.007 4.887,10.894 10.894,10.894 3.008,0 5.447,2.438 5.447,5.447 0,3.009 -2.439,5.447 -5.447,5.447 -12.013,0 -21.787,-9.774 -21.787,-21.787 V 424.85 h -32.681 v 10.894 c 0,12.013 -9.774,21.787 -21.787,21.787 -12.013,0 -21.787,-9.774 -21.787,-21.787 V 424.85 H 239.66 v 10.894 c 0,12.013 -9.774,21.787 -21.787,21.787 -12.013,0 -21.787,-9.774 -21.787,-21.787 V 424.85 h -32.681 v 10.894 c 0,12.013 -9.774,21.787 -21.787,21.787 -12.013,0 -21.787,-9.774 -21.787,-21.787 V 424.85 H 49.022 c -21.024,0 -38.128,17.104 -38.128,38.128 0,21.024 17.104,38.128 38.128,38.128 H 371.67 Z m 65.065,-135.471 c 0,-10.401 -4.643,-17.039 -7.839,-17.039 -2.157,0 -5.189,3.109 -6.809,9.048 l -59.922,219.717 h 74.57 z"
         inkscape:connector-curvature="0" />
      <g
         id="g652" />
      <g
         id="g654" />
      <g
         id="g656" />
      <g
         id="g658" />
      <g
         id="g660" />
      <g
         id="g662" />
      <g
         id="g664" />
      <g
         id="g666" />
      <g
         id="g668" />
      <g
         id="g670" />
      <g
         id="g672" />
      <g
         id="g674" />
      <g
         id="g676" />
      <g
         id="g678" />
      <g
         id="g680" />
    </g>
  </g>
</svg>
