<?xml version="1.0" encoding="UTF-8" standalone="no"?>
<!-- Created with Inkscape (http://www.inkscape.org/) -->

<svg
   xmlns:dc="http://purl.org/dc/elements/1.1/"
   xmlns:cc="http://creativecommons.org/ns#"
   xmlns:rdf="http://www.w3.org/1999/02/22-rdf-syntax-ns#"
   xmlns:svg="http://www.w3.org/2000/svg"
   xmlns="http://www.w3.org/2000/svg"
   xmlns:xlink="http://www.w3.org/1999/xlink"
   xmlns:sodipodi="http://sodipodi.sourceforge.net/DTD/sodipodi-0.dtd"
   xmlns:inkscape="http://www.inkscape.org/namespaces/inkscape"
   width="143.63092mm"
   height="143.63092mm"
   viewBox="0 0 143.63092 143.63092"
   version="1.1"
   id="svg31"
   inkscape:version="0.92.1 r15371"
   sodipodi:docname="Cerdo2.svg">
  <defs
     id="defs25">
    <radialGradient
       inkscape:collect="always"
       xlink:href="#linearGradient43"
       id="radialGradient45"
       cx="32.606884"
       cy="6.1048827"
       fx="32.606884"
       fy="6.1048827"
       r="64.633911"
       gradientUnits="userSpaceOnUse"
       gradientTransform="matrix(-1.4614512,1.8803868,-1.7177367,-1.3350561,90.746839,-47.058306)" />
    <linearGradient
       inkscape:collect="always"
       id="linearGradient43">
      <stop
         style="stop-color:#66ff00;stop-opacity:1;"
         offset="0"
         id="stop39" />
      <stop
         style="stop-color:#00ff00;stop-opacity:0.44"
         offset="1"
         id="stop41" />
    </linearGradient>
  </defs>
  <sodipodi:namedview
     id="base"
     pagecolor="#ffffff"
     bordercolor="#666666"
     borderopacity="1.0"
     inkscape:pageopacity="0.0"
     inkscape:pageshadow="2"
     inkscape:zoom="0.49497475"
     inkscape:cx="209.75943"
     inkscape:cy="115.06841"
     inkscape:document-units="px"
     inkscape:current-layer="layer1"
     showgrid="false"
     inkscape:snap-object-midpoints="true"
     inkscape:snap-center="true"
     inkscape:pagecheckerboard="true"
     fit-margin-top="0"
     fit-margin-left="0"
     fit-margin-right="0"
     fit-margin-bottom="0"
     borderlayer="true"
     inkscape:window-width="667"
     inkscape:window-height="729"
     inkscape:window-x="683"
     inkscape:window-y="0"
     inkscape:window-maximized="0" />
  <metadata
     id="metadata28">
    <rdf:RDF>
      <cc:Work
         rdf:about="">
        <dc:format>image/svg+xml</dc:format>
        <dc:type
           rdf:resource="http://purl.org/dc/dcmitype/StillImage" />
        <dc:title></dc:title>
      </cc:Work>
    </rdf:RDF>
  </metadata>
  <g
     inkscape:label="Capa 1"
     inkscape:groupmode="layer"
     id="layer1"
     transform="translate(5.4495665e-7,16.720213)">
    <rect
       style="fill:#00112b;stroke-width:0.28221554"
       id="rect33"
       width="143.63092"
       height="143.63092"
       x="-5.4495666e-007"
       y="-16.720213"
       ry="20.641569" />
    <rect
       ry="13.318157"
       y="-9.5386639"
       x="7.1815486"
       height="129.26782"
       width="129.26782"
       id="rect41"
       style="fill:url(#radialGradient45);fill-opacity:1;stroke-width:0.25399399"
       rx="12.82894" />
    <g
       id="g2062"
       transform="matrix(0.18375875,0,0,0.21309286,24.77322,0.54336761)">
      <path
         id="path1971"
         d="m 0,16.516 c 0,140.387 99.097,173.42 132.129,156.904 l 57.807,-57.807 C 156.904,24.774 0,16.516 0,16.516 Z"
         style="fill:#ffd2b9"
         inkscape:connector-curvature="0" />
      <path
         id="path1973"
         d="M 127.341,175.275 C 140.103,150.247 141.408,111.882 123.872,90.839 82.581,41.29 33.032,41.29 0,16.516 0,150.706 90.499,186.772 127.341,175.275 Z"
         style="fill:#ebb4a0"
         inkscape:connector-curvature="0" />
      <path
         id="path1975"
         d="m 512,16.516 c 0,140.387 -99.097,173.42 -132.129,156.904 L 322.064,115.613 C 355.098,24.774 512,16.516 512,16.516 Z"
         style="fill:#ffd2b9"
         inkscape:connector-curvature="0" />
      <path
         id="path1977"
         d="M 384.659,175.275 C 371.897,150.247 370.593,111.882 388.129,90.839 429.419,41.291 478.968,41.291 512,16.516 512,150.706 421.501,186.772 384.659,175.275 Z"
         style="fill:#ebb4a0"
         inkscape:connector-curvature="0" />
      <path
         id="path1979"
         d="m 437.678,313.807 c 0,100.338 -81.34,181.678 -181.678,181.678 -100.338,0 -181.677,-81.34 -181.677,-181.678 0,-100.338 63.097,-222.968 181.678,-222.968 118.581,0 181.677,122.63 181.677,222.968 z"
         style="fill:#ffd2b9"
         inkscape:connector-curvature="0" />
      <path
         id="path1981"
         d="m 190.382,389.064 c 8.563,33.472 32.694,57.453 66.715,57.204 34.022,-0.249 56.931,-25.81 65.409,-58.405 z"
         style="fill:#d7a091"
         inkscape:connector-curvature="0" />
      <path
         id="path1983"
         d="m 338.802,363.591 c 0.45,49.47 -57.514,32.376 -82.288,32.601 -24.257,0.221 -82.417,18.37 -82.867,-31.1 -0.459,-50.526 36.139,-91.822 81.746,-92.236 45.607,-0.414 82.95,40.209 83.409,90.735 z"
         style="fill:#ebb4a0"
         inkscape:connector-curvature="0" />
      <g
         id="g1989">
        <circle
           id="circle1985"
           r="12.387"
           cy="227.097"
           cx="152.77499"
           style="fill:#464655" />
        <circle
           id="circle1987"
           r="12.387"
           cy="227.097"
           cx="359.22699"
           style="fill:#464655" />
      </g>
      <g
         id="g1995">
        <circle
           id="circle1991"
           r="12.387"
           cy="334.452"
           cx="227.097"
           style="fill:#d7a091" />
        <circle
           id="circle1993"
           r="12.387"
           cy="334.452"
           cx="284.90399"
           style="fill:#d7a091" />
      </g>
      <g
         id="g1997" />
      <g
         id="g1999" />
      <g
         id="g2001" />
      <g
         id="g2003" />
      <g
         id="g2005" />
      <g
         id="g2007" />
      <g
         id="g2009" />
      <g
         id="g2011" />
      <g
         id="g2013" />
      <g
         id="g2015" />
      <g
         id="g2017" />
      <g
         id="g2019" />
      <g
         id="g2021" />
      <g
         id="g2023" />
      <g
         id="g2025" />
    </g>
  </g>
</svg>
