<?xml version="1.0" encoding="UTF-8" standalone="no"?>
<!-- Created with Inkscape (http://www.inkscape.org/) -->

<svg
   xmlns:dc="http://purl.org/dc/elements/1.1/"
   xmlns:cc="http://creativecommons.org/ns#"
   xmlns:rdf="http://www.w3.org/1999/02/22-rdf-syntax-ns#"
   xmlns:svg="http://www.w3.org/2000/svg"
   xmlns="http://www.w3.org/2000/svg"
   xmlns:xlink="http://www.w3.org/1999/xlink"
   xmlns:sodipodi="http://sodipodi.sourceforge.net/DTD/sodipodi-0.dtd"
   xmlns:inkscape="http://www.inkscape.org/namespaces/inkscape"
   width="143.63092mm"
   height="143.63092mm"
   viewBox="0 0 143.63092 143.63092"
   version="1.1"
   id="svg31"
   inkscape:version="0.92.1 r15371"
   sodipodi:docname="Cerdo.svg">
  <defs
     id="defs25">
    <radialGradient
       inkscape:collect="always"
       xlink:href="#linearGradient43"
       id="radialGradient45"
       cx="32.606884"
       cy="6.1048827"
       fx="32.606884"
       fy="6.1048827"
       r="64.633911"
       gradientUnits="userSpaceOnUse"
       gradientTransform="matrix(-1.4614512,1.8803868,-1.7177367,-1.3350561,90.746839,-47.058306)" />
    <linearGradient
       inkscape:collect="always"
       id="linearGradient43">
      <stop
         style="stop-color:#66ff00;stop-opacity:1;"
         offset="0"
         id="stop39" />
      <stop
         style="stop-color:#00ff00;stop-opacity:0.44"
         offset="1"
         id="stop41" />
    </linearGradient>
  </defs>
  <sodipodi:namedview
     id="base"
     pagecolor="#ffffff"
     bordercolor="#666666"
     borderopacity="1.0"
     inkscape:pageopacity="0.0"
     inkscape:pageshadow="2"
     inkscape:zoom="0.49497475"
     inkscape:cx="209.75943"
     inkscape:cy="115.06841"
     inkscape:document-units="px"
     inkscape:current-layer="layer1"
     showgrid="false"
     inkscape:snap-object-midpoints="true"
     inkscape:snap-center="true"
     inkscape:pagecheckerboard="true"
     fit-margin-top="0"
     fit-margin-left="0"
     fit-margin-right="0"
     fit-margin-bottom="0"
     borderlayer="true"
     inkscape:window-width="667"
     inkscape:window-height="729"
     inkscape:window-x="683"
     inkscape:window-y="0"
     inkscape:window-maximized="0" />
  <metadata
     id="metadata28">
    <rdf:RDF>
      <cc:Work
         rdf:about="">
        <dc:format>image/svg+xml</dc:format>
        <dc:type
           rdf:resource="http://purl.org/dc/dcmitype/StillImage" />
        <dc:title></dc:title>
      </cc:Work>
    </rdf:RDF>
  </metadata>
  <g
     inkscape:label="Capa 1"
     inkscape:groupmode="layer"
     id="layer1"
     transform="translate(5.4495665e-7,16.720213)">
    <rect
       style="fill:#00112b;stroke-width:0.28221554"
       id="rect33"
       width="143.63092"
       height="143.63092"
       x="-5.4495666e-007"
       y="-16.720213"
       ry="20.641569" />
    <rect
       ry="13.318157"
       y="-9.5386639"
       x="7.1815486"
       height="129.26782"
       width="129.26782"
       id="rect41"
       style="fill:url(#radialGradient45);fill-opacity:1;stroke-width:0.25399399"
       rx="12.82894" />
    <g
       id="g1969"
       transform="matrix(0.19119555,0,0,0.25445765,22.86953,-10.046089)">
      <path
         id="path1854"
         d="m 100.233,196.275 c -2.065,0 -4.128,-0.787 -5.703,-2.363 -3.15,-3.15 -3.15,-8.257 0,-11.405 5.97,-5.972 18.008,-22.145 0.866,-43.322 -0.751,-0.927 -1.522,-1.828 -2.312,-2.7 0.109,11.802 -4.231,22.416 -12.622,30.807 -14.192,14.193 -37.287,14.193 -51.478,0 -6.876,-6.876 -10.662,-16.017 -10.662,-25.74 0,-9.724 3.786,-18.864 10.662,-25.739 8.39,-8.39 19.027,-12.727 30.806,-12.622 -0.872,-0.789 -1.772,-1.561 -2.7,-2.312 -21.176,-17.143 -37.35,-5.105 -43.322,0.866 -3.15,3.15 -8.257,3.15 -11.407,0 -3.15,-3.15 -3.15,-8.257 0,-11.405 14.566,-14.565 39.258,-22.737 64.876,-1.997 7.827,6.335 14.172,13.944 18.618,22.076 8.132,4.445 15.741,10.791 22.076,18.618 20.741,25.62 12.568,50.312 -1.997,64.876 -1.572,1.575 -3.636,2.362 -5.701,2.362 z m -40.87,-76.954 c -7.351,0 -13.727,2.652 -18.974,7.899 -3.829,3.829 -5.937,8.919 -5.937,14.334 0,5.415 2.108,10.504 5.937,14.334 7.904,7.904 20.763,7.904 28.666,0 5.635,-5.635 8.278,-12.573 7.856,-20.624 -0.222,-4.225 -1.285,-8.557 -3.085,-12.814 -4.257,-1.8 -8.588,-2.864 -12.814,-3.085 -0.555,-0.03 -1.105,-0.044 -1.649,-0.044 z"
         style="fill:#e99b98"
         inkscape:connector-curvature="0" />
      <path
         id="path1856"
         d="m 424.123,436.166 h -59.791 c -3.814,0 -6.906,-3.092 -6.906,-6.906 v -88.626 h 73.602 v 88.626 c 0,3.814 -3.092,6.906 -6.905,6.906 z"
         style="fill:#edbcb9"
         inkscape:connector-curvature="0" />
      <path
         id="path1858"
         d="m 424.123,436.166 h -59.791 c -3.814,0 -6.906,-3.092 -6.906,-6.906 v -88.626 h 73.602 v 88.626 c 0,3.814 -3.092,6.906 -6.905,6.906 z"
         style="opacity:0.07999998;enable-background:new"
         inkscape:connector-curvature="0" />
      <path
         id="path1860"
         d="m 424.123,436.166 h -59.791 c -3.814,0 -6.906,-3.092 -6.906,-6.906 v -19.652 h 73.602 v 19.652 c 0,3.814 -3.092,6.906 -6.905,6.906 z"
         style="fill:#4a5058"
         inkscape:connector-curvature="0" />
      <path
         id="path1862"
         d="m 482.719,132.473 v 0 c -14.68,-0.017 -29.322,1.461 -43.703,4.411 v 0 c -8.241,1.69 -11.83,11.455 -6.647,18.081 v 0 c 16.659,21.292 35.847,40.48 57.139,57.139 v 0 c 6.625,5.183 16.39,1.594 18.081,-6.647 v 0 c 2.95,-14.377 4.427,-29.017 4.411,-43.694 v -0.01 c -0.017,-16.163 -13.117,-29.262 -29.281,-29.28 z"
         style="fill:#e99b98"
         inkscape:connector-curvature="0" />
      <path
         id="path1864"
         d="M 357.117,108.273 H 212.191 c -76.196,0 -137.966,61.769 -137.966,137.964 v 0 c 0,40.47 17.424,76.869 45.181,102.106 v 80.916 c 0,3.814 3.092,6.906 6.906,6.906 h 59.791 c 3.814,0 6.906,-3.092 6.906,-6.906 v -46.391 c 6.269,0.872 12.671,1.333 19.182,1.333 h 43.845 v 45.057 c 0,3.814 3.092,6.906 6.906,6.906 h 59.791 c 3.814,0 6.906,-3.092 6.906,-6.906 v -45.057 h 27.479 c 76.196,0 137.964,-61.769 137.964,-137.966 v 0 C 495.083,170.042 433.314,108.273 357.117,108.273 Z"
         style="fill:#edbcb9"
         inkscape:connector-curvature="0" />
      <g
         id="g1870">
        <path
           id="path1866"
           d="m 323.026,210.399 c -4.455,0 -8.065,-3.611 -8.065,-8.065 0,-1.765 -1.436,-3.199 -3.2,-3.199 -1.765,0 -3.199,1.436 -3.199,3.199 0,4.454 -3.61,8.065 -8.065,8.065 -4.455,0 -8.065,-3.611 -8.065,-8.065 0,-10.659 8.671,-19.33 19.33,-19.33 10.659,0 19.331,8.672 19.331,19.33 -0.002,4.454 -3.613,8.065 -8.067,8.065 z"
           style="fill:#4a5058"
           inkscape:connector-curvature="0" />
        <path
           id="path1868"
           d="m 447.089,213.918 c -4.455,0 -8.065,-3.611 -8.065,-8.065 v -12.011 c 0,-4.454 3.61,-8.065 8.065,-8.065 4.454,0 8.065,3.611 8.065,8.065 v 12.011 c 0,4.454 -3.611,8.065 -8.065,8.065 z"
           style="fill:#4a5058"
           inkscape:connector-curvature="0" />
      </g>
      <g
         id="g1878"
         style="opacity:0.05">
        <ellipse
           id="ellipse1872"
           ry="23.777"
           rx="18.4"
           cy="253.57401"
           cx="119.798" />
        <ellipse
           id="ellipse1874"
           ry="19.528999"
           rx="15.12"
           cy="294.31"
           cx="162.813" />
        <ellipse
           id="ellipse1876"
           ry="16.205999"
           rx="12.544"
           cy="232.239"
           cx="170.19" />
      </g>
      <path
         id="path1880"
         d="m 354.92,205.588 v 0 c -12.298,12.27 -23.315,25.761 -32.881,40.263 v 0 c -5.481,8.311 -0.314,19.486 9.569,20.693 v 0 c 31.759,3.878 63.872,3.878 95.631,0 v 0 c 9.883,-1.207 15.05,-12.382 9.569,-20.692 v 0 c -9.562,-14.499 -20.577,-27.988 -32.873,-40.256 l -0.009,-0.009 c -13.54,-13.51 -35.463,-13.51 -49.006,0.001 z"
         style="fill:#e99b98"
         inkscape:connector-curvature="0" />
      <path
         id="path1882"
         d="m 362.139,250.482 c -4.454,0 -8.065,-3.611 -8.065,-8.065 v -8.031 c 0,-4.454 3.611,-8.065 8.065,-8.065 4.455,0 8.065,3.611 8.065,8.065 v 8.031 c 10e-4,4.453 -3.61,8.065 -8.065,8.065 z"
         style="opacity:0.1;enable-background:new"
         inkscape:connector-curvature="0" />
      <path
         id="path1884"
         d="m 396.711,250.482 c -4.455,0 -8.065,-3.611 -8.065,-8.065 v -8.031 c 0,-4.454 3.61,-8.065 8.065,-8.065 4.455,0 8.065,3.611 8.065,8.065 v 8.031 c 0,4.453 -3.61,8.065 -8.065,8.065 z"
         style="opacity:0.1;enable-background:new"
         inkscape:connector-curvature="0" />
      <path
         id="path1886"
         d="m 208.23,178.587 v 0 c 1.446,14.608 4.377,29.031 8.745,43.045 v 0 c 2.503,8.031 12.578,10.63 18.653,4.811 v 0 c 19.527,-18.698 36.706,-39.702 51.16,-62.549 v 0 c 4.497,-7.109 -0.047,-16.467 -8.416,-17.329 v 0 c -14.599,-1.502 -29.314,-1.513 -43.915,-0.034 l -0.01,0.001 c -16.08,1.631 -27.809,15.97 -26.217,32.055 z"
         style="opacity:0.02000002;enable-background:new"
         inkscape:connector-curvature="0" />
      <path
         id="path1888"
         d="m 220.966,161.754 v 0 c -0.017,14.68 1.461,29.322 4.411,43.702 v 0 c 1.691,8.241 11.455,11.83 18.081,6.647 v 0 c 21.292,-16.659 40.48,-35.847 57.139,-57.139 v 0 c 5.183,-6.625 1.594,-16.39 -6.647,-18.081 v 0 c -14.377,-2.95 -29.017,-4.427 -43.694,-4.411 h -0.01 c -16.162,0.019 -29.262,13.118 -29.28,29.282 z"
         style="fill:#e99b98"
         inkscape:connector-curvature="0" />
      <g
         id="g1894">
        <path
           id="path1890"
           d="m 186.105,436.166 h -59.791 c -3.814,0 -6.906,-3.092 -6.906,-6.906 v -19.652 h 73.602 v 19.652 c 0,3.814 -3.092,6.906 -6.905,6.906 z"
           style="fill:#4a5058"
           inkscape:connector-curvature="0" />
        <path
           id="path1892"
           d="m 322.733,436.166 h -59.791 c -3.814,0 -6.906,-3.092 -6.906,-6.906 v -19.652 h 73.602 v 19.652 c 0.001,3.814 -3.09,6.906 -6.905,6.906 z"
           style="fill:#4a5058"
           inkscape:connector-curvature="0" />
      </g>
      <g
         id="g1896" />
      <g
         id="g1898" />
      <g
         id="g1900" />
      <g
         id="g1902" />
      <g
         id="g1904" />
      <g
         id="g1906" />
      <g
         id="g1908" />
      <g
         id="g1910" />
      <g
         id="g1912" />
      <g
         id="g1914" />
      <g
         id="g1916" />
      <g
         id="g1918" />
      <g
         id="g1920" />
      <g
         id="g1922" />
      <g
         id="g1924" />
    </g>
  </g>
</svg>
