<?xml version="1.0" encoding="UTF-8" standalone="no"?>
<!-- Created with Inkscape (http://www.inkscape.org/) -->

<svg
   xmlns:dc="http://purl.org/dc/elements/1.1/"
   xmlns:cc="http://creativecommons.org/ns#"
   xmlns:rdf="http://www.w3.org/1999/02/22-rdf-syntax-ns#"
   xmlns:svg="http://www.w3.org/2000/svg"
   xmlns="http://www.w3.org/2000/svg"
   xmlns:xlink="http://www.w3.org/1999/xlink"
   xmlns:sodipodi="http://sodipodi.sourceforge.net/DTD/sodipodi-0.dtd"
   xmlns:inkscape="http://www.inkscape.org/namespaces/inkscape"
   width="143.63092mm"
   height="143.63092mm"
   viewBox="0 0 143.63092 143.63092"
   version="1.1"
   id="svg31"
   inkscape:version="0.92.1 r15371"
   sodipodi:docname="Elefante.svg">
  <defs
     id="defs25">
    <radialGradient
       inkscape:collect="always"
       xlink:href="#linearGradient43"
       id="radialGradient45"
       cx="32.606884"
       cy="6.1048827"
       fx="32.606884"
       fy="6.1048827"
       r="64.633911"
       gradientUnits="userSpaceOnUse"
       gradientTransform="matrix(-1.4614512,1.8803868,-1.7177367,-1.3350561,90.746839,-47.058306)" />
    <linearGradient
       inkscape:collect="always"
       id="linearGradient43">
      <stop
         style="stop-color:#66ff00;stop-opacity:1;"
         offset="0"
         id="stop39" />
      <stop
         style="stop-color:#00ff00;stop-opacity:0.44"
         offset="1"
         id="stop41" />
    </linearGradient>
  </defs>
  <sodipodi:namedview
     id="base"
     pagecolor="#ffffff"
     bordercolor="#666666"
     borderopacity="1.0"
     inkscape:pageopacity="0.0"
     inkscape:pageshadow="2"
     inkscape:zoom="0.49497475"
     inkscape:cx="209.75943"
     inkscape:cy="115.06841"
     inkscape:document-units="px"
     inkscape:current-layer="layer1"
     showgrid="false"
     inkscape:snap-object-midpoints="true"
     inkscape:snap-center="true"
     inkscape:pagecheckerboard="true"
     fit-margin-top="0"
     fit-margin-left="0"
     fit-margin-right="0"
     fit-margin-bottom="0"
     borderlayer="true"
     inkscape:window-width="667"
     inkscape:window-height="729"
     inkscape:window-x="683"
     inkscape:window-y="0"
     inkscape:window-maximized="0" />
  <metadata
     id="metadata28">
    <rdf:RDF>
      <cc:Work
         rdf:about="">
        <dc:format>image/svg+xml</dc:format>
        <dc:type
           rdf:resource="http://purl.org/dc/dcmitype/StillImage" />
        <dc:title></dc:title>
      </cc:Work>
    </rdf:RDF>
  </metadata>
  <g
     inkscape:label="Capa 1"
     inkscape:groupmode="layer"
     id="layer1"
     transform="translate(5.4495665e-7,16.720213)">
    <rect
       style="fill:#00112b;stroke-width:0.28221554"
       id="rect33"
       width="143.63092"
       height="143.63092"
       x="-5.4495666e-007"
       y="-16.720213"
       ry="20.641569" />
    <rect
       ry="13.318157"
       y="-9.5386639"
       x="7.1815486"
       height="129.26782"
       width="129.26782"
       id="rect41"
       style="fill:url(#radialGradient45);fill-opacity:1;stroke-width:0.25399399"
       rx="12.82894" />
    <g
       id="g2512"
       transform="matrix(0.26458335,0,0,0.26458335,1.2592826,-3.9970637)">
      <g
         id="g2450">
        <circle
           id="circle2436"
           r="170.125"
           cy="170.125"
           cx="227.439"
           style="fill:#b4d87d" />
        <path
           id="path2438"
           d="m 233.134,60.18 h -106.51 -29 c -5.11,6.02 -9.8,12.4 -14.04,19.09 -1.54,2.44 -3.03,4.93 -4.45,7.46 -5.61,9.93 -10.24,20.49 -13.76,31.53 -5.24,16.35 -8.06,33.79 -8.06,51.88 0,51.56 22.94,97.77 59.18,128.96 9.25,7.96 19.36,14.95 30.18,20.79 22.47,12.16 47.99,19.39 75.12,20.27 1.87,0.07 3.76,0.1 5.65,0.1 1.9,0 3.8,-0.03 5.69,-0.1 v -1.49 l 33.535,-115.329 z"
           style="fill:#878693"
           inkscape:connector-curvature="0" />
        <path
           id="path2440"
           d="M 323.591,60.185 H 181.586 v 76.203 c 0,74.175 60.13,134.305 134.305,134.305 h 31.116 l 12.062,152.836 c 0.372,4.708 -3.349,8.733 -8.071,8.733 H 330.85 v 24.921 h 26.129 c 23.688,0 42.891,-19.203 42.891,-42.891 v -143.6 -134.228 c 0,-42.128 -34.151,-76.279 -76.279,-76.279 z"
           style="fill:#878693"
           inkscape:connector-curvature="0" />
        <path
           id="path2442"
           d="m 106.413,187.784 v 0 c 0,-46.426 37.636,-84.062 84.062,-84.062 h 84.062 v 84.062 c 0,46.426 -37.636,84.062 -84.062,84.062 v 0 c -46.426,0 -84.062,-37.636 -84.062,-84.062 z"
           style="fill:#9898a5"
           inkscape:connector-curvature="0" />
        <path
           id="path2444"
           d="m 330.716,457.112 0.134,0.072 v -24.921 h -14.925 v 0 c -0.001,10.369 5.676,19.906 14.791,24.849 z"
           style="fill:#737382"
           inkscape:connector-curvature="0" />
        <path
           id="path2446"
           d="m 330.716,432.336 0.134,-0.072 v 24.921 h -14.925 v 0 c -0.001,-10.37 5.676,-19.906 14.791,-24.849 z"
           style="fill:#878693"
           inkscape:connector-curvature="0" />
        <path
           id="path2448"
           d="m 352.39,197.923 h -8.809 c -7.029,0 -12.726,-5.698 -12.726,-12.726 v -8.809 h 8.809 c 7.029,0 12.726,5.698 12.726,12.726 z"
           style="fill:#4d4d4d"
           inkscape:connector-curvature="0" />
      </g>
      <g
         id="g2452" />
      <g
         id="g2454" />
      <g
         id="g2456" />
      <g
         id="g2458" />
      <g
         id="g2460" />
      <g
         id="g2462" />
      <g
         id="g2464" />
      <g
         id="g2466" />
      <g
         id="g2468" />
      <g
         id="g2470" />
      <g
         id="g2472" />
      <g
         id="g2474" />
      <g
         id="g2476" />
      <g
         id="g2478" />
      <g
         id="g2480" />
    </g>
  </g>
</svg>
