<?xml version="1.0" encoding="UTF-8" standalone="no"?>
<!-- Created with Inkscape (http://www.inkscape.org/) -->

<svg
   xmlns:dc="http://purl.org/dc/elements/1.1/"
   xmlns:cc="http://creativecommons.org/ns#"
   xmlns:rdf="http://www.w3.org/1999/02/22-rdf-syntax-ns#"
   xmlns:svg="http://www.w3.org/2000/svg"
   xmlns="http://www.w3.org/2000/svg"
   xmlns:xlink="http://www.w3.org/1999/xlink"
   xmlns:sodipodi="http://sodipodi.sourceforge.net/DTD/sodipodi-0.dtd"
   xmlns:inkscape="http://www.inkscape.org/namespaces/inkscape"
   width="143.63092mm"
   height="143.63092mm"
   viewBox="0 0 143.63092 143.63092"
   version="1.1"
   id="svg31"
   inkscape:version="0.92.1 r15371"
   sodipodi:docname="Gallina.svg">
  <defs
     id="defs25">
    <radialGradient
       inkscape:collect="always"
       xlink:href="#linearGradient43"
       id="radialGradient45"
       cx="32.606884"
       cy="6.1048827"
       fx="32.606884"
       fy="6.1048827"
       r="64.633911"
       gradientUnits="userSpaceOnUse"
       gradientTransform="matrix(-1.4614512,1.8803868,-1.7177367,-1.3350561,90.746839,-47.058306)" />
    <linearGradient
       inkscape:collect="always"
       id="linearGradient43">
      <stop
         style="stop-color:#66ff00;stop-opacity:1;"
         offset="0"
         id="stop39" />
      <stop
         style="stop-color:#00ff00;stop-opacity:0.44"
         offset="1"
         id="stop41" />
    </linearGradient>
  </defs>
  <sodipodi:namedview
     id="base"
     pagecolor="#ffffff"
     bordercolor="#666666"
     borderopacity="1.0"
     inkscape:pageopacity="0.0"
     inkscape:pageshadow="2"
     inkscape:zoom="0.49497475"
     inkscape:cx="209.75943"
     inkscape:cy="115.06841"
     inkscape:document-units="px"
     inkscape:current-layer="layer1"
     showgrid="false"
     inkscape:snap-object-midpoints="true"
     inkscape:snap-center="true"
     inkscape:pagecheckerboard="true"
     fit-margin-top="0"
     fit-margin-left="0"
     fit-margin-right="0"
     fit-margin-bottom="0"
     borderlayer="true"
     inkscape:window-width="667"
     inkscape:window-height="729"
     inkscape:window-x="683"
     inkscape:window-y="0"
     inkscape:window-maximized="0" />
  <metadata
     id="metadata28">
    <rdf:RDF>
      <cc:Work
         rdf:about="">
        <dc:format>image/svg+xml</dc:format>
        <dc:type
           rdf:resource="http://purl.org/dc/dcmitype/StillImage" />
        <dc:title></dc:title>
      </cc:Work>
    </rdf:RDF>
  </metadata>
  <g
     inkscape:label="Capa 1"
     inkscape:groupmode="layer"
     id="layer1"
     transform="translate(5.4495665e-7,16.720213)">
    <rect
       style="fill:#00112b;stroke-width:0.28221554"
       id="rect33"
       width="143.63092"
       height="143.63092"
       x="-5.4495666e-007"
       y="-16.720213"
       ry="20.641569" />
    <rect
       ry="13.318157"
       y="-9.5386639"
       x="7.1815486"
       height="129.26782"
       width="129.26782"
       id="rect41"
       style="fill:url(#radialGradient45);fill-opacity:1;stroke-width:0.25399399"
       rx="12.82894" />
    <g
       id="g1465"
       transform="matrix(0.18775416,0,0,0.19672208,23.750489,4.7342955)">
      <path
         id="path1392"
         d="m 99.902,299.707 c -48.278,0 -87.415,39.137 -87.415,87.415 0,48.278 39.137,87.415 87.415,87.415 48.278,0 87.415,-39.137 87.415,-87.415 v -12.488 h 24.976 v -74.927 z"
         style="fill:#e07188"
         inkscape:connector-curvature="0" />
      <polygon
         id="polygon1394"
         points="187.317,299.707 212.293,299.707 212.293,124.878 12.488,124.878 "
         style="fill:#f8e99b" />
      <path
         id="path1396"
         d="m 412.098,256 c 0,24.139 19.568,43.707 43.707,43.707 31.22,0 43.707,-24.976 43.707,-74.927 0,-20.69 -16.774,-37.463 -37.463,-37.463 -20.69,0 -37.463,-16.774 -37.463,-37.463 0,-20.689 16.774,-37.463 37.463,-37.463 20.69,0 37.463,-16.774 37.463,-37.463 0,-27.587 -22.364,-49.951 -49.951,-49.951 -20.69,0 -37.463,16.774 -37.463,37.463 0,20.689 -16.774,37.463 -37.463,37.463 -20.689,0 -37.463,-16.774 -37.463,-37.463 C 337.171,27.955 309.216,0 274.732,0 c -34.484,0 -62.439,27.955 -62.439,62.439 0,34.484 27.955,62.439 62.439,62.439"
         style="fill:#e07188"
         inkscape:connector-curvature="0" />
      <path
         id="path1398"
         d="m 462.049,187.317 c -20.69,0 -37.463,-16.774 -37.463,-37.463 0,-20.689 16.774,-37.463 37.463,-37.463 20.69,0 37.463,-16.774 37.463,-37.463 0,-27.587 -22.364,-49.951 -49.951,-49.951 -20.69,0 -37.463,16.774 -37.463,37.463 0,20.689 -16.774,37.463 -37.463,37.463 -20.689,0 -37.463,-16.774 -37.463,-37.463 0,-25.601 -15.415,-47.591 -37.463,-57.229 V 148.718 L 412.098,256 c 0,24.139 19.568,43.707 43.707,43.707 31.22,0 43.707,-24.976 43.707,-74.927 0,-20.689 -16.773,-37.463 -37.463,-37.463 z"
         style="fill:#e02753"
         inkscape:connector-curvature="0" />
      <path
         id="path1400"
         d="m 274.732,124.878 h -87.415 v 237.268 c 0,82.762 67.092,149.854 149.854,149.854 h 74.927 V 262.244 c 0,-75.865 -61.502,-137.366 -137.366,-137.366 z"
         style="fill:#f8f8f9"
         inkscape:connector-curvature="0" />
      <path
         id="path1402"
         d="m 299.707,127.15 v 380.129 c 11.975,3.082 24.527,4.722 37.463,4.722 h 74.927 V 262.244 c 0.001,-67.336 -48.45,-123.348 -112.39,-135.094 z"
         style="fill:#ededed"
         inkscape:connector-curvature="0" />
      <path
         id="path1404"
         d="m 299.707,262.244 h -0.002 c -13.77,0 -24.973,-11.204 -24.973,-24.976 0.005,-13.774 11.209,-24.976 24.976,-24.976 13.772,0 24.976,11.204 24.976,24.976 -0.001,13.772 -11.205,24.976 -24.977,24.976 z"
         style="fill:#58575d"
         inkscape:connector-curvature="0" />
      <g
         id="g1406" />
      <g
         id="g1408" />
      <g
         id="g1410" />
      <g
         id="g1412" />
      <g
         id="g1414" />
      <g
         id="g1416" />
      <g
         id="g1418" />
      <g
         id="g1420" />
      <g
         id="g1422" />
      <g
         id="g1424" />
      <g
         id="g1426" />
      <g
         id="g1428" />
      <g
         id="g1430" />
      <g
         id="g1432" />
      <g
         id="g1434" />
    </g>
  </g>
</svg>
