<?xml version="1.0" encoding="UTF-8" standalone="no"?>
<!-- Created with Inkscape (http://www.inkscape.org/) -->

<svg
   xmlns:dc="http://purl.org/dc/elements/1.1/"
   xmlns:cc="http://creativecommons.org/ns#"
   xmlns:rdf="http://www.w3.org/1999/02/22-rdf-syntax-ns#"
   xmlns:svg="http://www.w3.org/2000/svg"
   xmlns="http://www.w3.org/2000/svg"
   xmlns:xlink="http://www.w3.org/1999/xlink"
   xmlns:sodipodi="http://sodipodi.sourceforge.net/DTD/sodipodi-0.dtd"
   xmlns:inkscape="http://www.inkscape.org/namespaces/inkscape"
   width="143.63092mm"
   height="143.63092mm"
   viewBox="0 0 143.63092 143.63092"
   version="1.1"
   id="svg31"
   inkscape:version="0.92.1 r15371"
   sodipodi:docname="Gallo3.svg">
  <defs
     id="defs25">
    <radialGradient
       inkscape:collect="always"
       xlink:href="#linearGradient43"
       id="radialGradient45"
       cx="32.606884"
       cy="6.1048827"
       fx="32.606884"
       fy="6.1048827"
       r="64.633911"
       gradientUnits="userSpaceOnUse"
       gradientTransform="matrix(-1.4614512,1.8803868,-1.7177367,-1.3350561,90.746839,-47.058306)" />
    <linearGradient
       inkscape:collect="always"
       id="linearGradient43">
      <stop
         style="stop-color:#66ff00;stop-opacity:1;"
         offset="0"
         id="stop39" />
      <stop
         style="stop-color:#00ff00;stop-opacity:0.44"
         offset="1"
         id="stop41" />
    </linearGradient>
  </defs>
  <sodipodi:namedview
     id="base"
     pagecolor="#ffffff"
     bordercolor="#666666"
     borderopacity="1.0"
     inkscape:pageopacity="0.0"
     inkscape:pageshadow="2"
     inkscape:zoom="0.49497475"
     inkscape:cx="209.75943"
     inkscape:cy="115.06841"
     inkscape:document-units="px"
     inkscape:current-layer="layer1"
     showgrid="false"
     inkscape:snap-object-midpoints="true"
     inkscape:snap-center="true"
     inkscape:pagecheckerboard="true"
     fit-margin-top="0"
     fit-margin-left="0"
     fit-margin-right="0"
     fit-margin-bottom="0"
     borderlayer="true"
     inkscape:window-width="667"
     inkscape:window-height="729"
     inkscape:window-x="683"
     inkscape:window-y="0"
     inkscape:window-maximized="0" />
  <metadata
     id="metadata28">
    <rdf:RDF>
      <cc:Work
         rdf:about="">
        <dc:format>image/svg+xml</dc:format>
        <dc:type
           rdf:resource="http://purl.org/dc/dcmitype/StillImage" />
        <dc:title></dc:title>
      </cc:Work>
    </rdf:RDF>
  </metadata>
  <g
     inkscape:label="Capa 1"
     inkscape:groupmode="layer"
     id="layer1"
     transform="translate(5.4495665e-7,16.720213)">
    <rect
       style="fill:#00112b;stroke-width:0.28221554"
       id="rect33"
       width="143.63092"
       height="143.63092"
       x="-5.4495666e-007"
       y="-16.720213"
       ry="20.641569" />
    <rect
       ry="13.318157"
       y="-9.5386639"
       x="7.1815486"
       height="129.26782"
       width="129.26782"
       id="rect41"
       style="fill:url(#radialGradient45);fill-opacity:1;stroke-width:0.25399399"
       rx="12.82894" />
    <g
       id="g1852"
       transform="matrix(0.18492555,0,0,0.19370092,25.187777,7.2730073)">
      <circle
         id="circle1758"
         r="256"
         cy="256"
         cx="256"
         style="fill:#324a5e" />
      <path
         id="path1760"
         d="m 437.019,437.019 c 40.984,-40.984 65.153,-92.408 72.535,-145.71 L 348.92,130.675 294.519,283.77 264.147,301.79 145.727,183.371 92.193,194.68 l -7.606,12.014 -7.13,63.514 2.298,4.437 8.47,30.498 204.256,204.257 c 52.885,-7.573 103.855,-31.697 144.538,-72.381 z"
         style="fill:#2b3b4e"
         inkscape:connector-curvature="0" />
      <path
         id="path1762"
         d="m 143.712,237.28 c 0,0 28.286,-52.008 -19.249,-68.97 -47.535,-16.962 -69.253,55.024 -36.24,136.832 0,0 -23.692,-110.48 19.34,-110.906 43.032,-0.426 26.434,47.69 26.434,47.69 z"
         style="fill:#d83e20"
         inkscape:connector-curvature="0" />
      <path
         id="path1764"
         d="m 145.215,251.499 c 0,0 22.54,-41.444 -15.339,-54.96 -37.879,-13.516 -55.186,43.848 -28.879,109.037 0,0 -18.878,-88.038 15.412,-88.378 34.29,-0.34 21.064,38.004 21.064,38.004 z"
         style="fill:#c1321f"
         inkscape:connector-curvature="0" />
      <g
         id="g1770">
        <path
           id="path1766"
           d="m 369.912,193.733 c 0,0 12.129,31.491 2.889,36.964 -9.24,5.473 -19.621,-8.101 -19.621,-8.101 l 12.414,-31.735 z"
           style="fill:#d83e20"
           inkscape:connector-curvature="0" />
        <path
           id="path1768"
           d="m 354.519,157.517 c 0.074,0.034 6.946,-23.554 -14.288,-32.74 -21.233,-9.187 -6.549,11.767 -14.965,15.482 -8.416,3.715 -14.169,1.726 -14.012,8.714 0.157,6.989 -9.981,1.914 -6.484,11.438 3.496,9.525 16.565,13.378 16.565,13.378 z"
           style="fill:#d83e20"
           inkscape:connector-curvature="0" />
      </g>
      <path
         id="path1772"
         d="m 378.285,179.76 c 0,0 -38.369,-63.112 -78.021,9.945 -30.656,56.485 -99.44,116.607 -164.776,34.299 0,0 -24.026,171.563 104.846,164.145 162.669,-9.362 87.699,-165.303 137.951,-208.389 z"
         style="fill:#e6f3ff"
         inkscape:connector-curvature="0" />
      <path
         id="path1774"
         d="m 135.487,224.004 c 0,0 -24.026,171.563 104.846,164.145 4.099,-0.236 8.008,-0.59 11.81,-1.007 V 246.887 c -33.419,24.34 -75.713,28.695 -116.656,-22.883 z"
         style="fill:#cfdbe6"
         inkscape:connector-curvature="0" />
      <g
         id="g1780">
        <polygon
           id="polygon1776"
           points="394.514,185.432 367.142,194.667 372.565,172.075 "
           style="fill:#ffd15d" />
        <path
           id="path1778"
           d="m 295.567,266.662 c 0,0 -12.073,-6.518 -27.543,20.17 -20.246,34.926 -56.972,34.332 -78.303,15.267 0,0 29.605,57.575 77.219,42.394 67.674,-21.578 48.643,-72.854 28.627,-77.831 z"
           style="fill:#ffd15d"
           inkscape:connector-curvature="0" />
      </g>
      <path
         id="path1782"
         d="m 189.721,302.099 c 0,0 23.55,45.796 62.423,44.928 v -41.784 c -20.177,15.288 -45.91,11.614 -62.423,-3.144 z"
         style="fill:#f9b54c"
         inkscape:connector-curvature="0" />
      <circle
         id="circle1784"
         r="5.1719999"
         cy="178.924"
         cx="346.33301"
         style="fill:#324a5e" />
      <g
         id="g1786" />
      <g
         id="g1788" />
      <g
         id="g1790" />
      <g
         id="g1792" />
      <g
         id="g1794" />
      <g
         id="g1796" />
      <g
         id="g1798" />
      <g
         id="g1800" />
      <g
         id="g1802" />
      <g
         id="g1804" />
      <g
         id="g1806" />
      <g
         id="g1808" />
      <g
         id="g1810" />
      <g
         id="g1812" />
      <g
         id="g1814" />
    </g>
  </g>
</svg>
