<?xml version="1.0" encoding="UTF-8" standalone="no"?>
<!-- Created with Inkscape (http://www.inkscape.org/) -->

<svg
   xmlns:dc="http://purl.org/dc/elements/1.1/"
   xmlns:cc="http://creativecommons.org/ns#"
   xmlns:rdf="http://www.w3.org/1999/02/22-rdf-syntax-ns#"
   xmlns:svg="http://www.w3.org/2000/svg"
   xmlns="http://www.w3.org/2000/svg"
   xmlns:xlink="http://www.w3.org/1999/xlink"
   xmlns:sodipodi="http://sodipodi.sourceforge.net/DTD/sodipodi-0.dtd"
   xmlns:inkscape="http://www.inkscape.org/namespaces/inkscape"
   width="143.63092mm"
   height="143.63092mm"
   viewBox="0 0 143.63092 143.63092"
   version="1.1"
   id="svg31"
   inkscape:version="0.92.1 r15371"
   sodipodi:docname="Gallo.svg">
  <defs
     id="defs25">
    <radialGradient
       inkscape:collect="always"
       xlink:href="#linearGradient43"
       id="radialGradient45"
       cx="32.606884"
       cy="6.1048827"
       fx="32.606884"
       fy="6.1048827"
       r="64.633911"
       gradientUnits="userSpaceOnUse"
       gradientTransform="matrix(-1.4614512,1.8803868,-1.7177367,-1.3350561,90.746839,-47.058306)" />
    <linearGradient
       inkscape:collect="always"
       id="linearGradient43">
      <stop
         style="stop-color:#66ff00;stop-opacity:1;"
         offset="0"
         id="stop39" />
      <stop
         style="stop-color:#00ff00;stop-opacity:0.44"
         offset="1"
         id="stop41" />
    </linearGradient>
  </defs>
  <sodipodi:namedview
     id="base"
     pagecolor="#ffffff"
     bordercolor="#666666"
     borderopacity="1.0"
     inkscape:pageopacity="0.0"
     inkscape:pageshadow="2"
     inkscape:zoom="0.49497475"
     inkscape:cx="209.75943"
     inkscape:cy="115.06841"
     inkscape:document-units="px"
     inkscape:current-layer="layer1"
     showgrid="false"
     inkscape:snap-object-midpoints="true"
     inkscape:snap-center="true"
     inkscape:pagecheckerboard="true"
     fit-margin-top="0"
     fit-margin-left="0"
     fit-margin-right="0"
     fit-margin-bottom="0"
     borderlayer="true"
     inkscape:window-width="667"
     inkscape:window-height="729"
     inkscape:window-x="683"
     inkscape:window-y="0"
     inkscape:window-maximized="0" />
  <metadata
     id="metadata28">
    <rdf:RDF>
      <cc:Work
         rdf:about="">
        <dc:format>image/svg+xml</dc:format>
        <dc:type
           rdf:resource="http://purl.org/dc/dcmitype/StillImage" />
        <dc:title></dc:title>
      </cc:Work>
    </rdf:RDF>
  </metadata>
  <g
     inkscape:label="Capa 1"
     inkscape:groupmode="layer"
     id="layer1"
     transform="translate(5.4495665e-7,16.720213)">
    <rect
       style="fill:#00112b;stroke-width:0.28221554"
       id="rect33"
       width="143.63092"
       height="143.63092"
       x="-5.4495666e-007"
       y="-16.720213"
       ry="20.641569" />
    <rect
       ry="13.318157"
       y="-9.5386639"
       x="7.1815486"
       height="129.26782"
       width="129.26782"
       id="rect41"
       style="fill:url(#radialGradient45);fill-opacity:1;stroke-width:0.25399399"
       rx="12.82894" />
    <g
       id="g1657"
       transform="matrix(0.19150185,0,0,0.20823395,22.790906,1.7873551)">
      <path
         id="path1569"
         d="M 331.258,491.583 H 330.3 l -9.607,-50.185 -10.861,2.079 9.211,48.106 v 0 c -4.789,0 -8.67,3.882 -8.67,8.67 v 2.387 h 43.616 v 0 c 0,-6.108 -4.95,-11.058 -11.058,-11.058 z"
         style="fill:#fed159"
         inkscape:connector-curvature="0" />
      <path
         id="path1571"
         d="m 349.049,116.336 c 0.135,0.356 0.27,0.713 0.405,1.081 l -0.823,0.295 c -2.642,0.835 -5.467,1.29 -8.392,1.29 -15.432,0 -27.951,-12.507 -27.951,-27.939 0,-13.269 9.252,-24.364 21.648,-27.226 -1.413,-3.342 -2.187,-7.003 -2.187,-10.861 0,-15.432 12.507,-27.939 27.939,-27.939 6.499,0 12.483,2.224 17.225,5.947 2.863,-12.385 13.957,-21.624 27.214,-21.624 15.432,0 27.939,12.52 27.939,27.951 0,7.667 -3.072,14.596 -8.072,19.646 -9.903,-6.696 -8.355,20.211 -20.862,21.808 -10.075,1.29 -16.808,9.374 -23.958,15.358 -16.328,13.649 3.072,17.814 -30.125,22.213 z"
         style="fill:#ee4948"
         inkscape:connector-curvature="0" />
      <path
         id="path1573"
         d="m 498.733,79.993 -40.41,19.941 -12.532,6.18 c 0.971,-6.659 -28.467,-8.686 -30.372,-15.677 -1.855,-6.819 23.995,-17.95 19.756,-23.209 10e-4,-10e-4 34.071,-5.665 63.558,12.765 z"
         style="fill:#fed159"
         inkscape:connector-curvature="0" />
      <path
         id="path1575"
         d="m 494.899,121.914 c 10.32,6.192 10.652,21.046 0.602,27.693 -3.784,2.494 -8.072,3.71 -12.335,3.71 -4.828,0 -9.632,-1.56 -13.576,-4.583 -2.359,-2.654 -26.895,16.869 -29.413,14.375 -6.77,-6.757 -14.51,-6.352 -22.3,-11.856 2.715,-5.087 -3.293,-54.993 -2.457,-60.817 l 42.904,9.497 z"
         style="fill:#ee4948"
         inkscape:connector-curvature="0" />
      <path
         id="path1577"
         d="m 375.206,426.749 c 0,0 -36.757,18.49 -47.695,40.663 -2.567,5.203 -9.651,6.137 -13.458,1.759 -9.072,-10.432 -19.324,-27.423 -9.296,-43.711 v -0.012 c 20.358,-45.67 93.462,-40.141 70.449,1.301 z"
         style="fill:#e6e6e6"
         inkscape:connector-curvature="0" />
      <g
         id="g1583">
        <path
           id="path1579"
           d="m 95.214,125.919 c 51.209,1.351 91.631,43.973 90.28,95.182 -0.332,12.618 -3.182,24.573 -8.035,35.421 C 164.386,222.612 131.926,198.15 93.335,197.13 54.744,196.11 21.043,218.828 6.188,252.001 1.912,240.906 -0.299,228.817 0.033,216.199 c 1.351,-51.21 43.972,-91.631 95.181,-90.28 z"
           style="fill:#ee4948"
           inkscape:connector-curvature="0" />
        <path
           id="path1581"
           d="m 181.145,252.222 c -36.331,0.909 -70.278,23.246 -84.21,59.257 -13.945,35.999 -3.882,75.376 22.361,100.514 -11.881,0.295 -24.007,-1.683 -35.778,-6.241 C 35.737,387.261 12,333.533 30.503,285.764 c 18.491,-47.781 72.219,-71.518 119.988,-53.028 11.77,4.558 22.078,11.266 30.654,19.486 z"
           style="fill:#ee4948"
           inkscape:connector-curvature="0" />
      </g>
      <path
         id="path1585"
         d="m 173.914,251.16 c 0.174,-3.108 3.24,-5.231 6.216,-4.319 16.17,4.961 65.287,16.026 132.059,-5.899 67.955,-22.312 46.737,-97.848 37.264,-123.526 -0.135,-0.369 -0.27,-0.725 -0.405,-1.081 -7.495,-19.916 -2.187,-42.707 14.142,-56.357 7.151,-5.983 16.07,-10.075 26.145,-11.365 12.507,-1.597 24.757,1.646 34.66,8.342 4.202,2.838 7.986,6.291 11.181,10.271 4.239,5.259 7.47,11.414 9.325,18.233 1.904,6.991 2.261,13.994 1.29,20.653 -0.835,5.824 -2.678,11.402 -5.394,16.488 7.789,5.504 15.112,11.647 21.882,18.405 l 3.932,4.546 c 1.032,1.192 2.162,2.261 3.379,3.182 19.179,21.648 33.038,48.494 39.107,78.89 18.331,91.852 -41.478,181.161 -133.49,199.124 -24.032,4.693 -47.941,3.981 -70.45,-1.302 -61.898,-14.473 -113.218,-63.409 -127.323,-129.227 -3.247,-15.181 -4.349,-30.297 -3.52,-45.058 z"
         style="fill:#f2f2f2"
         inkscape:connector-curvature="0" />
      <path
         id="path1587"
         d="m 508.697,227.625 c -6.069,-30.396 -19.928,-57.242 -39.107,-78.89 -1.216,-0.921 -2.347,-1.99 -3.379,-3.182 l -3.932,-4.546 c -6.77,-6.757 -14.092,-12.901 -21.882,-18.405 2.715,-5.087 4.558,-10.664 5.394,-16.488 0.971,-6.659 0.614,-13.662 -1.29,-20.653 -1.855,-6.819 -5.087,-12.974 -9.325,-18.233 -3.194,-3.981 -6.979,-7.433 -11.181,-10.271 -9.903,-6.696 -22.152,-9.94 -34.66,-8.342 -2.596,0.333 -5.112,0.858 -7.544,1.547 5.2,1.489 10.118,3.792 14.562,6.796 4.202,2.838 7.986,6.291 11.181,10.271 4.239,5.259 7.47,11.414 9.325,18.233 1.904,6.991 2.261,13.994 1.29,20.653 -0.093,0.647 -0.198,1.291 -0.316,1.931 -1.735,9.456 1.471,19.074 8.709,25.399 2.778,2.428 5.477,4.949 8.095,7.561 l 3.932,4.546 c 1.032,1.192 2.162,2.261 3.379,3.182 19.179,21.648 33.038,48.494 39.107,78.89 18.331,91.852 -41.478,181.161 -133.49,199.124 -6.135,1.198 -12.26,2.04 -18.358,2.547 15.054,1.246 30.501,0.48 46.001,-2.547 92.01,-17.963 151.819,-107.271 133.489,-199.123 z"
         style="fill:#e6e6e6"
         inkscape:connector-curvature="0" />
      <path
         id="path1589"
         d="m 373.372,270.909 c 49.61,-38.678 112.612,29.281 69.508,75.097 -0.576,0.612 -1.167,1.221 -1.772,1.827 -29.487,29.487 -132.397,45.646 -205.181,-13.515 0,0 79.861,-12.286 108.119,-40.545 z"
         style="fill:#ee4948"
         inkscape:connector-curvature="0" />
      <circle
         id="circle1591"
         r="9.2150002"
         cy="91.667"
         cx="412.94101"
         style="fill:#4d4d4d" />
      <g
         id="g1593" />
      <g
         id="g1595" />
      <g
         id="g1597" />
      <g
         id="g1599" />
      <g
         id="g1601" />
      <g
         id="g1603" />
      <g
         id="g1605" />
      <g
         id="g1607" />
      <g
         id="g1609" />
      <g
         id="g1611" />
      <g
         id="g1613" />
      <g
         id="g1615" />
      <g
         id="g1617" />
      <g
         id="g1619" />
      <g
         id="g1621" />
    </g>
  </g>
</svg>
