<?xml version="1.0" encoding="UTF-8" standalone="no"?>
<!-- Created with Inkscape (http://www.inkscape.org/) -->

<svg
   xmlns:dc="http://purl.org/dc/elements/1.1/"
   xmlns:cc="http://creativecommons.org/ns#"
   xmlns:rdf="http://www.w3.org/1999/02/22-rdf-syntax-ns#"
   xmlns:svg="http://www.w3.org/2000/svg"
   xmlns="http://www.w3.org/2000/svg"
   xmlns:xlink="http://www.w3.org/1999/xlink"
   xmlns:sodipodi="http://sodipodi.sourceforge.net/DTD/sodipodi-0.dtd"
   xmlns:inkscape="http://www.inkscape.org/namespaces/inkscape"
   width="143.63092mm"
   height="143.63092mm"
   viewBox="0 0 143.63092 143.63092"
   version="1.1"
   id="svg31"
   inkscape:version="0.92.1 r15371"
   sodipodi:docname="Gallo2.svg">
  <defs
     id="defs25">
    <radialGradient
       inkscape:collect="always"
       xlink:href="#linearGradient43"
       id="radialGradient45"
       cx="32.606884"
       cy="6.1048827"
       fx="32.606884"
       fy="6.1048827"
       r="64.633911"
       gradientUnits="userSpaceOnUse"
       gradientTransform="matrix(-1.4614512,1.8803868,-1.7177367,-1.3350561,90.746839,-47.058306)" />
    <linearGradient
       inkscape:collect="always"
       id="linearGradient43">
      <stop
         style="stop-color:#66ff00;stop-opacity:1;"
         offset="0"
         id="stop39" />
      <stop
         style="stop-color:#00ff00;stop-opacity:0.44"
         offset="1"
         id="stop41" />
    </linearGradient>
  </defs>
  <sodipodi:namedview
     id="base"
     pagecolor="#ffffff"
     bordercolor="#666666"
     borderopacity="1.0"
     inkscape:pageopacity="0.0"
     inkscape:pageshadow="2"
     inkscape:zoom="0.49497475"
     inkscape:cx="209.75943"
     inkscape:cy="115.06841"
     inkscape:document-units="px"
     inkscape:current-layer="layer1"
     showgrid="false"
     inkscape:snap-object-midpoints="true"
     inkscape:snap-center="true"
     inkscape:pagecheckerboard="true"
     fit-margin-top="0"
     fit-margin-left="0"
     fit-margin-right="0"
     fit-margin-bottom="0"
     borderlayer="true"
     inkscape:window-width="667"
     inkscape:window-height="729"
     inkscape:window-x="683"
     inkscape:window-y="0"
     inkscape:window-maximized="0" />
  <metadata
     id="metadata28">
    <rdf:RDF>
      <cc:Work
         rdf:about="">
        <dc:format>image/svg+xml</dc:format>
        <dc:type
           rdf:resource="http://purl.org/dc/dcmitype/StillImage" />
        <dc:title></dc:title>
      </cc:Work>
    </rdf:RDF>
  </metadata>
  <g
     inkscape:label="Capa 1"
     inkscape:groupmode="layer"
     id="layer1"
     transform="translate(5.4495665e-7,16.720213)">
    <rect
       style="fill:#00112b;stroke-width:0.28221554"
       id="rect33"
       width="143.63092"
       height="143.63092"
       x="-5.4495666e-007"
       y="-16.720213"
       ry="20.641569" />
    <rect
       ry="13.318157"
       y="-9.5386639"
       x="7.1815486"
       height="129.26782"
       width="129.26782"
       id="rect41"
       style="fill:url(#radialGradient45);fill-opacity:1;stroke-width:0.25399399"
       rx="12.82894" />
    <g
       id="g1756"
       transform="matrix(0.26458335,0,0,0.22617595,4.0818575,-2.805909)">
      <circle
         id="circle1659"
         r="99.097"
         cy="363.35599"
         cx="256.00101"
         style="fill:#b95f4b" />
      <g
         id="g1665">
        <path
           id="path1661"
           d="m 319.568,470.711 c 81.032,0 24.774,-92.372 24.774,-148.645 l -49.548,8.258 v 140.387 z"
           style="fill:#dc6c5d"
           inkscape:connector-curvature="0" />
        <path
           id="path1663"
           d="m 192.432,470.711 c -81.032,0 -24.774,-92.372 -24.774,-148.645 l 49.548,8.258 v 140.387 z"
           style="fill:#dc6c5d"
           inkscape:connector-curvature="0" />
      </g>
      <path
         id="path1667"
         d="m 355.098,189.936 h -99.097 -99.097 c -8.258,41.29 -16.516,66.065 -16.516,123.871 0,57.806 90.839,82.581 115.613,82.581 24.774,0 115.613,-24.774 115.613,-82.581 0,-57.807 -8.258,-82.581 -16.516,-123.871 z"
         style="fill:#b95f4b"
         inkscape:connector-curvature="0" />
      <g
         id="g1673">
        <path
           id="path1669"
           d="m 242.349,371.614 c 0,41.29 16.516,140.387 -8.258,140.387 -16.548,0 -49.548,-8.258 -41.29,-66.065 8.258,-57.807 24.774,-66.065 24.774,-99.097 h 24.774 c 0,0 0,18.581 0,24.775 z"
           style="fill:#ff786e"
           inkscape:connector-curvature="0" />
        <path
           id="path1671"
           d="m 269.651,371.614 c 0,41.29 -16.516,140.387 8.258,140.387 16.548,0 49.548,-8.258 41.29,-66.065 -8.258,-57.807 -24.774,-66.065 -24.774,-99.097 h -24.774 c 0,0 0,18.581 0,24.775 z"
           style="fill:#ff786e"
           inkscape:connector-curvature="0" />
      </g>
      <path
         id="path1675"
         d="m 355.098,140.387 c -21.054,-21.054 -33.032,-24.774 -33.032,-57.807 0,0 -41.29,49.548 -49.548,99.097 H 239.486 C 231.228,132.129 189.938,82.58 189.938,82.58 c 0,33.032 -11.978,36.753 -33.032,57.807 -16.516,16.516 -26.114,56.467 0,82.581 33.032,33.032 41.29,74.323 41.29,74.323 h 57.807 57.807 c 0,0 8.258,-41.29 41.29,-74.323 26.112,-26.115 16.514,-66.064 -0.002,-82.581 z"
         style="fill:#c86e55"
         inkscape:connector-curvature="0" />
      <path
         id="path1677"
         d="m 296.013,247.742 c -16.516,-24.774 0,-41.29 0,-57.807 0,-25.661 -15.954,-184.171 -40.012,-189.674 V 0 c -0.215,0 -0.424,0.106 -0.639,0.131 C 255.148,0.106 254.937,0 254.723,0 v 0.261 c -24.06,5.505 -40.012,164.014 -40.012,189.675 0,16.516 16.516,33.032 0,57.807 -9.999,15 -10.918,30 -8.253,41.334 1.736,7.386 4.995,13.214 8.253,16.473 h 40.012 1.278 40.012 c 8.258,-8.259 16.516,-33.033 0,-57.808 z"
         style="fill:#ff786e"
         inkscape:connector-curvature="0" />
      <g
         id="g1683">
        <ellipse
           id="ellipse1679"
           ry="24.774"
           rx="12.387"
           cy="247.742"
           cx="169.291"
           style="fill:#464655" />
        <ellipse
           id="ellipse1681"
           ry="24.774"
           rx="12.387"
           cy="247.742"
           cx="342.70999"
           style="fill:#464655" />
      </g>
      <path
         id="path1685"
         d="m 181.678,305.549 v 16.516 c 0,8.258 16.516,41.29 74.323,41.29 57.807,0 74.323,-33.032 74.323,-41.29 v -16.516 z"
         style="fill:#d7874b"
         inkscape:connector-curvature="0" />
      <path
         id="path1687"
         d="m 256.001,264.259 c -99.097,16.516 -74.323,57.807 -74.323,57.807 24.774,-49.548 41.29,82.581 74.323,82.581 33.033,0 49.548,-132.129 74.323,-82.581 -0.001,-10e-4 24.774,-41.291 -74.323,-57.807 z"
         style="fill:#ffa25f"
         inkscape:connector-curvature="0" />
      <g
         id="g1689" />
      <g
         id="g1691" />
      <g
         id="g1693" />
      <g
         id="g1695" />
      <g
         id="g1697" />
      <g
         id="g1699" />
      <g
         id="g1701" />
      <g
         id="g1703" />
      <g
         id="g1705" />
      <g
         id="g1707" />
      <g
         id="g1709" />
      <g
         id="g1711" />
      <g
         id="g1713" />
      <g
         id="g1715" />
      <g
         id="g1717" />
    </g>
  </g>
</svg>
