<?xml version="1.0" encoding="UTF-8" standalone="no"?>
<!-- Created with Inkscape (http://www.inkscape.org/) -->

<svg
   xmlns:dc="http://purl.org/dc/elements/1.1/"
   xmlns:cc="http://creativecommons.org/ns#"
   xmlns:rdf="http://www.w3.org/1999/02/22-rdf-syntax-ns#"
   xmlns:svg="http://www.w3.org/2000/svg"
   xmlns="http://www.w3.org/2000/svg"
   xmlns:xlink="http://www.w3.org/1999/xlink"
   xmlns:sodipodi="http://sodipodi.sourceforge.net/DTD/sodipodi-0.dtd"
   xmlns:inkscape="http://www.inkscape.org/namespaces/inkscape"
   width="143.63092mm"
   height="143.63092mm"
   viewBox="0 0 143.63092 143.63092"
   version="1.1"
   id="svg31"
   inkscape:version="0.92.1 r15371"
   sodipodi:docname="Gato2.svg">
  <defs
     id="defs25">
    <radialGradient
       inkscape:collect="always"
       xlink:href="#linearGradient43"
       id="radialGradient45"
       cx="32.606884"
       cy="6.1048827"
       fx="32.606884"
       fy="6.1048827"
       r="64.633911"
       gradientUnits="userSpaceOnUse"
       gradientTransform="matrix(-1.4614512,1.8803868,-1.7177367,-1.3350561,90.746839,-47.058306)" />
    <linearGradient
       inkscape:collect="always"
       id="linearGradient43">
      <stop
         style="stop-color:#66ff00;stop-opacity:1;"
         offset="0"
         id="stop39" />
      <stop
         style="stop-color:#00ff00;stop-opacity:0.44"
         offset="1"
         id="stop41" />
    </linearGradient>
  </defs>
  <sodipodi:namedview
     id="base"
     pagecolor="#ffffff"
     bordercolor="#666666"
     borderopacity="1.0"
     inkscape:pageopacity="0.0"
     inkscape:pageshadow="2"
     inkscape:zoom="0.49497475"
     inkscape:cx="209.75943"
     inkscape:cy="115.06841"
     inkscape:document-units="px"
     inkscape:current-layer="layer1"
     showgrid="false"
     inkscape:snap-object-midpoints="true"
     inkscape:snap-center="true"
     inkscape:pagecheckerboard="true"
     fit-margin-top="0"
     fit-margin-left="0"
     fit-margin-right="0"
     fit-margin-bottom="0"
     borderlayer="true"
     inkscape:window-width="667"
     inkscape:window-height="729"
     inkscape:window-x="683"
     inkscape:window-y="0"
     inkscape:window-maximized="0" />
  <metadata
     id="metadata28">
    <rdf:RDF>
      <cc:Work
         rdf:about="">
        <dc:format>image/svg+xml</dc:format>
        <dc:type
           rdf:resource="http://purl.org/dc/dcmitype/StillImage" />
        <dc:title></dc:title>
      </cc:Work>
    </rdf:RDF>
  </metadata>
  <g
     inkscape:label="Capa 1"
     inkscape:groupmode="layer"
     id="layer1"
     transform="translate(5.4495665e-7,16.720213)">
    <rect
       style="fill:#00112b;stroke-width:0.28221554"
       id="rect33"
       width="143.63092"
       height="143.63092"
       x="-5.4495666e-007"
       y="-16.720213"
       ry="20.641569" />
    <rect
       ry="13.318157"
       y="-9.5386639"
       x="7.1815486"
       height="129.26782"
       width="129.26782"
       id="rect41"
       style="fill:url(#radialGradient45);fill-opacity:1;stroke-width:0.25399399"
       rx="12.82894" />
    <g
       id="g3325"
       transform="matrix(0.20763765,0,0,0.2040301,18.660099,2.8635407)">
      <g
         id="g3260">
        <g
           id="g3258">
          <g
             id="g3256">
            <path
               id="path3240"
               d="M 443.736,8.533 C 443.736,3.823 439.913,0 435.203,0 406.207,0 388.201,19.328 380.624,29.696 357.994,21.214 328.528,17.067 290.137,17.067 251.746,17.067 222.28,21.214 199.65,29.696 192.071,19.337 174.066,0 145.07,0 c -4.71,0 -8.533,3.823 -8.533,8.533 0,30.293 6.4,66.364 8.226,76.041 -5.606,15.266 -8.226,31.855 -8.226,51.959 0,62.78 54.699,153.6 153.6,153.6 98.901,0 153.6,-90.82 153.6,-153.6 0,-20.19 -2.62,-36.787 -8.226,-51.968 1.825,-9.694 8.225,-45.747 8.225,-76.032 z m -153.6,264.534 c -87.91,0 -136.533,-80.725 -136.533,-136.533 0,-18.935 2.526,-34.219 7.945,-48.094 0.597,-1.519 0.742,-3.174 0.418,-4.779 -0.068,-0.384 -6.895,-34.799 -8.166,-65.749 14.464,2.85 24.414,12.279 29.909,19.038 -4.122,2.304 -8.038,4.762 -11.58,7.492 -3.729,2.884 -4.412,8.243 -1.527,11.972 2.885,3.729 8.243,4.42 11.972,1.527 21.009,-16.239 55.194,-23.808 107.563,-23.808 52.386,0 86.571,7.569 107.58,23.825 1.553,1.203 3.388,1.784 5.214,1.784 2.551,0 5.069,-1.135 6.758,-3.311 2.884,-3.729 2.202,-9.088 -1.527,-11.972 -3.541,-2.739 -7.458,-5.188 -11.588,-7.509 5.53,-6.733 15.531,-16.171 29.892,-19.029 -1.271,30.925 -8.09,65.357 -8.158,65.741 -0.324,1.604 -0.179,3.268 0.418,4.796 5.495,13.952 7.945,28.783 7.945,48.077 -10e-4,55.806 -48.624,136.532 -136.535,136.532 z"
               inkscape:connector-curvature="0" />
            <path
               id="path3242"
               d="m 414.271,444.919 c 5.402,-12.885 12.399,-36.053 12.399,-69.453 0,-55.834 -53.632,-83.294 -55.919,-84.437 -4.224,-2.116 -9.327,-0.393 -11.435,3.806 -2.108,4.207 -0.41,9.336 3.789,11.46 0.461,0.23 46.498,24.004 46.498,69.171 0,47.548 -15.496,71.859 -15.633,72.064 -1.749,2.62 -1.911,5.982 -0.427,8.764 1.485,2.773 4.378,4.506 7.526,4.506 25.6,0 25.6,12.843 25.6,17.067 0,11.204 -12.877,17.067 -25.6,17.067 h -8.533 c -4.71,0 -8.533,3.823 -8.533,8.533 0,4.71 3.823,8.533 8.533,8.533 h 8.533 c 24.721,0 42.667,-14.353 42.667,-34.133 0,-17.57 -10.786,-29.321 -29.465,-32.948 z"
               inkscape:connector-curvature="0" />
            <path
               id="path3244"
               d="m 187.736,494.933 h -8.533 c -12.723,0 -25.6,-5.862 -25.6,-17.067 0,-4.224 0,-17.067 25.6,-17.067 3.132,0 5.999,-1.732 7.492,-4.489 1.493,-2.756 1.34,-6.118 -0.367,-8.738 -0.162,-0.247 -15.659,-24.559 -15.659,-72.107 0,-45.167 46.037,-68.941 46.481,-69.163 4.216,-2.116 5.931,-7.236 3.814,-11.452 -2.108,-4.216 -7.219,-5.931 -11.443,-3.823 -2.287,1.143 -55.919,28.604 -55.919,84.437 0,33.399 6.997,56.568 12.399,69.453 -18.68,3.627 -29.466,15.377 -29.466,32.947 0,19.78 17.946,34.133 42.667,34.133 h 8.533 c 4.71,0 8.533,-3.823 8.533,-8.533 0,-4.71 -3.821,-8.531 -8.532,-8.531 z"
               inkscape:connector-curvature="0" />
            <path
               id="path3246"
               d="m 145.07,384 c 0,-4.71 -3.823,-8.533 -8.533,-8.533 -0.051,0 -5.854,-0.401 -11.204,-6.81 -6.135,-7.356 -15.07,-27.128 -5.999,-76.996 4.352,-23.936 -7.006,-38.246 -19.405,-41.421 -10.863,-2.816 -25.284,2.321 -31.224,20.13 -1.493,4.471 0.93,9.301 5.402,10.795 4.471,1.502 9.301,-0.93 10.795,-5.402 2.159,-6.485 6.468,-10.086 10.795,-8.994 4.975,1.28 9.242,8.653 6.844,21.837 -7.859,43.247 -4.599,73.856 9.685,90.982 10.505,12.578 22.929,12.945 24.311,12.945 4.71,0 8.533,-3.823 8.533,-8.533 z"
               inkscape:connector-curvature="0" />
            <path
               id="path3248"
               d="m 341.396,444.211 c 0.247,-22.144 1.553,-84.497 8.303,-118.272 0.93,-4.617 -2.065,-9.114 -6.69,-10.035 -4.651,-0.93 -9.122,2.074 -10.035,6.69 -7.117,35.533 -8.405,98.364 -8.644,121.139 h -0.06 c -4.71,0 -8.533,3.823 -8.533,8.533 0,4.71 3.823,8.533 8.533,8.533 h 8.533 c 25.6,0 25.6,12.843 25.6,17.067 0,11.204 -12.877,17.067 -25.6,17.067 h -8.533 c -14.114,0 -25.6,-11.486 -25.6,-25.6 v -153.6 c 0,-4.71 -3.823,-8.533 -8.533,-8.533 -4.71,0 -8.533,3.823 -8.533,8.533 v 153.6 c 0,14.114 -11.486,25.6 -25.6,25.6 h -8.533 c -12.723,0 -25.6,-5.862 -25.6,-17.067 0,-4.224 0,-17.067 25.6,-17.067 h 8.533 c 4.71,0 8.533,-3.823 8.533,-8.533 0,-4.71 -3.823,-8.533 -8.533,-8.533 h -0.06 c -0.239,-22.775 -1.536,-85.606 -8.644,-121.139 -0.913,-4.617 -5.376,-7.612 -10.035,-6.69 -4.625,0.922 -7.62,5.419 -6.699,10.035 6.758,33.775 8.064,96.128 8.311,118.272 -21.504,2.5 -34.074,14.686 -34.074,33.655 0,19.78 17.946,34.133 42.667,34.133 h 8.533 c 13.943,0 26.342,-6.724 34.133,-17.092 7.791,10.369 20.19,17.093 34.134,17.093 h 8.533 c 24.721,0 42.667,-14.353 42.667,-34.133 0,-18.97 -12.57,-31.156 -34.074,-33.656 z"
               inkscape:connector-curvature="0" />
            <path
               id="path3250"
               d="m 345.603,110.933 c -7.057,0 -12.8,5.743 -12.8,12.8 0,7.057 5.743,12.8 12.8,12.8 7.057,0 12.8,-5.743 12.8,-12.8 0,-7.057 -5.743,-12.8 -12.8,-12.8 z"
               inkscape:connector-curvature="0" />
            <path
               id="path3252"
               d="m 247.47,123.733 c 0,-7.057 -5.743,-12.8 -12.8,-12.8 -7.057,0 -12.8,5.743 -12.8,12.8 0,7.057 5.743,12.8 12.8,12.8 7.057,0 12.8,-5.743 12.8,-12.8 z"
               inkscape:connector-curvature="0" />
            <path
               id="path3254"
               d="m 345.244,222.814 c -4.198,-2.159 -9.335,-0.512 -11.494,3.678 -1.468,2.842 -7.168,3.874 -9.481,3.908 -10.385,0 -21.154,-9.182 -24.474,-19.439 15.019,-7.33 24.474,-30.046 24.474,-40.294 0,-17.067 -18.927,-17.067 -34.133,-17.067 -15.206,0 -34.133,0 -34.133,17.067 0,10.249 9.455,32.964 24.474,40.294 -3.319,10.257 -14.089,19.439 -24.474,19.439 -1.212,0 -7.731,-0.708 -9.583,-4.096 -2.261,-4.13 -7.441,-5.649 -11.58,-3.388 -4.13,2.261 -5.658,7.441 -3.388,11.58 6.895,12.604 22.767,12.971 24.55,12.971 13.252,0 26.069,-7.569 34.133,-18.398 8.064,10.829 20.881,18.398 34.133,18.398 1.826,0 18.057,-0.375 24.653,-13.158 2.16,-4.191 0.513,-9.336 -3.677,-11.495 z m -55.108,-26.547 c -7.04,0 -16.154,-17.015 -17.007,-24.576 3.217,-1.024 11.392,-1.024 17.007,-1.024 5.615,0 13.798,0 17.007,1.024 -0.828,7.526 -9.958,24.576 -17.007,24.576 z"
               inkscape:connector-curvature="0" />
          </g>
        </g>
      </g>
      <g
         id="g3262" />
      <g
         id="g3264" />
      <g
         id="g3266" />
      <g
         id="g3268" />
      <g
         id="g3270" />
      <g
         id="g3272" />
      <g
         id="g3274" />
      <g
         id="g3276" />
      <g
         id="g3278" />
      <g
         id="g3280" />
      <g
         id="g3282" />
      <g
         id="g3284" />
      <g
         id="g3286" />
      <g
         id="g3288" />
      <g
         id="g3290" />
    </g>
  </g>
</svg>
