<?xml version="1.0" encoding="UTF-8" standalone="no"?>
<!-- Created with Inkscape (http://www.inkscape.org/) -->

<svg
   xmlns:dc="http://purl.org/dc/elements/1.1/"
   xmlns:cc="http://creativecommons.org/ns#"
   xmlns:rdf="http://www.w3.org/1999/02/22-rdf-syntax-ns#"
   xmlns:svg="http://www.w3.org/2000/svg"
   xmlns="http://www.w3.org/2000/svg"
   xmlns:xlink="http://www.w3.org/1999/xlink"
   xmlns:sodipodi="http://sodipodi.sourceforge.net/DTD/sodipodi-0.dtd"
   xmlns:inkscape="http://www.inkscape.org/namespaces/inkscape"
   width="143.63092mm"
   height="143.63092mm"
   viewBox="0 0 143.63092 143.63092"
   version="1.1"
   id="svg31"
   inkscape:version="0.92.1 r15371"
   sodipodi:docname="Grillo.svg">
  <defs
     id="defs25">
    <radialGradient
       inkscape:collect="always"
       xlink:href="#linearGradient43"
       id="radialGradient45"
       cx="32.606884"
       cy="6.1048827"
       fx="32.606884"
       fy="6.1048827"
       r="64.633911"
       gradientUnits="userSpaceOnUse"
       gradientTransform="matrix(-1.4614512,1.8803868,-1.7177367,-1.3350561,90.746839,-47.058306)" />
    <linearGradient
       inkscape:collect="always"
       id="linearGradient43">
      <stop
         style="stop-color:#66ff00;stop-opacity:1;"
         offset="0"
         id="stop39" />
      <stop
         style="stop-color:#00ff00;stop-opacity:0.44"
         offset="1"
         id="stop41" />
    </linearGradient>
  </defs>
  <sodipodi:namedview
     id="base"
     pagecolor="#ffffff"
     bordercolor="#666666"
     borderopacity="1.0"
     inkscape:pageopacity="0.0"
     inkscape:pageshadow="2"
     inkscape:zoom="0.49497475"
     inkscape:cx="209.75943"
     inkscape:cy="115.06841"
     inkscape:document-units="px"
     inkscape:current-layer="layer1"
     showgrid="false"
     inkscape:snap-object-midpoints="false"
     inkscape:snap-center="true"
     inkscape:pagecheckerboard="true"
     fit-margin-top="0"
     fit-margin-left="0"
     fit-margin-right="0"
     fit-margin-bottom="0"
     borderlayer="true"
     inkscape:window-width="667"
     inkscape:window-height="729"
     inkscape:window-x="683"
     inkscape:window-y="0"
     inkscape:window-maximized="0" />
  <metadata
     id="metadata28">
    <rdf:RDF>
      <cc:Work
         rdf:about="">
        <dc:format>image/svg+xml</dc:format>
        <dc:type
           rdf:resource="http://purl.org/dc/dcmitype/StillImage" />
        <dc:title></dc:title>
      </cc:Work>
    </rdf:RDF>
  </metadata>
  <g
     inkscape:label="Capa 1"
     inkscape:groupmode="layer"
     id="layer1"
     transform="translate(5.4495665e-7,16.720213)">
    <rect
       style="fill:#00112b;stroke-width:0.28221554"
       id="rect33"
       width="143.63092"
       height="143.63092"
       x="-5.4495666e-007"
       y="-16.720213"
       ry="20.641569" />
    <rect
       ry="13.318157"
       y="-9.5386639"
       x="7.1815486"
       height="129.26782"
       width="129.26782"
       id="rect41"
       style="fill:url(#radialGradient45);fill-opacity:1;stroke-width:0.25399399"
       rx="12.82894" />
    <g
       id="g430"
       transform="matrix(0.21868646,-0.08384318,0.08577451,0.18702568,-3.4366112,29.266447)"
       inkscape:transform-center-x="5.858559"
       inkscape:transform-center-y="0.26725269">
      <path
         id="path293"
         d="M 434.666,196.485 H 108.461 c -16.984,0 -30.757,13.77 -30.757,30.758 0,4.951 1.179,9.625 3.257,13.769 8.673,18.378 45.021,61.413 64.577,77.121 0.436,0.359 0.89,0.699 1.334,1.047 0.083,0.066 0.171,0.139 0.258,0.201 v 0 c 11.628,9.038 26.226,14.436 42.094,14.436 h 245.442 c 37.923,0 68.665,-30.744 68.665,-68.664 10e-4,-37.925 -30.742,-68.668 -68.665,-68.668 z"
         style="fill:#77bc1f"
         inkscape:connector-curvature="0" />
      <path
         d="m 21.251,196.154 c 2.167,34.139 30.524,61.161 65.212,61.161 h 246.009 c 33.587,0 60.814,-27.229 60.814,-60.816 z"
         style="fill:#218649"
         id="SVGCleanerId_0"
         inkscape:connector-curvature="0" />
      <path
         id="path296"
         d="M 434.666,196.485 H 108.461 c -16.984,0 -30.757,13.77 -30.757,30.758 0,4.951 1.179,9.625 3.257,13.769 8.673,18.378 45.021,61.413 64.577,77.121 0.436,0.359 0.89,0.699 1.334,1.047 0.083,0.066 0.171,0.139 0.258,0.201 v 0 c 11.628,9.038 26.226,14.436 42.094,14.436 h 245.442 c 37.923,0 68.665,-30.744 68.665,-68.664 10e-4,-37.925 -30.742,-68.668 -68.665,-68.668 z"
         style="fill:#77bc1f"
         inkscape:connector-curvature="0" />
      <path
         id="path298"
         d="m 108.461,196.485 c -16.984,0 -30.757,13.77 -30.757,30.758 0,4.951 1.179,9.625 3.257,13.769 8.673,18.378 45.021,61.413 64.577,77.121 0.436,0.359 0.89,0.699 1.334,1.047 0.083,0.066 0.171,0.139 0.258,0.201 v 0 c 11.628,9.038 26.226,14.436 42.094,14.436 H 294.96 V 196.485 Z"
         style="opacity:0.3;fill:#222222;enable-background:new"
         inkscape:connector-curvature="0" />
      <g
         id="g301">
        <path
           d="m 21.251,196.154 c 2.167,34.139 30.524,61.161 65.212,61.161 h 246.009 c 33.587,0 60.814,-27.229 60.814,-60.816 z"
           style="fill:#218649"
           id="SVGCleanerId_0_1_"
           inkscape:connector-curvature="0" />
      </g>
      <g
         id="g307">
        <path
           id="path303"
           d="m 21.251,196.154 c 2.167,34.139 30.524,61.161 65.212,61.161 h 208.498 v -60.989 z"
           style="opacity:0.2;fill:#222222;enable-background:new"
           inkscape:connector-curvature="0" />
        <path
           id="path305"
           d="m 219.687,269.456 -73.182,-73.184 -84.531,-0.077 c -0.018,4.009 0.116,7.621 0.424,10.482 0.803,8.422 4.429,16.627 10.881,23.078 l 93.055,93.057 c 6.914,6.914 15.842,10.582 24.892,11.008 h 3.576 c 9.048,-0.428 17.974,-4.096 24.883,-11.005 14.734,-14.738 14.739,-38.625 0.002,-53.359 z"
           style="opacity:0.3;fill:#222222;enable-background:new"
           inkscape:connector-curvature="0" />
      </g>
      <path
         id="path309"
         d="m 64.945,378.873 c -0.743,0 -1.494,-0.05 -2.25,-0.15 -9.183,-1.231 -15.63,-9.673 -14.398,-18.857 L 73.625,170.867 c 1.231,-9.183 9.66,-15.623 18.857,-14.401 9.185,1.23 15.632,9.674 14.4,18.855 l -25.33,189.001 c -1.13,8.428 -8.333,14.551 -16.607,14.551 z"
         style="fill:#95d600"
         inkscape:connector-curvature="0" />
      <path
         id="path311"
         d="m 92.481,156.466 c -9.197,-1.222 -17.626,5.218 -18.857,14.401 l -6.743,50.326 c 1.679,3.067 3.797,5.959 6.397,8.559 l 23.197,23.199 10.404,-77.63 c 1.235,-9.181 -5.212,-17.625 -14.398,-18.855 z"
         style="opacity:0.3;fill:#222222;enable-background:new"
         inkscape:connector-curvature="0" />
      <path
         id="path313"
         d="M 226.634,262.508 102.204,138.077 c -6.601,-6.601 -17.301,-6.601 -23.902,-0.003 -1.916,1.917 -3.259,4.185 -4.061,6.593 l -0.016,0.005 c -3.775,10.484 -6.373,41.341 -4.881,55.056 0.803,8.423 4.429,16.629 10.881,23.08 l 93.057,93.057 c 14.732,14.733 38.619,14.733 53.349,0.002 14.737,-14.736 14.739,-38.625 0.003,-53.359 z"
         style="fill:#218649"
         inkscape:connector-curvature="0" />
      <path
         id="path315"
         d="M 64.925,378.872 H 25.446 c -9.265,0 -16.777,-7.513 -16.777,-16.777 0,-9.266 7.513,-16.777 16.777,-16.777 h 39.479 c 9.265,0 16.777,7.511 16.777,16.777 -0.001,9.264 -7.513,16.777 -16.777,16.777 z"
         style="fill:#95d600"
         inkscape:connector-curvature="0" />
      <rect
         id="rect317"
         height="33.553001"
         width="17.337"
         style="fill:#218649"
         y="345.315"
         x="28.320999" />
      <path
         id="path319"
         d="m 292.911,332.683 c -6.393,0 -12.498,-3.671 -15.3,-9.874 l -26.565,-58.811 c -3.811,-8.445 -0.059,-18.38 8.386,-22.195 8.443,-3.814 18.379,-0.062 22.195,8.383 l 26.565,58.812 c 3.813,8.444 0.059,18.379 -8.384,22.195 -2.242,1.011 -4.59,1.49 -6.897,1.49 z"
         style="opacity:0.3;fill:#222222;enable-background:new"
         inkscape:connector-curvature="0" />
      <path
         id="path321"
         d="m 298.546,327.051 c -6.393,0 -12.498,-3.672 -15.3,-9.875 l -26.563,-58.81 c -3.813,-8.447 -0.061,-18.382 8.384,-22.196 8.443,-3.814 18.379,-0.062 22.195,8.383 l 26.565,58.811 c 3.813,8.445 0.059,18.38 -8.384,22.196 -2.243,1.011 -4.588,1.491 -6.897,1.491 z"
         style="fill:#95d600"
         inkscape:connector-curvature="0" />
      <path
         id="path323"
         d="m 308.191,308.999 -26.565,-58.812 c -3.815,-8.445 -13.752,-12.197 -22.195,-8.383 -0.632,0.283 -1.226,0.613 -1.804,0.963 -2.761,4.567 -3.307,10.369 -0.945,15.6 l 26.563,58.81 c 2.804,6.203 8.908,9.875 15.3,9.875 2.309,0 4.654,-0.48 6.897,-1.491 0.63,-0.285 1.226,-0.615 1.804,-0.964 2.76,-4.569 3.306,-10.368 0.945,-15.598 z"
         style="opacity:0.3;fill:#222222;enable-background:new"
         inkscape:connector-curvature="0" />
      <g
         id="g329">
        <path
           id="path325"
           d="m 249.821,378.874 c -1.092,0 -2.201,-0.107 -3.314,-0.328 -9.083,-1.822 -14.973,-10.662 -13.154,-19.748 l 22.168,-110.634 c 1.819,-9.084 10.668,-14.965 19.745,-13.155 9.083,1.822 14.976,10.662 13.154,19.745 l -22.166,110.637 c -1.597,7.97 -8.601,13.483 -16.433,13.483 z"
           style="fill:#95d600"
           inkscape:connector-curvature="0" />
        <path
           id="path327"
           d="m 249.806,378.872 h -39.479 c -9.265,0 -16.777,-7.513 -16.777,-16.777 0,-9.266 7.513,-16.777 16.777,-16.777 h 39.479 c 9.265,0 16.777,7.511 16.777,16.777 -0.001,9.264 -7.513,16.777 -16.777,16.777 z"
           style="fill:#95d600"
           inkscape:connector-curvature="0" />
      </g>
      <rect
         id="rect331"
         height="33.553001"
         width="17.337"
         style="fill:#218649"
         y="345.315"
         x="213.20799" />
      <path
         id="path333"
         d="m 384.08,332.683 c -6.39,0 -12.498,-3.671 -15.3,-9.874 l -26.562,-58.811 c -3.815,-8.445 -0.061,-18.38 8.384,-22.195 8.441,-3.814 18.379,-0.062 22.195,8.383 l 26.565,58.812 c 3.813,8.444 0.059,18.379 -8.384,22.195 -2.243,1.011 -4.59,1.49 -6.898,1.49 z"
         style="opacity:0.3;fill:#222222;enable-background:new"
         inkscape:connector-curvature="0" />
      <path
         id="path335"
         d="m 389.714,327.051 c -6.39,0 -12.498,-3.672 -15.3,-9.875 l -26.562,-58.81 c -3.815,-8.447 -0.061,-18.382 8.384,-22.196 8.443,-3.814 18.379,-0.062 22.195,8.383 l 26.565,58.811 c 3.813,8.445 0.059,18.38 -8.384,22.196 -2.242,1.011 -4.59,1.491 -6.898,1.491 z"
         style="fill:#95d600"
         inkscape:connector-curvature="0" />
      <path
         id="path337"
         d="m 399.36,308.999 -26.565,-58.812 c -3.815,-8.445 -13.754,-12.197 -22.195,-8.383 -0.63,0.283 -1.225,0.613 -1.803,0.963 -2.761,4.567 -3.309,10.369 -0.945,15.6 l 26.562,58.81 c 2.804,6.203 8.91,9.875 15.3,9.875 2.307,0 4.654,-0.48 6.897,-1.491 0.63,-0.285 1.226,-0.615 1.802,-0.964 2.763,-4.569 3.309,-10.368 0.947,-15.598 z"
         style="opacity:0.3;fill:#222222;enable-background:new"
         inkscape:connector-curvature="0" />
      <g
         id="g343">
        <path
           id="path339"
           d="m 340.993,378.874 c -1.095,0 -2.203,-0.107 -3.316,-0.328 -9.083,-1.822 -14.973,-10.662 -13.154,-19.748 l 22.168,-110.634 c 1.819,-9.084 10.668,-14.965 19.745,-13.155 9.086,1.822 14.976,10.662 13.156,19.745 l -22.168,110.637 c -1.597,7.97 -8.602,13.483 -16.431,13.483 z"
           style="fill:#95d600"
           inkscape:connector-curvature="0" />
        <path
           id="path341"
           d="m 340.973,378.872 h -39.477 c -9.267,0 -16.78,-7.513 -16.78,-16.777 0,-9.266 7.513,-16.777 16.78,-16.777 h 39.477 c 9.267,0 16.777,7.511 16.777,16.777 0,9.264 -7.511,16.777 -16.777,16.777 z"
           style="fill:#95d600"
           inkscape:connector-curvature="0" />
      </g>
      <rect
         id="rect345"
         height="33.553001"
         width="17.337"
         style="fill:#218649"
         y="345.315"
         x="304.37701" />
      <path
         id="path347"
         d="m 466.801,226.865 c -3.86,0 -6.989,3.131 -6.989,6.991 0,3.861 3.129,6.99 6.989,6.99 3.86,0 6.991,-3.129 6.991,-6.99 0,-3.86 -3.131,-6.991 -6.991,-6.991 z m -25.676,-38.758 c 8.198,-21.033 28.657,-35.984 52.555,-35.984 4.788,0 8.668,-3.88 8.668,-8.668 0,-4.788 -3.88,-8.668 -8.668,-8.668 -33.468,0 -61.78,22.423 -70.75,53.031 h -44.267 l -214.659,-0.199 -55.671,-55.671 c -4.831,-4.83 -11.252,-7.488 -18.082,-7.488 -6.828,0 -13.249,2.658 -18.081,7.488 -2.681,2.684 -4.688,5.855 -5.966,9.437 -0.047,0.117 -0.092,0.233 -0.135,0.353 -3.383,9.397 -5.581,30.144 -5.795,45.787 L 21.258,187.489 H 21.25 c -2.392,0 -4.68,0.988 -6.318,2.733 -1.641,1.746 -2.485,4.093 -2.335,6.483 1.665,26.251 17.356,49.657 40.591,61.38 L 42.66,336.65 H 25.446 C 11.415,336.648 0,348.063 0,362.094 0,376.125 11.415,387.54 25.446,387.54 h 39.366 c 0.046,10e-4 0.098,-0.006 0.139,10e-4 12.651,0 23.48,-9.479 25.193,-22.067 l 10.875,-81.136 c 13.728,16.507 28.883,32.353 39.01,40.486 0.363,0.299 0.736,0.589 1.11,0.877 l 0.401,0.312 c 0.113,0.09 0.227,0.179 0.341,0.265 13.672,10.604 30.04,16.208 47.346,16.208 h 4.904 c -5.645,4.671 -9.247,11.727 -9.247,19.609 0,14.031 11.415,25.446 25.446,25.446 h 39.305 c 0.065,10e-4 0.128,0.002 0.191,0.002 12.071,0 22.557,-8.599 24.933,-20.448 l 1.366,-6.815 c -0.043,0.601 -0.073,1.204 -0.073,1.816 0,14.031 11.416,25.446 25.448,25.446 h 39.305 c 0.065,0.001 0.128,0.002 0.191,0.002 12.07,0 22.555,-8.599 24.93,-20.448 l 4.931,-24.608 h 63.815 c 42.643,0 77.334,-34.692 77.334,-77.333 C 512,224.686 480.754,191.403 441.125,188.107 Z m -62.102,17.046 4.885,0.005 c -1.405,8.464 -4.875,16.389 -10.148,23.193 -1.797,-0.825 -3.68,-1.453 -5.622,-1.843 -0.03,-0.006 -0.061,-0.012 -0.09,-0.017 -13.727,-2.687 -27.107,6.251 -29.857,19.969 l -0.384,1.916 c -1.767,0.179 -3.549,0.269 -5.334,0.269 H 298.62 l -3.46,-7.662 c -2.365,-5.237 -6.479,-9.56 -11.594,-12.177 -2.086,-1.066 -4.306,-1.839 -6.596,-2.299 -0.03,-0.006 -0.06,-0.012 -0.089,-0.017 -13.737,-2.691 -27.111,6.249 -29.859,19.969 l -0.438,2.187 h -21.553 l -43.492,-43.493 z m -57.298,94.642 -15.273,-33.811 h 26.019 c 0.604,0 1.21,-0.03 1.815,-0.045 l -11.863,59.211 h -3.264 c 5.139,-7.15 6.441,-16.771 2.566,-25.355 z m -78.614,-33.811 -0.833,4.157 c -0.64,-1.419 -1.35,-2.806 -2.134,-4.157 z m -11.431,57.04 -0.425,2.124 h -1.98 c 0.824,-0.675 1.621,-1.389 2.405,-2.124 z M 31.265,204.832 l 29.059,0.027 -4.647,34.677 C 43.419,231.57 34.602,219.095 31.265,204.832 Z m 41.696,158.322 c -0.525,3.864 -4.076,7.011 -7.941,7.05 -0.036,-0.001 -0.073,-0.001 -0.109,-0.001 H 25.446 c -4.471,0 -8.109,-3.638 -8.109,-8.109 0,-4.471 3.637,-8.109 8.109,-8.109 h 24.802 c 4.342,0 8.014,-3.213 8.592,-7.517 l 15.691,-117.097 14.428,14.428 z m 79.489,-50.618 -0.102,-0.077 c -0.036,-0.029 -0.109,-0.086 -0.126,-0.099 l -0.485,-0.378 c -0.23,-0.177 -0.461,-0.355 -0.769,-0.607 -10.697,-8.592 -28.236,-27.412 -42.528,-45.39 h 2.703 l 54.247,54.247 c -4.567,-1.988 -8.904,-4.56 -12.94,-7.696 z m 26.963,-2.803 -93.058,-93.057 c -4.765,-4.764 -7.741,-11.076 -8.392,-17.888 -1.349,-12.397 1.126,-41.433 4.29,-50.812 0.076,-0.187 0.149,-0.378 0.214,-0.572 0.409,-1.229 1.071,-2.306 1.964,-3.2 1.556,-1.555 3.622,-2.41 5.822,-2.41 2.198,0 4.266,0.856 5.822,2.412 l 124.431,124.431 c 5.489,5.489 8.511,12.786 8.511,20.548 0,7.762 -3.024,15.06 -8.515,20.55 -5.487,5.487 -12.782,8.508 -20.542,8.508 -7.763,0.002 -15.061,-3.022 -20.547,-8.51 z m 97.968,44.251 2.303,-11.499 h 5.611 c -3.613,2.991 -6.385,6.963 -7.914,11.499 z m -0.513,-85.689 -7.182,35.847 c -0.014,0.064 -0.025,0.125 -0.037,0.188 l -11.892,59.355 c -0.75,3.741 -4.03,6.468 -7.825,6.519 -0.052,-0.001 -0.104,-0.001 -0.155,-0.001 h -39.45 c -4.471,0 -8.109,-3.638 -8.109,-8.109 0,-4.471 3.637,-8.109 8.109,-8.109 h 25.728 c 4.131,0 7.687,-2.915 8.5,-6.965 l 19.468,-97.155 c 0.878,-4.38 5.163,-7.238 9.551,-6.356 0.009,0.001 0.017,0.003 0.025,0.005 0.722,0.149 1.422,0.396 2.077,0.73 1.148,0.587 2.721,1.737 3.686,3.878 l 5.965,13.207 c -4.034,0.014 -7.636,2.857 -8.459,6.966 z m 14.277,45.314 -3.931,-8.705 5.467,-27.29 13.243,29.318 c 1.84,4.075 0.023,8.888 -4.048,10.727 -1.066,0.481 -2.187,0.725 -3.332,0.725 -3.184,-0.002 -6.089,-1.876 -7.399,-4.775 z m 76.89,-45.314 -7.182,35.847 c -0.014,0.064 -0.025,0.125 -0.037,0.188 l -11.892,59.355 c -0.75,3.741 -4.03,6.468 -7.825,6.519 -0.053,-0.001 -0.105,-0.001 -0.156,-0.001 h -39.448 c -4.472,0 -8.111,-3.638 -8.111,-8.109 0,-4.471 3.638,-8.109 8.111,-8.109 h 25.728 c 4.131,0 7.687,-2.915 8.5,-6.965 l 19.466,-97.153 c 0.88,-4.38 5.152,-7.239 9.551,-6.358 0.009,0.001 0.018,0.003 0.025,0.005 0.724,0.15 1.423,0.395 2.077,0.73 1.149,0.588 2.721,1.738 3.688,3.877 l 5.965,13.208 c -4.033,0.013 -7.637,2.857 -8.46,6.966 z m 29.254,44.84 c -0.765,2.026 -2.275,3.633 -4.245,4.523 -1.066,0.481 -2.187,0.725 -3.332,0.725 -3.184,0 -6.089,-1.874 -7.398,-4.776 l -3.932,-8.704 5.467,-27.292 13.244,29.322 c 0.892,1.974 0.961,4.176 0.196,6.202 z m 37.377,12.013 h -24.337 c 5.139,-7.15 6.44,-16.77 2.564,-25.353 L 386.33,240.979 c -0.054,-0.12 -0.122,-0.236 -0.179,-0.356 8.404,-10.182 13.643,-22.401 15.254,-35.472 h 18.632 c -0.051,1.116 -0.086,2.236 -0.086,3.363 0,4.788 3.88,8.668 8.668,8.668 4.787,0 8.668,-3.88 8.668,-8.668 0,-1.106 0.04,-2.203 0.104,-3.295 31.821,1.431 57.273,27.762 57.273,59.93 -10e-4,33.086 -26.916,59.999 -59.998,59.999 z"
         style="fill:#1e252b"
         inkscape:connector-curvature="0" />
      <g
         id="g349" />
      <g
         id="g351" />
      <g
         id="g353" />
      <g
         id="g355" />
      <g
         id="g357" />
      <g
         id="g359" />
      <g
         id="g361" />
      <g
         id="g363" />
      <g
         id="g365" />
      <g
         id="g367" />
      <g
         id="g369" />
      <g
         id="g371" />
      <g
         id="g373" />
      <g
         id="g375" />
      <g
         id="g377" />
    </g>
  </g>
</svg>
