<?xml version="1.0" encoding="UTF-8" standalone="no"?>
<!-- Created with Inkscape (http://www.inkscape.org/) -->

<svg
   xmlns:dc="http://purl.org/dc/elements/1.1/"
   xmlns:cc="http://creativecommons.org/ns#"
   xmlns:rdf="http://www.w3.org/1999/02/22-rdf-syntax-ns#"
   xmlns:svg="http://www.w3.org/2000/svg"
   xmlns="http://www.w3.org/2000/svg"
   xmlns:xlink="http://www.w3.org/1999/xlink"
   xmlns:sodipodi="http://sodipodi.sourceforge.net/DTD/sodipodi-0.dtd"
   xmlns:inkscape="http://www.inkscape.org/namespaces/inkscape"
   width="143.63092mm"
   height="143.63092mm"
   viewBox="0 0 143.63092 143.63092"
   version="1.1"
   id="svg31"
   inkscape:version="0.92.1 r15371"
   sodipodi:docname="Leon.svg">
  <defs
     id="defs25">
    <radialGradient
       inkscape:collect="always"
       xlink:href="#linearGradient43"
       id="radialGradient45"
       cx="32.606884"
       cy="6.1048827"
       fx="32.606884"
       fy="6.1048827"
       r="64.633911"
       gradientUnits="userSpaceOnUse"
       gradientTransform="matrix(-1.4614512,1.8803868,-1.7177367,-1.3350561,90.746839,-47.058306)" />
    <linearGradient
       inkscape:collect="always"
       id="linearGradient43">
      <stop
         style="stop-color:#66ff00;stop-opacity:1;"
         offset="0"
         id="stop39" />
      <stop
         style="stop-color:#00ff00;stop-opacity:0.44"
         offset="1"
         id="stop41" />
    </linearGradient>
  </defs>
  <sodipodi:namedview
     id="base"
     pagecolor="#ffffff"
     bordercolor="#666666"
     borderopacity="1.0"
     inkscape:pageopacity="0.0"
     inkscape:pageshadow="2"
     inkscape:zoom="0.49497475"
     inkscape:cx="209.75943"
     inkscape:cy="115.06841"
     inkscape:document-units="px"
     inkscape:current-layer="layer1"
     showgrid="false"
     inkscape:snap-object-midpoints="true"
     inkscape:snap-center="true"
     inkscape:pagecheckerboard="true"
     fit-margin-top="0"
     fit-margin-left="0"
     fit-margin-right="0"
     fit-margin-bottom="0"
     borderlayer="true"
     inkscape:window-width="667"
     inkscape:window-height="729"
     inkscape:window-x="683"
     inkscape:window-y="0"
     inkscape:window-maximized="0" />
  <metadata
     id="metadata28">
    <rdf:RDF>
      <cc:Work
         rdf:about="">
        <dc:format>image/svg+xml</dc:format>
        <dc:type
           rdf:resource="http://purl.org/dc/dcmitype/StillImage" />
        <dc:title></dc:title>
      </cc:Work>
    </rdf:RDF>
  </metadata>
  <g
     inkscape:label="Capa 1"
     inkscape:groupmode="layer"
     id="layer1"
     transform="translate(5.4495665e-7,16.720213)">
    <rect
       style="fill:#00112b;stroke-width:0.28221554"
       id="rect33"
       width="143.63092"
       height="143.63092"
       x="-5.4495666e-007"
       y="-16.720213"
       ry="20.641569" />
    <rect
       ry="13.318157"
       y="-9.5386639"
       x="7.1815486"
       height="129.26782"
       width="129.26782"
       id="rect41"
       style="fill:url(#radialGradient45);fill-opacity:1;stroke-width:0.25399399"
       rx="12.82894" />
    <g
       id="g2251"
       transform="matrix(0.23269043,0,0,0.22820832,13.916715,-1.6884269)">
      <g
         id="g2164">
        <path
           id="path2160"
           d="m 215.212,327.293 c -1.767,-1.561 -4.119,-2.288 -6.456,-1.991 -19.97,2.5 -34.502,3.609 -34.646,3.62 -3.815,0.288 -6.926,3.171 -7.503,6.952 L 148.58,454.102 c -0.36,2.368 0.33,4.774 1.89,6.592 1.561,1.816 3.835,2.861 6.231,2.861 h 34.243 c 3.835,0 7.16,-2.654 8.009,-6.394 l 18.833,-82.877 c 0.136,-0.598 0.204,-1.207 0.204,-1.82 v -39.011 c 0.001,-2.357 -1.011,-4.6 -2.778,-6.16 z"
           style="fill:#493625"
           inkscape:connector-curvature="0" />
        <path
           id="path2162"
           d="m 373.172,353.026 c -22.008,-21.008 -31.94,-58.562 -32.036,-58.933 -0.794,-3.081 -3.294,-5.424 -6.419,-6.019 -3.126,-0.595 -6.313,0.668 -8.181,3.243 -2.939,4.047 -12.541,12.087 -43.821,20.464 -2.684,0.718 -4.822,2.746 -5.684,5.387 -0.573,1.754 -13.759,43.195 9.249,62.249 9.067,7.508 14.269,12.726 17.127,15.917 l -16.973,22.357 c -9.241,3.504 -38.885,16.035 -45.705,34.847 -0.912,2.519 -0.541,5.323 0.997,7.515 1.538,2.193 4.048,3.498 6.726,3.498 h 53.822 c 2.476,0 4.82,-1.118 6.381,-3.04 l 49.416,-60.943 c 0.451,-0.557 0.828,-1.17 1.12,-1.826 l 15.813,-35.428 c 1.413,-3.171 0.681,-6.89 -1.832,-9.288 z"
           style="fill:#493625"
           inkscape:connector-curvature="0" />
      </g>
      <path
         id="path2166"
         d="m 471.669,341.667 c -3.634,0 -6.957,-2.43 -7.934,-6.108 -1.324,-4.985 -3.305,-10.244 -5.403,-15.813 -4.755,-12.626 -10.146,-26.937 -11.374,-45.972 -2.093,-32.431 -17.085,-58.372 -44.561,-77.104 -20.792,-14.175 -40.938,-18.628 -41.14,-18.671 -4.434,-0.955 -7.256,-5.325 -6.301,-9.759 0.956,-4.434 5.328,-7.251 9.759,-6.301 0.95,0.204 23.517,5.191 46.934,21.157 31.422,21.423 49.3,52.412 51.699,89.621 1.071,16.59 5.79,29.12 10.354,41.237 2.247,5.965 4.37,11.602 5.906,17.387 1.164,4.384 -1.447,8.882 -5.831,10.047 -0.701,0.19 -1.41,0.279 -2.108,0.279 z"
         style="fill:#512807"
         inkscape:connector-curvature="0" />
      <path
         id="path2168"
         d="m 432.024,376.444 c -2.135,-15.795 -5.142,-28.107 -7.558,-38 -3.898,-15.956 -6.473,-26.498 -3.475,-40.592 2.718,-12.785 6.663,-38.118 2.536,-64.134 -5.054,-31.863 -21.108,-54.985 -46.422,-66.868 -27.969,-13.129 -49.075,-10.484 -71.422,-7.682 -23.588,2.957 -47.977,6.017 -86.875,-7.293 -4.294,-1.47 -8.963,0.819 -10.431,5.112 -1.469,4.292 0.82,8.962 5.112,10.429 1.362,0.467 2.708,0.912 4.04,1.343 2.842,25.236 -2.81,45.838 -2.81,45.838 -5.41,-9.919 -19.839,-17.134 -19.839,-17.134 11.723,31.562 -32.464,84.934 -32.464,84.934 -0.529,-6.78 -5.714,-11.246 -9.909,-13.783 l -8.987,15.387 c -3.865,9.772 -9.971,19.574 -14.209,25.818 -1.346,-0.964 -2.99,-1.537 -4.767,-1.537 -0.035,0 -0.069,0 -0.104,0.001 -4.536,0.056 -8.168,3.778 -8.111,8.315 l 1.252,100.792 c -3.081,1.24 -6.974,3.073 -10.95,5.645 -12.019,7.776 -19.251,18.575 -20.915,31.23 -0.309,2.345 0.41,4.709 1.968,6.487 1.56,1.779 3.81,2.798 6.176,2.798 h 62.84 c 4.1,0 7.572,-3.024 8.136,-7.085 l 15.497,-111.589 c 10.88,-0.97 38.079,-3.671 66.662,-8.641 39.775,-6.915 66.916,-15.327 82.21,-25.536 5.171,14.355 15.601,37.955 32.625,54.205 16.671,15.913 23.405,31.894 18.03,42.77 -1.241,1.757 -7.88,5.084 -12.281,7.288 -13.996,7.013 -35.149,17.61 -36.046,40.044 -0.09,2.234 0.736,4.407 2.285,6.019 1.549,1.612 3.688,2.523 5.923,2.523 h 54.495 c 2.267,0 4.433,-0.936 5.985,-2.588 0.387,-0.412 9.56,-10.243 18.048,-25.335 11.473,-20.398 16.229,-40.864 13.755,-59.181 z"
         style="fill:#b79274"
         inkscape:connector-curvature="0" />
      <path
         id="path2170"
         d="m 391.052,296.144 c -5.464,25.693 5.464,40.968 10.928,81.401 3.835,28.383 -20.974,66.066 -36.103,86.008 h 28.358 c 2.267,0 4.433,-0.936 5.985,-2.588 0.387,-0.412 9.56,-10.243 18.048,-25.335 11.474,-20.403 16.231,-40.869 13.757,-59.186 -2.135,-15.795 -5.142,-28.107 -7.558,-38 -3.898,-15.956 -6.473,-26.498 -3.475,-40.592 2.718,-12.785 6.663,-38.118 2.536,-64.134 -5.054,-31.863 -21.108,-54.985 -46.422,-66.868 -27.969,-13.129 -49.075,-10.484 -71.422,-7.682 9.271,1 35.1,9.987 46.027,15.116 53.547,25.136 44.805,96.167 39.341,121.86 z"
         style="fill:#6e563d"
         inkscape:connector-curvature="0" />
      <path
         id="path2172"
         d="m 226.18,172.966 c -1.797,-24.441 -10.035,-45.506 -24.08,-61.972 2.404,-0.001 4.686,-1.056 6.246,-2.886 1.561,-1.831 2.24,-4.254 1.859,-6.629 -0.093,-0.586 -2.412,-14.522 -12.023,-29.462 -8.94,-13.895 -26.102,-31.435 -57.09,-36.083 -34.588,-5.189 -63.7,0.675 -81.977,16.509 -13.838,11.988 -21.087,29.328 -20.964,50.146 0.02,3.302 2.014,6.271 5.064,7.537 3.05,1.265 6.56,0.584 8.914,-1.733 8.263,-8.137 15.35,-14.781 18.119,-17.354 4.963,-1.285 10.14,1.928 12.903,4.072 9.648,7.493 16.346,21.635 14.93,31.527 -0.748,5.224 -3.697,8.785 -9.018,10.885 -35.831,14.145 -55.034,37.133 -55.834,38.106 -1.762,2.141 -2.326,5.027 -1.497,7.673 0.828,2.647 2.935,4.697 5.604,5.452 l 18.994,5.371 c -5.096,15.106 -12.37,47.37 0.965,84.569 1.001,2.791 3.427,4.825 6.35,5.325 2.921,0.495 5.888,-0.617 7.757,-2.918 l 2.946,-3.626 c 6.866,14.003 20.976,35.169 46.894,46.548 1.067,0.469 2.189,0.694 3.299,0.694 2.487,0 4.913,-1.131 6.507,-3.198 2.103,-2.726 16.921,-22.359 22.354,-41.09 0.454,0.806 0.755,1.678 0.828,2.611 0.26,3.337 2.518,6.181 5.708,7.191 3.189,1.011 6.674,-0.014 8.807,-2.591 0.471,-0.569 11.647,-14.136 21.485,-31.887 8.528,-15.388 13.393,-29.067 14.567,-40.905 1.09,1.194 2.028,2.434 2.712,3.686 1.603,2.942 4.831,4.609 8.158,4.226 3.326,-0.386 6.086,-2.753 6.973,-5.982 0.218,-0.793 5.315,-19.681 3.54,-43.812 z"
         style="fill:#a86b38"
         inkscape:connector-curvature="0" />
      <path
         id="path2174"
         d="m 226.18,172.966 c -1.797,-24.441 -10.035,-45.506 -24.08,-61.972 2.404,-0.001 4.686,-1.056 6.246,-2.886 1.561,-1.831 2.24,-4.254 1.859,-6.629 -0.093,-0.586 -2.412,-14.522 -12.023,-29.462 -8.94,-13.895 -26.102,-31.435 -57.09,-36.083 -13.642,-2.047 -26.427,-2.367 -38.037,-1.04 2.741,0.277 5.518,0.618 8.334,1.04 30.989,4.648 48.15,22.188 57.09,36.083 9.611,14.941 11.93,28.876 12.023,29.462 0.381,2.375 -0.298,4.798 -1.859,6.629 -1.56,1.83 -3.842,2.885 -6.246,2.886 14.045,16.466 22.283,37.531 24.08,61.972 1.774,24.131 -3.323,43.019 -3.541,43.811 -0.888,3.229 -3.647,5.595 -6.973,5.982 -3.327,0.382 -6.555,-1.286 -8.158,-4.226 -0.683,-1.254 -1.622,-2.493 -2.712,-3.686 -1.174,11.838 -6.039,25.517 -14.567,40.905 -9.838,17.752 -21.014,31.319 -21.485,31.887 -2.133,2.577 -5.618,3.602 -8.808,2.591 -3.19,-1.011 -5.449,-3.855 -5.708,-7.191 -0.073,-0.933 -0.375,-1.804 -0.828,-2.611 -3.857,13.297 -12.439,27.041 -17.849,34.876 4.595,3.257 9.71,6.223 15.392,8.718 1.067,0.469 2.189,0.694 3.299,0.694 2.487,0 4.913,-1.131 6.507,-3.198 2.103,-2.726 16.921,-22.359 22.354,-41.09 0.454,0.806 0.755,1.678 0.828,2.611 0.26,3.337 2.518,6.181 5.708,7.191 3.189,1.011 6.674,-0.014 8.808,-2.591 0.471,-0.569 11.647,-14.136 21.485,-31.887 8.528,-15.388 13.393,-29.067 14.567,-40.905 1.09,1.194 2.028,2.434 2.712,3.686 1.603,2.942 4.831,4.609 8.158,4.226 3.326,-0.386 6.086,-2.753 6.973,-5.982 0.219,-0.792 5.316,-19.68 3.541,-43.811 z"
         style="fill:#8c4a14"
         inkscape:connector-curvature="0" />
      <path
         id="path2176"
         d="m 156.494,69.205 c -7.497,-7.308 -17.967,-8.869 -29.482,-4.398 -7.485,2.906 -13.013,7.371 -13.619,7.871 -3.475,2.866 -3.994,7.997 -1.163,11.499 l 22.216,27.489 c 1.397,1.729 3.437,2.818 5.651,3.018 0.246,0.023 0.493,0.033 0.738,0.033 1.959,0 3.865,-0.702 5.361,-1.991 1.647,-1.42 16.106,-14.275 16.537,-28.313 0.179,-5.797 -1.979,-11.057 -6.239,-15.208 z"
         style="fill:#b79274"
         inkscape:connector-curvature="0" />
      <path
         id="path2178"
         d="m 474.067,325.237 c -13.002,0 -23.579,10.577 -23.579,23.579 0,5.579 2.609,17.47 6.068,27.663 5.688,16.759 11.788,24.232 19.775,24.232 10.738,0 15.125,-13.399 17.747,-25.073 2.233,-9.943 3.568,-21.446 3.568,-26.822 10e-4,-13 -10.577,-23.579 -23.579,-23.579 z"
         style="fill:#a86b38"
         inkscape:connector-curvature="0" />
      <path
         id="path2180"
         d="m 93.228,82.137 c -10.01,-7.775 -20.822,-9.862 -30.441,-5.884 -0.891,0.369 -1.711,0.891 -2.421,1.545 -1.874,1.724 -46.03,42.446 -59.082,62.956 -1.576,2.478 -1.711,5.608 -0.35,8.212 0.611,1.171 15.194,28.777 34.797,39.144 1.21,0.641 2.523,0.948 3.824,0.948 2.389,0 4.737,-1.039 6.344,-2.975 0.172,-0.206 17.514,-20.776 49.195,-33.281 10.823,-4.272 17.659,-12.738 19.248,-23.838 2.273,-15.866 -6.607,-35.561 -21.114,-46.827 z"
         style="fill:#ffdcaf"
         inkscape:connector-curvature="0" />
      <path
         id="path2182"
         d="m 68.633,124.247 c -5.246,0 -9.515,-4.261 -9.515,-9.497 0,-5.237 4.268,-9.499 9.515,-9.499 5.247,0 9.515,4.261 9.515,9.499 0,5.235 -4.268,9.497 -9.515,9.497 z"
         inkscape:connector-curvature="0" />
      <path
         id="path2184"
         d="m 22.864,165.785 c 0.705,-0.426 1.361,-0.96 1.933,-1.612 6.936,-7.914 9.964,-16.02 9,-24.095 -1.303,-10.921 -9.516,-16.992 -10.448,-17.648 -1.222,-1.345 -2.765,-2.449 -4.474,-3.364 -7.297,7.97 -13.776,15.694 -17.591,21.689 -1.576,2.478 -1.711,5.608 -0.35,8.212 0.381,0.729 6.182,11.714 15.241,22.401 z"
         inkscape:connector-curvature="0" />
      <g
         id="g2186" />
      <g
         id="g2188" />
      <g
         id="g2190" />
      <g
         id="g2192" />
      <g
         id="g2194" />
      <g
         id="g2196" />
      <g
         id="g2198" />
      <g
         id="g2200" />
      <g
         id="g2202" />
      <g
         id="g2204" />
      <g
         id="g2206" />
      <g
         id="g2208" />
      <g
         id="g2210" />
      <g
         id="g2212" />
      <g
         id="g2214" />
    </g>
  </g>
</svg>
