<?xml version="1.0" encoding="UTF-8" standalone="no"?>
<!-- Created with Inkscape (http://www.inkscape.org/) -->

<svg
   xmlns:dc="http://purl.org/dc/elements/1.1/"
   xmlns:cc="http://creativecommons.org/ns#"
   xmlns:rdf="http://www.w3.org/1999/02/22-rdf-syntax-ns#"
   xmlns:svg="http://www.w3.org/2000/svg"
   xmlns="http://www.w3.org/2000/svg"
   xmlns:xlink="http://www.w3.org/1999/xlink"
   xmlns:sodipodi="http://sodipodi.sourceforge.net/DTD/sodipodi-0.dtd"
   xmlns:inkscape="http://www.inkscape.org/namespaces/inkscape"
   width="143.63092mm"
   height="143.63092mm"
   viewBox="0 0 143.63092 143.63092"
   version="1.1"
   id="svg31"
   inkscape:version="0.92.1 r15371"
   sodipodi:docname="Leon2.svg">
  <defs
     id="defs25">
    <radialGradient
       inkscape:collect="always"
       xlink:href="#linearGradient43"
       id="radialGradient45"
       cx="32.606884"
       cy="6.1048827"
       fx="32.606884"
       fy="6.1048827"
       r="64.633911"
       gradientUnits="userSpaceOnUse"
       gradientTransform="matrix(-1.4614512,1.8803868,-1.7177367,-1.3350561,90.746839,-47.058306)" />
    <linearGradient
       inkscape:collect="always"
       id="linearGradient43">
      <stop
         style="stop-color:#66ff00;stop-opacity:1;"
         offset="0"
         id="stop39" />
      <stop
         style="stop-color:#00ff00;stop-opacity:0.44"
         offset="1"
         id="stop41" />
    </linearGradient>
  </defs>
  <sodipodi:namedview
     id="base"
     pagecolor="#ffffff"
     bordercolor="#666666"
     borderopacity="1.0"
     inkscape:pageopacity="0.0"
     inkscape:pageshadow="2"
     inkscape:zoom="0.49497475"
     inkscape:cx="209.75943"
     inkscape:cy="115.06841"
     inkscape:document-units="px"
     inkscape:current-layer="layer1"
     showgrid="false"
     inkscape:snap-object-midpoints="true"
     inkscape:snap-center="true"
     inkscape:pagecheckerboard="true"
     fit-margin-top="0"
     fit-margin-left="0"
     fit-margin-right="0"
     fit-margin-bottom="0"
     borderlayer="true"
     inkscape:window-width="667"
     inkscape:window-height="729"
     inkscape:window-x="683"
     inkscape:window-y="0"
     inkscape:window-maximized="0" />
  <metadata
     id="metadata28">
    <rdf:RDF>
      <cc:Work
         rdf:about="">
        <dc:format>image/svg+xml</dc:format>
        <dc:type
           rdf:resource="http://purl.org/dc/dcmitype/StillImage" />
        <dc:title></dc:title>
      </cc:Work>
    </rdf:RDF>
  </metadata>
  <g
     inkscape:label="Capa 1"
     inkscape:groupmode="layer"
     id="layer1"
     transform="translate(5.4495665e-7,16.720213)">
    <rect
       style="fill:#00112b;stroke-width:0.28221554"
       id="rect33"
       width="143.63092"
       height="143.63092"
       x="-5.4495666e-007"
       y="-16.720213"
       ry="20.641569" />
    <rect
       ry="13.318157"
       y="-9.5386639"
       x="7.1815486"
       height="129.26782"
       width="129.26782"
       id="rect41"
       style="fill:url(#radialGradient45);fill-opacity:1;stroke-width:0.25399399"
       rx="12.82894" />
    <g
       id="g2341"
       transform="matrix(0.1993923,0,0,0.20925023,20.160322,2.44553)">
      <path
         id="path2253"
         d="m 114.118,47.883 c 28.661,18.264 -8.417,94.413 -40.008,76.416 L 47.139,79.591 C 34.485,56.292 54.949,28.914 80.88,34.356 c 19.926,4.186 33.238,13.527 33.238,13.527 z"
         style="fill:#e2c688"
         inkscape:connector-curvature="0" />
      <path
         id="path2255"
         d="m 431.121,34.356 c 25.942,-5.442 46.395,21.936 33.753,45.235 L 437.903,124.3 c -52.324,4.043 -82.651,-35.854 -40.785,-77.72 -10e-4,-10e-4 14.076,-8.038 34.003,-12.224 z"
         style="fill:#ffe8b0"
         inkscape:connector-curvature="0" />
      <path
         id="path2257"
         d="m 492.359,289.558 c 6.818,35.87 -11.231,71.859 -43.967,88.03 C 383.278,409.762 277.858,467.256 256.006,512 234.154,467.256 128.734,409.761 63.609,377.587 30.873,361.416 12.825,325.427 19.642,289.557 31.256,228.51 52.115,171.877 74.11,124.298 87.649,95.031 101.619,69.196 114.118,47.882 c 0.526,-0.885 1.041,-1.77 1.555,-2.643 C 137.609,8.186 182.245,-8.774 223.222,4.466 l 32.784,10.585 32.772,-10.585 c 40.977,-13.24 85.626,3.72 107.549,40.774 0.263,0.443 0.526,0.885 0.789,1.34 12.702,21.565 26.971,47.854 40.785,77.72 21.997,47.578 42.856,104.211 54.458,165.258 z"
         style="fill:#f7b239"
         inkscape:connector-curvature="0" />
      <g
         id="g2263">
        <polygon
           id="polygon2259"
           points="256.004,15.051 256.005,15.051 256,15.05 "
           style="fill:#e09b2d" />
        <path
           id="path2261"
           d="m 135.585,377.588 c -20.49,-16.171 -31.785,-52.16 -27.519,-88.03 7.268,-61.047 20.325,-117.68 34.091,-165.259 8.474,-29.267 17.217,-55.102 25.041,-76.416 0.329,-0.885 0.652,-1.77 0.974,-2.643 9.021,-24.345 24.173,-40.013 40.781,-44.145 -36.691,-5.675 -73.871,11.36 -93.279,44.145 -0.514,0.873 -1.029,1.758 -1.555,2.643 C 101.62,69.197 87.65,95.031 74.111,124.299 52.116,171.878 31.256,228.511 19.643,289.558 c -6.818,35.87 11.231,71.859 43.967,88.03 65.118,32.171 170.525,89.657 192.39,134.4 -13.685,-44.742 -79.657,-102.229 -120.415,-134.4 z"
           style="fill:#e09b2d"
           inkscape:connector-curvature="0" />
      </g>
      <path
         id="path2265"
         d="m 386.998,188.766 -20.931,-46.921 c -3.863,-8.647 -11.327,-15.166 -20.429,-17.821 -2.99,-0.873 -6.028,-1.292 -9.03,-1.292 -10.418,0 -20.429,5.059 -26.552,13.946 l -4.667,6.768 c -7.944,11.519 -21.042,18.397 -35.035,18.397 h -11.297 -11.286 c -13.993,0 -27.091,-6.879 -35.035,-18.397 l -4.667,-6.768 c -7.894,-11.446 -22.235,-16.553 -35.583,-12.654 -4.557,1.328 -8.695,3.624 -12.176,6.662 -3.492,3.038 -6.327,6.841 -8.253,11.159 l -20.931,46.921 c -6.651,14.908 -6.069,31.526 0.66,45.509 5.755,11.959 20.497,16.455 31.923,9.702 l 17.364,-10.263 -4.988,26.086 c -5.43,28.335 4.629,57.423 26.397,76.356 0,7.882 2.057,15.274 5.657,21.684 7.595,13.527 22.079,22.653 38.692,22.653 h 24.459 c 16.613,0 31.097,-9.126 38.692,-22.653 3.6,-6.411 5.657,-13.802 5.657,-21.684 17.869,-15.537 27.844,-37.927 27.844,-61.118 0,-5.059 -0.478,-10.155 -1.447,-15.238 l -4.999,-26.086 17.379,10.268 c 11.246,6.644 25.905,2.479 31.686,-9.235 3.673,-7.444 5.596,-15.656 5.596,-23.974 0.001,-7.403 -1.53,-14.902 -4.7,-22.007 z"
         style="fill:#ffe8b0"
         inkscape:connector-curvature="0" />
      <path
         id="path2267"
         d="m 277.571,255.662 c 9.257,0 13.791,11.291 7.105,17.702 l -25.62,24.567 -25.619,-24.567 c -6.686,-6.411 -2.141,-17.702 7.117,-17.702 z"
         style="fill:#4d4d4d"
         inkscape:connector-curvature="0" />
      <path
         id="path2269"
         d="m 315.641,336.156 c 0,7.882 -2.057,4.653 -5.657,11.064 L 272.82,329.869 c -8.724,-4.073 -18.804,-4.073 -27.527,10e-4 l -37.153,17.35 c -3.6,-6.411 -5.657,-3.182 -5.657,-11.064 l 56.573,-38.226 z"
         style="fill:#e2c688"
         inkscape:connector-curvature="0" />
      <g
         id="g2275">
        <path
           id="path2271"
           d="m 204.009,213.635 c -1.194,0 -2.409,-0.24 -3.573,-0.746 l -15.263,-6.638 c -4.544,-1.976 -6.624,-7.261 -4.649,-11.804 1.975,-4.543 7.259,-6.626 11.804,-4.648 l 15.263,6.638 c 4.544,1.976 6.624,7.261 4.649,11.804 -1.469,3.377 -4.767,5.394 -8.231,5.394 z"
           style="fill:#4d4d4d"
           inkscape:connector-curvature="0" />
        <path
           id="path2273"
           d="m 311.053,213.635 c -3.464,0 -6.761,-2.017 -8.231,-5.395 -1.975,-4.543 0.105,-9.828 4.649,-11.804 l 15.263,-6.638 c 4.543,-1.977 9.828,0.105 11.804,4.648 1.975,4.543 -0.105,9.828 -4.649,11.804 l -15.263,6.638 c -1.165,0.508 -2.379,0.747 -3.573,0.747 z"
           style="fill:#4d4d4d"
           inkscape:connector-curvature="0" />
      </g>
      <g
         id="g2277" />
      <g
         id="g2279" />
      <g
         id="g2281" />
      <g
         id="g2283" />
      <g
         id="g2285" />
      <g
         id="g2287" />
      <g
         id="g2289" />
      <g
         id="g2291" />
      <g
         id="g2293" />
      <g
         id="g2295" />
      <g
         id="g2297" />
      <g
         id="g2299" />
      <g
         id="g2301" />
      <g
         id="g2303" />
      <g
         id="g2305" />
    </g>
  </g>
</svg>
