<?xml version="1.0" encoding="UTF-8" standalone="no"?>
<!-- Created with Inkscape (http://www.inkscape.org/) -->

<svg
   xmlns:dc="http://purl.org/dc/elements/1.1/"
   xmlns:cc="http://creativecommons.org/ns#"
   xmlns:rdf="http://www.w3.org/1999/02/22-rdf-syntax-ns#"
   xmlns:svg="http://www.w3.org/2000/svg"
   xmlns="http://www.w3.org/2000/svg"
   xmlns:xlink="http://www.w3.org/1999/xlink"
   xmlns:sodipodi="http://sodipodi.sourceforge.net/DTD/sodipodi-0.dtd"
   xmlns:inkscape="http://www.inkscape.org/namespaces/inkscape"
   width="143.63092mm"
   height="143.63092mm"
   viewBox="0 0 143.63092 143.63092"
   version="1.1"
   id="svg31"
   inkscape:version="0.92.1 r15371"
   sodipodi:docname="Lobo.svg">
  <defs
     id="defs25">
    <radialGradient
       inkscape:collect="always"
       xlink:href="#linearGradient43"
       id="radialGradient45"
       cx="32.606884"
       cy="6.1048827"
       fx="32.606884"
       fy="6.1048827"
       r="64.633911"
       gradientUnits="userSpaceOnUse"
       gradientTransform="matrix(-1.4614512,1.8803868,-1.7177367,-1.3350561,90.746839,-47.058306)" />
    <linearGradient
       inkscape:collect="always"
       id="linearGradient43">
      <stop
         style="stop-color:#66ff00;stop-opacity:1;"
         offset="0"
         id="stop39" />
      <stop
         style="stop-color:#00ff00;stop-opacity:0.44"
         offset="1"
         id="stop41" />
    </linearGradient>
  </defs>
  <sodipodi:namedview
     id="base"
     pagecolor="#ffffff"
     bordercolor="#666666"
     borderopacity="1.0"
     inkscape:pageopacity="0.0"
     inkscape:pageshadow="2"
     inkscape:zoom="0.49497475"
     inkscape:cx="209.75943"
     inkscape:cy="115.06841"
     inkscape:document-units="px"
     inkscape:current-layer="layer1"
     showgrid="false"
     inkscape:snap-object-midpoints="true"
     inkscape:snap-center="true"
     inkscape:pagecheckerboard="true"
     fit-margin-top="0"
     fit-margin-left="0"
     fit-margin-right="0"
     fit-margin-bottom="0"
     borderlayer="true"
     inkscape:window-width="667"
     inkscape:window-height="729"
     inkscape:window-x="683"
     inkscape:window-y="0"
     inkscape:window-maximized="0" />
  <metadata
     id="metadata28">
    <rdf:RDF>
      <cc:Work
         rdf:about="">
        <dc:format>image/svg+xml</dc:format>
        <dc:type
           rdf:resource="http://purl.org/dc/dcmitype/StillImage" />
        <dc:title></dc:title>
      </cc:Work>
    </rdf:RDF>
  </metadata>
  <g
     inkscape:label="Capa 1"
     inkscape:groupmode="layer"
     id="layer1"
     transform="translate(5.4495665e-7,16.720213)">
    <rect
       style="fill:#00112b;stroke-width:0.28221554"
       id="rect33"
       width="143.63092"
       height="143.63092"
       x="-5.4495666e-007"
       y="-16.720213"
       ry="20.641569" />
    <rect
       ry="13.318157"
       y="-9.5386639"
       x="7.1815486"
       height="129.26782"
       width="129.26782"
       id="rect41"
       style="fill:url(#radialGradient45);fill-opacity:1;stroke-width:0.25399399"
       rx="12.82894" />
    <g
       id="g2686"
       transform="matrix(0.31664282,0,0,0.31771498,17.9466,1.0439863)">
      <g
         id="g2623">
        <path
           id="path2607"
           d="m 340.25,170.12 c 0,93.96 -76.17,170.13 -170.13,170.13 -4.08,0 -8.12,-0.14 -12.13,-0.43 C 78.19,334.2 13.58,273.54 1.89,195.56 0.64,187.26 0,178.77 0,170.12 0,76.17 76.16,0 170.12,0 c 39.72,0 76.26,13.61 105.22,36.44 10.744,8.466 15.668,28.77 24.099,39.549 6.298,8.052 16.666,6.116 21.451,15.241 12.36,23.58 19.36,50.41 19.36,78.89 z"
           style="fill:#efe373"
           inkscape:connector-curvature="0" />
        <path
           id="path2609"
           d="m 300.337,37.53 13.965,16.992 -8.973,8.973 c -1.69,1.69 -1.69,4.434 0.007,6.131 0.841,0.841 1.959,1.266 3.062,1.266 1.11,0.007 2.213,-0.417 3.062,-1.266 l 8.372,-8.372 6.003,7.305 c 3.154,3.833 3.451,9.263 0.742,13.414 l -30.321,46.415 v 0.014 l -29.889,45.757 -22.444,34.365 -28.511,43.657 -0.007,0.007 -37.3,57.099 -9.199,14.093 -10.918,16.447 c -20.11,-1.428 -39.258,-6.336 -56.83,-14.149 -2.093,-0.919 -4.151,-1.902 -6.194,-2.913 l -0.58,-0.269 0.014,-0.014 C 45.692,298.242 10.245,251.34 1.887,195.563 L 18.638,184.101 185.433,70.042 c 5.402,-3.931 11.823,-5.954 18.3,-5.954 4.335,0.007 8.69,0.912 12.778,2.751 11.787,5.325 25.64,2.786 34.79,-6.364 L 275.336,36.44 c 3.33,-3.33 7.672,-4.971 12,-4.971 4.82,10e-4 9.636,2.044 13.001,6.061 z"
           style="fill:#999999"
           inkscape:connector-curvature="0" />
        <path
           id="path2611"
           d="M 147.291,125.733 80.204,165.525 119.725,57.697 c 0,0 -0.005,0.011 0.006,0.016 l 7.195,8.612 c 12.285,14.726 19.385,33.009 20.315,52.027 0.121,2.442 0.14,4.908 0.05,7.381 z"
           style="fill:#999999"
           inkscape:connector-curvature="0" />
        <path
           id="path2613"
           d="m 268.39,43.39 v 0 c 10.22,5.395 22.702,3.981 31.456,-3.564 l 1.404,-1.21 -5.579,-6.643 c -3.894,-4.636 -10.924,-4.942 -15.205,-0.661 z"
           style="fill:#666666"
           inkscape:connector-curvature="0" />
        <path
           id="path2615"
           d="m 190.832,103.667 v 0 c 8.03,-8.566 18.403,-14.58 29.827,-17.293 l 1.925,-0.457 v 0 c -3.912,8.974 -12.249,15.234 -21.958,16.486 z"
           style="fill:#666666"
           inkscape:connector-curvature="0" />
        <polygon
           id="polygon2617"
           points="215.408,252.18 243.928,208.52 228.128,264 "
           style="fill:#999999" />
        <polygon
           id="polygon2619"
           points="183.569,300.93 215.408,252.19 199.128,316 "
           style="fill:#999999" />
        <polygon
           id="polygon2621"
           points="243.928,208.52 266.368,174.16 259.128,212 "
           style="fill:#999999" />
      </g>
      <g
         id="g2625" />
      <g
         id="g2627" />
      <g
         id="g2629" />
      <g
         id="g2631" />
      <g
         id="g2633" />
      <g
         id="g2635" />
      <g
         id="g2637" />
      <g
         id="g2639" />
      <g
         id="g2641" />
      <g
         id="g2643" />
      <g
         id="g2645" />
      <g
         id="g2647" />
      <g
         id="g2649" />
      <g
         id="g2651" />
      <g
         id="g2653" />
    </g>
  </g>
</svg>
