<?xml version="1.0" encoding="UTF-8" standalone="no"?>
<!-- Created with Inkscape (http://www.inkscape.org/) -->

<svg
   xmlns:dc="http://purl.org/dc/elements/1.1/"
   xmlns:cc="http://creativecommons.org/ns#"
   xmlns:rdf="http://www.w3.org/1999/02/22-rdf-syntax-ns#"
   xmlns:svg="http://www.w3.org/2000/svg"
   xmlns="http://www.w3.org/2000/svg"
   xmlns:xlink="http://www.w3.org/1999/xlink"
   xmlns:sodipodi="http://sodipodi.sourceforge.net/DTD/sodipodi-0.dtd"
   xmlns:inkscape="http://www.inkscape.org/namespaces/inkscape"
   width="143.63092mm"
   height="143.63092mm"
   viewBox="0 0 143.63092 143.63092"
   version="1.1"
   id="svg31"
   inkscape:version="0.92.1 r15371"
   sodipodi:docname="Lobo2.svg">
  <defs
     id="defs25">
    <radialGradient
       inkscape:collect="always"
       xlink:href="#linearGradient43"
       id="radialGradient45"
       cx="32.606884"
       cy="6.1048827"
       fx="32.606884"
       fy="6.1048827"
       r="64.633911"
       gradientUnits="userSpaceOnUse"
       gradientTransform="matrix(-1.4614512,1.8803868,-1.7177367,-1.3350561,90.746839,-47.058306)" />
    <linearGradient
       inkscape:collect="always"
       id="linearGradient43">
      <stop
         style="stop-color:#66ff00;stop-opacity:1;"
         offset="0"
         id="stop39" />
      <stop
         style="stop-color:#00ff00;stop-opacity:0.44"
         offset="1"
         id="stop41" />
    </linearGradient>
  </defs>
  <sodipodi:namedview
     id="base"
     pagecolor="#ffffff"
     bordercolor="#666666"
     borderopacity="1.0"
     inkscape:pageopacity="0.0"
     inkscape:pageshadow="2"
     inkscape:zoom="0.49497475"
     inkscape:cx="209.75943"
     inkscape:cy="115.06841"
     inkscape:document-units="px"
     inkscape:current-layer="layer1"
     showgrid="false"
     inkscape:snap-object-midpoints="true"
     inkscape:snap-center="true"
     inkscape:pagecheckerboard="true"
     fit-margin-top="0"
     fit-margin-left="0"
     fit-margin-right="0"
     fit-margin-bottom="0"
     borderlayer="true"
     inkscape:window-width="667"
     inkscape:window-height="729"
     inkscape:window-x="683"
     inkscape:window-y="0"
     inkscape:window-maximized="0" />
  <metadata
     id="metadata28">
    <rdf:RDF>
      <cc:Work
         rdf:about="">
        <dc:format>image/svg+xml</dc:format>
        <dc:type
           rdf:resource="http://purl.org/dc/dcmitype/StillImage" />
        <dc:title></dc:title>
      </cc:Work>
    </rdf:RDF>
  </metadata>
  <g
     inkscape:label="Capa 1"
     inkscape:groupmode="layer"
     id="layer1"
     transform="translate(5.4495665e-7,16.720213)">
    <rect
       style="fill:#00112b;stroke-width:0.28221554"
       id="rect33"
       width="143.63092"
       height="143.63092"
       x="-5.4495666e-007"
       y="-16.720213"
       ry="20.641569" />
    <rect
       ry="13.318157"
       y="-9.5386639"
       x="7.1815486"
       height="129.26782"
       width="129.26782"
       id="rect41"
       style="fill:url(#radialGradient45);fill-opacity:1;stroke-width:0.25399399"
       rx="12.82894" />
    <g
       id="g2767"
       transform="matrix(0.22282258,0,0,0.22477591,14.772823,-2.4477781)">
      <g
         id="g2696">
        <path
           id="path2688"
           d="m 333.541,297.602 0.633,-1.48 c 2.005,-4.691 4.388,-11.476 4.356,-17.166 l -0.006,-1.069 0.835,-0.669 c 5.747,-4.605 11.258,-9.634 16.377,-14.948 l 0.524,-0.545 0.749,-0.109 c 1.046,-0.153 2.376,-0.359 3.893,-0.621 l 3.341,-0.576 -0.818,3.29 c -1.597,6.419 -4.317,16.374 -7.099,25.98 -0.487,1.678 -0.228,3.489 0.708,4.971 l 25.242,39.661 -3.319,2.854 z"
           style="fill:#7c8789"
           inkscape:connector-curvature="0" />
        <path
           id="path2690"
           d="m 355.161,295.842 25.246,39.667 -44.2,-38.517 c 2.178,-5.098 4.567,-12.098 4.534,-18.047 5.452,-4.368 11.025,-9.366 16.587,-15.139 1.062,-0.155 2.411,-0.365 3.948,-0.63 -1.681,6.757 -4.49,16.963 -7.077,25.899 -0.662,2.289 -0.309,4.755 0.962,6.767 z"
           style="fill:#7c8789"
           inkscape:connector-curvature="0" />
        <path
           id="path2692"
           d="m 28.3,342.232 4.61,-26.693 1.059,-0.485 c 18.21,-8.348 43.043,-23.772 57.942,-49.845 l 1.81,-3.168 1.972,3.07 c 3.237,5.041 7.011,9.969 11.218,14.645 l 1.239,1.376 -1.137,1.461 c -5.158,6.628 -21.019,23.655 -56.829,38.569 -1.669,0.693 -1.669,0.693 -7.752,8.936 -2.821,3.805 -6.467,8.767 -10.169,13.817 z"
           style="fill:#7c8789"
           inkscape:connector-curvature="0" />
        <path
           id="path2694"
           d="m 93.832,266.305 c 3.273,5.098 7.077,10.086 11.434,14.929 -5.043,6.48 -20.568,23.156 -55.933,37.886 -2.234,0.929 -2.234,0.929 -8.681,9.665 -2.82,3.804 -6.469,8.769 -10.174,13.823 l 4.412,-25.545 c 18.766,-8.602 43.813,-24.284 58.942,-50.758 z"
           style="fill:#7c8789"
           inkscape:connector-curvature="0" />
      </g>
      <g
         id="g2702">
        <path
           id="path2698"
           d="m 130.593,342.627 16.046,-40.131 c 1.118,-2.798 -0.013,-6.042 -2.63,-7.545 -2.072,-1.219 -50.011,-29.937 -50.011,-74.34 0,-3.354 -2.728,-6.082 -6.082,-6.082 -3.354,0 -6.082,2.728 -6.082,6.082 0,8.707 1.592,17.509 4.733,26.162 l 0.286,0.788 -0.309,0.78 c -13.565,34.249 -47.31,51.786 -66.217,59.191 l -4.765,1.867 1.905,-4.748 c 2.997,-7.471 7.841,-14.368 12.971,-21.669 6.591,-9.374 14.061,-19.997 18.979,-33.785 22.101,-62.132 87.164,-75.581 102.084,-75.581 14.041,0 29.573,1.059 47.559,2.285 l 0.133,0.009 c 22.038,1.517 47.014,3.236 75.057,3.236 20.826,0 45.356,-7.176 71.325,-14.773 23.083,-6.744 46.954,-13.718 70,-16.276 l 2.321,-0.258 0.13,2.331 c 0.085,1.504 0.712,2.914 1.766,3.967 1.146,1.153 2.669,1.786 4.297,1.786 1.628,0 3.152,-0.633 4.292,-1.779 l 8.852,-8.852 7.58,-7.556 v 5.006 c 0.064,0.215 0.145,0.439 0.242,0.668 l 0.069,0.142 c 0.238,0.524 0.562,1.016 0.963,1.466 l 0.155,0.184 24.846,24.857 v 15.17 c 0,1.605 0.648,3.168 1.779,4.291 l 21.298,21.299 -15.117,10.077 c -0.741,0.499 -1.61,0.765 -2.507,0.765 -0.715,0 -1.434,-0.176 -2.077,-0.506 -17.045,-8.933 -29.412,-14.731 -34.835,-16.333 -0.554,-0.161 -1.132,-0.244 -1.711,-0.244 -2.685,0 -5.09,1.796 -5.849,4.367 -0.938,3.219 0.91,6.613 4.121,7.559 0.53,0.148 1.178,0.367 2.136,0.723 l 4.284,1.592 -3.907,2.371 c -36.657,22.253 -84.124,28.523 -86.127,28.778 -1.427,0.171 -2.736,0.837 -3.703,1.878 -26.902,28.785 -54.504,37.996 -64.895,41.464 -1.558,0.511 -2.687,0.892 -3.624,1.25 -1.805,0.692 -3.183,2.226 -3.684,4.1 -3.829,14.266 -14.392,26.735 -23.166,36.004 l -5.803,6.125 13.862,-55.419 0.294,-0.373 c 3.947,-5.003 16.902,-23.137 17.906,-46.421 0.145,-3.352 -2.459,-6.197 -5.806,-6.343 l -0.232,-0.004 c -3.284,0 -5.967,2.552 -6.11,5.809 -0.775,17.905 -10.24,32.574 -14.273,38.051 l -0.561,0.761 -0.938,0.121 c -9.887,1.275 -21.592,1.978 -32.957,1.978 -9.715,0 -18.84,-0.5 -26.386,-1.446 l -2.237,-0.28 0.323,-2.232 c 0.477,-3.293 0.718,-6.706 0.718,-10.144 0,-21.538 -18.085,-46.75 -18.854,-47.813 -1.14,-1.565 -2.985,-2.502 -4.931,-2.502 -1.288,0 -2.522,0.401 -3.569,1.16 -2.708,1.972 -3.312,5.786 -1.344,8.501 4.597,6.305 16.533,25.911 16.533,40.655 0,19.57 -8.574,30.604 -18.502,43.378 -7.932,10.212 -16.923,21.787 -20.086,38.423 l -0.701,3.689 z"
           style="fill:#9ea8aa"
           inkscape:connector-curvature="0" />
        <path
           id="path2700"
           d="m 443.109,144.466 c 0.332,0.73 0.774,1.404 1.327,2.024 0.055,0.066 0.111,0.133 0.166,0.199 0.055,0.055 0.111,0.111 0.166,0.165 l 24.107,24.119 v 14.254 c 0,2.201 0.874,4.313 2.433,5.861 l 19.385,19.385 -12.872,8.581 c -0.708,0.475 -1.592,0.52 -2.344,0.133 -12.153,-6.37 -28.143,-14.398 -35.221,-16.488 -4.401,-1.283 -9.013,1.227 -10.306,5.618 -1.283,4.401 1.227,9.013 5.618,10.306 0.553,0.155 1.216,0.387 1.991,0.675 -36.526,22.172 -84.74,28.409 -85.26,28.475 -1.935,0.232 -3.716,1.139 -5.043,2.566 -26.54,28.398 -53.766,37.466 -64.006,40.883 -1.515,0.498 -2.698,0.896 -3.682,1.272 -2.477,0.951 -4.346,3.03 -5.032,5.596 -3.583,13.347 -13.414,25.312 -22.636,35.055 l 11.7,-46.777 c 4.335,-5.496 17.35,-23.864 18.379,-47.695 0.199,-4.578 -3.351,-8.449 -7.918,-8.648 -4.578,-0.177 -8.449,3.351 -8.648,7.918 -0.752,17.35 -9.919,31.505 -13.845,36.835 -18.777,2.422 -42.287,2.599 -58.786,0.531 0.476,-3.284 0.741,-6.757 0.741,-10.461 0,-22.349 -18.49,-48.026 -19.275,-49.11 -2.698,-3.705 -7.885,-4.523 -11.589,-1.836 -3.705,2.698 -4.523,7.885 -1.836,11.589 4.49,6.159 16.112,25.235 16.112,39.357 0,18.81 -8.36,29.57 -18.036,42.022 -8.194,10.55 -17.251,22.216 -20.513,39.368 l -5.142,-4.28 15.448,-38.638 c 1.537,-3.848 0,-8.227 -3.583,-10.284 -0.487,-0.288 -48.9,-28.542 -48.9,-72.421 0,-4.578 -3.716,-8.294 -8.294,-8.294 -4.578,0 -8.294,3.716 -8.294,8.294 0,9.057 1.659,18.08 4.866,26.916 -13.259,33.475 -46.39,50.669 -64.968,57.946 2.897,-7.221 7.586,-13.9 12.728,-21.221 6.679,-9.499 14.243,-20.27 19.253,-34.314 21.674,-60.931 85.392,-74.113 100,-74.113 14,0 29.537,1.062 47.54,2.289 22.183,1.526 47.319,3.24 75.208,3.24 21.143,0 45.826,-7.221 71.945,-14.862 23.09,-6.746 46.81,-13.668 69.623,-16.2 0.111,1.968 0.907,3.904 2.411,5.408 1.615,1.626 3.738,2.433 5.861,2.433 2.123,0 4.246,-0.807 5.861,-2.433 l 8.847,-8.847 3.804,-3.793 c 0,0.033 0.022,0.066 0.033,0.1 0.1,0.376 0.232,0.752 0.387,1.117 0.023,0.062 0.055,0.128 0.089,0.185 z"
           style="fill:#9ea8aa"
           inkscape:connector-curvature="0" />
      </g>
      <path
         id="path2704"
         d="m 509.569,205.906 c 1.758,1.758 2.643,4.202 2.389,6.679 -0.243,2.477 -1.581,4.7 -3.649,6.082 l -21.287,14.188 c -3.163,2.112 -6.812,3.175 -10.483,3.175 -2.997,0 -6.005,-0.709 -8.747,-2.145 -4.512,-2.366 -8.703,-4.512 -12.507,-6.403 -24.373,17.439 -55.081,27.093 -76.203,32.069 -0.232,1.36 -0.553,2.787 -0.907,4.313 -0.708,3.074 -1.78,7.254 -3.163,12.407 -1.415,5.242 -2.897,10.472 -3.848,13.812 l 57.481,90.324 h 13.137 c 4.578,0 8.294,3.716 8.294,8.294 0,4.578 -3.716,8.294 -8.294,8.294 h -17.693 c -2.831,0 -5.474,-1.449 -7,-3.837 l -5.242,-8.249 -91.253,-79.53 c -2.897,-2.511 -3.682,-6.69 -1.902,-10.086 0.332,-0.651 0.664,-1.327 0.984,-2.013 -13.215,7.564 -24.24,11.357 -30.444,13.425 -6.591,19.12 -21.553,34.203 -32.688,45.439 -3.904,3.937 -8.703,8.779 -9.941,10.937 v 17.328 h 9.4 c 4.578,0 8.294,3.716 8.294,8.294 0,4.578 -3.716,8.294 -8.294,8.294 H 238.31 c -4.578,0 -8.294,-3.716 -8.294,-8.294 v -35.387 c 0,-0.675 0.088,-1.349 0.243,-2.013 l 14.785,-59.129 c -8.46,0.763 -17.373,1.161 -26.064,1.161 -11.125,0 -21.851,-0.629 -30.687,-1.902 -4.269,10.129 -10.494,18.158 -16.289,25.622 -9.654,12.418 -17.992,23.189 -18.268,41.977 l 25.655,21.376 h 14.685 c 4.578,0 8.294,3.716 8.294,8.294 0,4.578 -3.716,8.294 -8.294,8.294 h -17.693 c -1.935,0 -3.815,-0.686 -5.308,-1.924 l -53.08,-44.233 c -2.765,-2.3 -3.727,-6.115 -2.389,-9.455 l 15.15,-37.864 c -3.561,-2.444 -8.371,-6.005 -13.613,-10.583 -7.354,8.957 -24.638,25.788 -59.383,40.639 -4.346,5.782 -19.474,26.418 -29.791,40.528 l 3.152,6.303 h 12.562 c 4.578,0 8.294,3.716 8.294,8.294 0,4.578 -3.716,8.294 -8.294,8.294 H 25.988 c -3.141,0 -6.016,-1.78 -7.42,-4.589 L 9.721,374.713 C 8.936,373.132 8.67,371.34 8.969,369.593 l 7.874,-45.505 c -3.738,1.195 -6.126,1.793 -6.613,1.902 -0.641,0.155 -1.294,0.232 -1.935,0.232 -1.924,0 -3.804,-0.664 -5.308,-1.924 -2.013,-1.681 -3.118,-4.213 -2.975,-6.823 0.962,-17.572 9.964,-30.377 18.666,-42.763 6.37,-9.057 12.949,-18.423 17.185,-30.344 10.516,-29.548 31.372,-53.334 60.301,-68.805 24.151,-12.916 46.755,-16.322 55.336,-16.322 14.564,0 31.129,1.128 48.668,2.333 21.918,1.493 46.755,3.196 74.08,3.196 18.766,0 42.342,-6.889 67.29,-14.199 28.895,-8.449 58.731,-17.151 87.903,-17.804 l 15.327,-15.327 c 2.366,-2.378 5.938,-3.085 9.035,-1.802 3.096,1.283 5.12,4.313 5.12,7.663 v 14.254 l 24.107,24.118 c 1.559,1.548 2.433,3.66 2.433,5.861 v 14.254 z m -31.749,13.147 12.872,-8.581 -19.385,-19.385 c -1.559,-1.547 -2.433,-3.66 -2.433,-5.861 v -14.254 l -24.107,-24.119 c -0.055,-0.055 -0.111,-0.111 -0.166,-0.165 -0.055,-0.067 -0.111,-0.134 -0.166,-0.199 -0.553,-0.619 -0.995,-1.294 -1.327,-2.024 -0.033,-0.055 -0.066,-0.122 -0.088,-0.188 -0.155,-0.365 -0.288,-0.741 -0.387,-1.117 -0.011,-0.033 -0.033,-0.066 -0.033,-0.1 l -3.804,3.793 -8.847,8.847 c -1.615,1.626 -3.738,2.433 -5.861,2.433 -2.123,0 -4.246,-0.807 -5.861,-2.433 -1.504,-1.503 -2.3,-3.438 -2.411,-5.408 -22.813,2.532 -46.533,9.455 -69.623,16.2 -26.12,7.641 -50.802,14.862 -71.945,14.862 -27.889,0 -53.025,-1.714 -75.208,-3.24 -18.003,-1.227 -33.54,-2.289 -47.54,-2.289 -14.608,0 -78.326,13.182 -100,74.113 -5.009,14.044 -12.573,24.815 -19.253,34.314 -5.142,7.321 -9.831,14 -12.728,21.221 18.578,-7.276 51.709,-24.472 64.968,-57.946 -3.207,-8.836 -4.866,-17.858 -4.866,-26.916 0,-4.578 3.716,-8.294 8.294,-8.294 4.578,0 8.294,3.716 8.294,8.294 0,43.879 48.413,72.133 48.9,72.421 3.583,2.057 5.12,6.436 3.583,10.284 l -15.448,38.638 5.142,4.28 c 3.262,-17.151 12.319,-28.818 20.513,-39.368 9.676,-12.452 18.036,-23.211 18.036,-42.022 0,-14.121 -11.622,-33.197 -16.112,-39.357 -2.687,-3.705 -1.869,-8.891 1.836,-11.589 3.705,-2.687 8.891,-1.869 11.589,1.836 0.785,1.084 19.275,26.761 19.275,49.11 0,3.705 -0.265,7.177 -0.741,10.461 16.499,2.068 40.009,1.891 58.786,-0.531 3.926,-5.33 13.093,-19.485 13.845,-36.835 0.199,-4.567 4.069,-8.095 8.648,-7.918 4.567,0.2 8.117,4.071 7.918,8.648 -1.028,23.831 -14.044,42.199 -18.379,47.695 l -11.7,46.777 c 9.223,-9.742 19.053,-21.707 22.636,-35.055 0.686,-2.566 2.554,-4.645 5.032,-5.595 0.984,-0.376 2.167,-0.774 3.682,-1.272 10.24,-3.417 37.466,-12.485 64.006,-40.883 1.327,-1.427 3.107,-2.333 5.043,-2.566 0.52,-0.066 48.734,-6.303 85.26,-28.475 -0.774,-0.288 -1.438,-0.52 -1.991,-0.675 -4.39,-1.294 -6.9,-5.905 -5.618,-10.306 1.294,-4.39 5.905,-6.9 10.306,-5.618 7.077,2.091 23.068,10.118 35.221,16.488 0.751,0.39 1.636,0.346 2.343,-0.131 z m -97.413,116.456 -25.246,-39.667 c -1.272,-2.013 -1.626,-4.479 -0.962,-6.768 2.588,-8.935 5.396,-19.142 7.077,-25.899 -1.537,0.265 -2.886,0.475 -3.948,0.63 -5.562,5.772 -11.136,10.771 -16.587,15.139 0.033,5.949 -2.355,12.949 -4.534,18.047 z M 105.265,281.234 c -4.357,-4.842 -8.161,-9.831 -11.434,-14.929 -15.128,26.474 -40.175,42.155 -58.941,50.758 l -4.412,25.545 c 3.705,-5.054 7.354,-10.019 10.174,-13.823 6.447,-8.736 6.447,-8.736 8.681,-9.665 35.364,-14.73 50.89,-31.405 55.932,-37.886 z"
         style="fill:#3d484a"
         inkscape:connector-curvature="0" />
      <g
         id="g2706" />
      <g
         id="g2708" />
      <g
         id="g2710" />
      <g
         id="g2712" />
      <g
         id="g2714" />
      <g
         id="g2716" />
      <g
         id="g2718" />
      <g
         id="g2720" />
      <g
         id="g2722" />
      <g
         id="g2724" />
      <g
         id="g2726" />
      <g
         id="g2728" />
      <g
         id="g2730" />
      <g
         id="g2732" />
      <g
         id="g2734" />
    </g>
  </g>
</svg>
