<?xml version="1.0" encoding="UTF-8" standalone="no"?>
<!-- Created with Inkscape (http://www.inkscape.org/) -->

<svg
   xmlns:dc="http://purl.org/dc/elements/1.1/"
   xmlns:cc="http://creativecommons.org/ns#"
   xmlns:rdf="http://www.w3.org/1999/02/22-rdf-syntax-ns#"
   xmlns:svg="http://www.w3.org/2000/svg"
   xmlns="http://www.w3.org/2000/svg"
   xmlns:xlink="http://www.w3.org/1999/xlink"
   xmlns:sodipodi="http://sodipodi.sourceforge.net/DTD/sodipodi-0.dtd"
   xmlns:inkscape="http://www.inkscape.org/namespaces/inkscape"
   width="143.63092mm"
   height="143.63092mm"
   viewBox="0 0 143.63092 143.63092"
   version="1.1"
   id="svg31"
   inkscape:version="0.92.1 r15371"
   sodipodi:docname="Monkey.svg">
  <defs
     id="defs25">
    <radialGradient
       inkscape:collect="always"
       xlink:href="#linearGradient43"
       id="radialGradient45"
       cx="32.606884"
       cy="6.1048827"
       fx="32.606884"
       fy="6.1048827"
       r="64.633911"
       gradientUnits="userSpaceOnUse"
       gradientTransform="matrix(-1.4614512,1.8803868,-1.7177367,-1.3350561,90.746839,-47.058306)" />
    <linearGradient
       inkscape:collect="always"
       id="linearGradient43">
      <stop
         style="stop-color:#66ff00;stop-opacity:1;"
         offset="0"
         id="stop39" />
      <stop
         style="stop-color:#00ff00;stop-opacity:0.44"
         offset="1"
         id="stop41" />
    </linearGradient>
  </defs>
  <sodipodi:namedview
     id="base"
     pagecolor="#ffffff"
     bordercolor="#666666"
     borderopacity="1.0"
     inkscape:pageopacity="0.0"
     inkscape:pageshadow="2"
     inkscape:zoom="0.49497475"
     inkscape:cx="209.75943"
     inkscape:cy="115.06841"
     inkscape:document-units="px"
     inkscape:current-layer="layer1"
     showgrid="false"
     inkscape:snap-object-midpoints="false"
     inkscape:snap-center="true"
     inkscape:pagecheckerboard="true"
     fit-margin-top="0"
     fit-margin-left="0"
     fit-margin-right="0"
     fit-margin-bottom="0"
     borderlayer="true"
     inkscape:window-width="667"
     inkscape:window-height="729"
     inkscape:window-x="683"
     inkscape:window-y="0"
     inkscape:window-maximized="0" />
  <metadata
     id="metadata28">
    <rdf:RDF>
      <cc:Work
         rdf:about="">
        <dc:format>image/svg+xml</dc:format>
        <dc:type
           rdf:resource="http://purl.org/dc/dcmitype/StillImage" />
        <dc:title></dc:title>
      </cc:Work>
    </rdf:RDF>
  </metadata>
  <g
     inkscape:label="Capa 1"
     inkscape:groupmode="layer"
     id="layer1"
     transform="translate(5.4495665e-7,16.720213)">
    <rect
       style="fill:#00112b;stroke-width:0.28221554"
       id="rect33"
       width="143.63092"
       height="143.63092"
       x="-5.4495666e-007"
       y="-16.720213"
       ry="20.641569" />
    <rect
       ry="13.318157"
       y="-9.5386639"
       x="7.1815486"
       height="129.26782"
       width="129.26782"
       id="rect41"
       style="fill:url(#radialGradient45);fill-opacity:1;stroke-width:0.25399399"
       rx="12.82894" />
    <g
       id="g123"
       transform="matrix(0.19606501,0,0,0.18419814,15.705379,12.902637)">
      <path
         id="path32"
         d="m 191.194,373.161 h -33.682 c -34.414,0 -62.411,-28.018 -62.411,-62.457 V 94.326 C 95.101,76.287 80.436,61.61 62.409,61.61 44.382,61.61 29.718,76.287 29.718,94.326 v 20.819 c 0,8.213 -6.653,14.871 -14.859,14.871 C 6.653,130.016 0,123.358 0,115.145 V 94.325 C 0,59.886 27.997,31.868 62.411,31.868 c 34.414,0 62.411,28.018 62.411,62.457 v 216.377 c 0,18.039 14.665,32.716 32.692,32.716 h 33.682 c 8.207,0 14.859,6.658 14.859,14.871 -0.001,8.214 -6.654,14.872 -14.861,14.872 z"
         style="fill:#dbcba9"
         inkscape:connector-curvature="0" />
      <path
         id="path34"
         d="m 511.999,123.758 c -0.183,14.648 -9.162,53.902 -77.167,32.62 -0.15,-0.043 -0.227,-0.075 -0.227,-0.075 -3.094,0.13 -3.449,145.742 -141.646,218.015 C 154.773,446.601 127.621,280.914 264.729,215.804 328.444,185.535 363.82,106.92 369.102,94.44 c 0.464,-1.09 0.701,-2.243 0.766,-3.43 0.108,-2.222 0.345,-4.466 0.701,-6.709 5.422,-33.936 37.316,-57.063 71.228,-51.637 14.67,2.33 33.522,19.05 39.892,25.047 1.401,1.316 2.07,3.214 1.811,5.113 -0.852,6.278 -2.749,20.679 -2.975,25.522 -0.032,0.723 0.13,1.445 0.485,2.071 8.256,14.356 31.129,22.543 30.989,33.341 z"
         style="fill:#f2e5cb"
         inkscape:connector-curvature="0" />
      <path
         id="path36"
         d="m 286.181,229.061 c 62.877,-38.792 101.608,-118.243 106.608,-130.839 2.35,-5.92 0.766,-13.456 0.463,-15.708 -4.272,-31.825 19.762,-46.486 46.214,-50.166 -33.029,-4.029 -63.599,18.794 -68.896,51.95 -0.355,2.243 -0.592,4.488 -0.7,6.709 -0.065,1.187 -0.302,2.341 -0.766,3.43 -5.282,12.48 -40.658,91.096 -104.373,121.364 -115.818,54.999 -114.425,181.762 -27.91,176.237 -60.66,-14.535 -53.982,-109.112 49.36,-162.977 z"
         style="fill:#d1c1a1"
         inkscape:connector-curvature="0" />
      <g
         id="g42">
        <path
           id="path38"
           d="m 423.284,67.998 c 0.738,-2.005 -0.102,-4.239 -1.97,-5.275 -6.495,-3.603 -20.602,-9.504 -20.325,7.392 0.232,14.137 3.397,20.163 6.684,23.24 2.219,2.077 5.863,1.122 6.913,-1.731 z"
           style="fill:#e8c1b5"
           inkscape:connector-curvature="0" />
        <path
           id="path40"
           d="m 511.999,123.758 c -0.183,14.648 -9.162,53.902 -77.167,32.62 -0.15,-0.043 -0.227,-0.075 -0.227,-0.075 0,0 -20.426,-17.734 -12.385,-37.873 8.042,-20.139 22.41,-24.454 25.288,-38.121 2.867,-13.667 14.498,-26.342 35.992,-17.485 -0.852,6.278 -2.749,20.679 -2.975,25.522 -0.032,0.723 0.13,1.445 0.485,2.071 8.256,14.356 31.129,22.543 30.989,33.341 z"
           style="fill:#e8c1b5"
           inkscape:connector-curvature="0" />
      </g>
      <circle
         id="circle44"
         r="8.0839996"
         cy="96.140999"
         cx="462.94199"
         style="fill:#754a3c" />
      <path
         id="path46"
         d="m 377.918,243.897 71.169,169.716 c 0.222,0.529 0.335,1.096 0.335,1.67 v 18.78 c 0,0.972 0.328,1.916 0.931,2.678 l 5.187,6.557 c 1.698,2.146 0.995,5.313 -1.452,6.538 l -17.637,8.825 c -1.461,0.73 -2.383,2.225 -2.383,3.859 v 6.898 c 0,2.383 1.93,4.314 4.311,4.314 h 36.947 c 2.381,0 4.311,-1.932 4.311,-4.314 v -72.216 c 0,-0.419 -0.061,-0.835 -0.181,-1.236 L 416.237,184.414 Z"
         style="fill:#f2e5cb"
         inkscape:connector-curvature="0" />
      <path
         id="path48"
         d="m 457.602,469.418 v -6.897 c 0,-1.634 15.355,-9.075 15.355,-10.047 v -37.19 c 0,-0.574 -0.114,-1.141 -0.335,-1.67 L 400.756,242.972 c -3.729,-8.854 -15.857,-9.91 -21.061,-1.833 l -1.776,2.757 71.169,169.716 c 0.222,0.529 0.335,1.096 0.335,1.67 v 18.78 c 0,0.972 0.328,1.915 0.931,2.678 l 5.187,6.557 c 1.699,2.147 0.995,5.313 -1.454,6.539 l -17.635,8.824 c -1.461,0.73 -2.383,2.224 -2.383,3.857 v 6.905 c 0,2.38 1.93,4.31 4.311,4.31 h 23.534 c -2.381,0 -4.312,-1.932 -4.312,-4.314 z"
         style="fill:#d1c1a1"
         inkscape:connector-curvature="0" />
      <path
         id="path50"
         d="m 284.901,480.13 h 80.352 c 6.564,0 11.886,-5.326 11.886,-11.895 v 0 c 0,-15.279 -12.377,-27.664 -27.643,-27.664 H 301.2 l 64.171,-126.5 c 3.109,-6.127 4.728,-12.901 4.728,-19.773 v 0 c 0,-16.909 -14.811,-29.988 -31.576,-27.884 l -82.446,10.344 c -153.051,15.448 -71.758,176.777 9.772,120.841 22.634,-15.528 27.337,-28.742 27.337,-28.742 l -33.591,76.894 c -5.293,17.066 7.451,34.379 25.306,34.379 z"
         style="fill:#e3d2af"
         inkscape:connector-curvature="0" />
      <g
         id="g56">
        <path
           id="path52"
           d="m 258.036,279.789 c 3.959,-1.025 5.293,-3.939 4.018,-3.779 l -5.978,0.75 C 118.394,290.657 170.359,422.607 241.537,408.243 186.436,396.922 157.783,301.11 258.036,279.789 Z"
           style="fill:#b0a387"
           inkscape:connector-curvature="0" />
        <path
           id="path54"
           d="m 281.153,445.753 22.482,-51.462 c 3.022,-6.916 1.352,-14.984 -4.145,-20.157 -3.384,-3.184 -6.302,-5.276 -6.302,-5.276 l -33.592,76.894 c -5.293,17.064 7.451,34.377 25.305,34.377 h 21.558 c -17.855,10e-4 -30.6,-17.312 -25.306,-34.376 z"
           style="fill:#b0a387"
           inkscape:connector-curvature="0" />
      </g>
      <g
         id="g58" />
      <g
         id="g60" />
      <g
         id="g62" />
      <g
         id="g64" />
      <g
         id="g66" />
      <g
         id="g68" />
      <g
         id="g70" />
      <g
         id="g72" />
      <g
         id="g74" />
      <g
         id="g76" />
      <g
         id="g78" />
      <g
         id="g80" />
      <g
         id="g82" />
      <g
         id="g84" />
      <g
         id="g86" />
    </g>
  </g>
</svg>
