<?xml version="1.0" encoding="UTF-8" standalone="no"?>
<!-- Created with Inkscape (http://www.inkscape.org/) -->

<svg
   xmlns:dc="http://purl.org/dc/elements/1.1/"
   xmlns:cc="http://creativecommons.org/ns#"
   xmlns:rdf="http://www.w3.org/1999/02/22-rdf-syntax-ns#"
   xmlns:svg="http://www.w3.org/2000/svg"
   xmlns="http://www.w3.org/2000/svg"
   xmlns:xlink="http://www.w3.org/1999/xlink"
   xmlns:sodipodi="http://sodipodi.sourceforge.net/DTD/sodipodi-0.dtd"
   xmlns:inkscape="http://www.inkscape.org/namespaces/inkscape"
   width="143.63092mm"
   height="143.63092mm"
   viewBox="0 0 143.63092 143.63092"
   version="1.1"
   id="svg31"
   inkscape:version="0.92.1 r15371"
   sodipodi:docname="Monkey2.svg">
  <defs
     id="defs25">
    <radialGradient
       inkscape:collect="always"
       xlink:href="#linearGradient43"
       id="radialGradient45"
       cx="32.606884"
       cy="6.1048827"
       fx="32.606884"
       fy="6.1048827"
       r="64.633911"
       gradientUnits="userSpaceOnUse"
       gradientTransform="matrix(-1.4614512,1.8803868,-1.7177367,-1.3350561,90.746839,-47.058306)" />
    <linearGradient
       inkscape:collect="always"
       id="linearGradient43">
      <stop
         style="stop-color:#66ff00;stop-opacity:1;"
         offset="0"
         id="stop39" />
      <stop
         style="stop-color:#00ff00;stop-opacity:0.44"
         offset="1"
         id="stop41" />
    </linearGradient>
  </defs>
  <sodipodi:namedview
     id="base"
     pagecolor="#ffffff"
     bordercolor="#666666"
     borderopacity="1.0"
     inkscape:pageopacity="0.0"
     inkscape:pageshadow="2"
     inkscape:zoom="0.49497475"
     inkscape:cx="209.75943"
     inkscape:cy="115.06841"
     inkscape:document-units="px"
     inkscape:current-layer="layer1"
     showgrid="false"
     inkscape:snap-object-midpoints="false"
     inkscape:snap-center="true"
     inkscape:pagecheckerboard="true"
     fit-margin-top="0"
     fit-margin-left="0"
     fit-margin-right="0"
     fit-margin-bottom="0"
     borderlayer="true"
     inkscape:window-width="667"
     inkscape:window-height="729"
     inkscape:window-x="683"
     inkscape:window-y="0"
     inkscape:window-maximized="0" />
  <metadata
     id="metadata28">
    <rdf:RDF>
      <cc:Work
         rdf:about="">
        <dc:format>image/svg+xml</dc:format>
        <dc:type
           rdf:resource="http://purl.org/dc/dcmitype/StillImage" />
        <dc:title></dc:title>
      </cc:Work>
    </rdf:RDF>
  </metadata>
  <g
     inkscape:label="Capa 1"
     inkscape:groupmode="layer"
     id="layer1"
     transform="translate(5.4495665e-7,16.720213)">
    <rect
       style="fill:#00112b;stroke-width:0.28221554"
       id="rect33"
       width="143.63092"
       height="143.63092"
       x="-5.4495666e-007"
       y="-16.720213"
       ry="20.641569" />
    <rect
       ry="13.318157"
       y="-9.5386639"
       x="7.1815486"
       height="129.26782"
       width="129.26782"
       id="rect41"
       style="fill:url(#radialGradient45);fill-opacity:1;stroke-width:0.25399399"
       rx="12.82894" />
    <g
       id="g291"
       transform="matrix(0.26458335,0,0,0.26458335,26.8027,10.082364)">
      <g
         id="g227">
        <path
           id="path209"
           d="m 340.252,170.862 c -0.39,90.3 -71.05,163.86 -159.95,169.09 -3.61,0.22 -7.25,0.32 -10.91,0.3 -80.59,-0.35 -147.84,-56.68 -165.09,-131.98 -2.87,-12.49 -4.36,-25.51 -4.3,-38.88 0.41,-93.96 76.91,-169.8 170.86,-169.39 93.96,0.41 169.8,76.91 169.39,170.86 z"
           style="fill:#7ccfed"
           inkscape:connector-curvature="0" />
        <path
           id="path211"
           d="m 267.372,68.682 -84.61,154.86 -2.46,116.41 c -3.61,0.22 -7.25,0.32 -10.91,0.3 -80.59,-0.35 -147.84,-56.68 -165.09,-131.98 37.15,-29.15 80.25,-69.85 91.6,-108.77 20.98,-71.91 69.68,-79.03 118.34,-76.82 48.65,2.21 53.13,46 53.13,46 z"
           style="fill:#c9721c"
           inkscape:connector-curvature="0" />
        <path
           id="path213"
           d="m 312.785,128.265 -0.119,27.42 c -0.075,17.26 -5.065,33.348 -13.664,46.941 -15.789,25.012 -43.721,41.571 -75.48,41.433 -24.51,-0.106 -46.656,-10.142 -62.647,-26.272 -16,-16.13 -25.834,-38.362 -25.728,-62.872 l 0.015,-3.54 c 0.196,-45.18 33.905,-81.794 79.077,-82.108 l 10.471,-0.115 31.142,-0.345 11.521,-0.13 c -0.01,2.39 0.119,4.751 0.379,7.072 1.549,14.147 7.924,26.855 17.432,36.446 5.685,5.735 12.485,10.354 20.062,13.497 2.436,1.01 4.952,1.881 7.539,2.573 z"
           style="fill:#c9721c"
           inkscape:connector-curvature="0" />
        <path
           id="path215"
           d="m 145.572,132.549 c 0.097,-22.459 -2.031,-40.676 -24.49,-40.773 -22.459,-0.097 -40.745,18.031 -40.843,40.49 -0.097,22.459 18.031,40.745 40.49,40.843 22.459,0.098 24.745,-18.101 24.843,-40.56 z"
           style="fill:#eaa157"
           inkscape:connector-curvature="0" />
        <path
           id="path217"
           d="m 130.121,160.148 c -11.765,-0.051 -21.282,-12.504 -21.216,-27.759 0.066,-15.255 9.691,-27.625 21.456,-27.574 5.37,0.023 6.165,2.316 6.868,4.339 1.837,5.292 2.047,14.781 2.01,23.366 -0.037,8.585 -0.329,18.072 -2.212,23.348 -0.72,2.018 -1.536,4.304 -6.906,4.28 z"
           style="fill:#af6019"
           inkscape:connector-curvature="0" />
        <path
           id="path219"
           d="m 312.785,128.265 -0.119,27.42 c -0.075,17.26 -5.065,33.348 -13.664,46.941 -2.291,0.31 -4.622,0.47 -7.002,0.46 -27.67,-0.12 -50.002,-22.647 -49.882,-50.317 0.003,-0.65 0.026,-1.29 0.058,-1.94 -0.55,0.018 -1.09,0.035 -1.63,0.033 -23.43,-0.102 -42.337,-19.174 -42.236,-42.603 0.077,-17.69 10.972,-32.813 26.4,-39.106 4.999,-2.038 10.474,-3.154 16.204,-3.129 5.26,0.023 10.296,1.005 14.938,2.785 4.363,1.659 8.373,4.016 11.9,6.942 1.549,14.147 7.924,26.855 17.432,36.446 5.685,5.735 12.485,10.354 20.062,13.497 2.436,1.008 4.952,1.879 7.539,2.571 z"
           style="fill:#eaa157"
           inkscape:connector-curvature="0" />
        <circle
           id="circle221"
           r="15.333"
           cy="108.443"
           cx="240.728"
           style="fill:#4d4d4d" />
        <path
           id="path223"
           d="m 293.584,181.695 21.333,0.093 0.069,-16 -37.333,-0.162 v 0 c -0.037,8.836 7.095,16.031 15.931,16.069 z"
           style="fill:#7ccfed"
           inkscape:connector-curvature="0" />
        <path
           id="path225"
           d="m 312.715,144.397 h -4.803 c -2.025,0 -3.666,-1.641 -3.666,-3.666 v 0 c 0,-2.025 1.641,-3.666 3.666,-3.666 h 4.803 z"
           style="fill:#4d4d4d"
           inkscape:connector-curvature="0" />
      </g>
      <g
         id="g229" />
      <g
         id="g231" />
      <g
         id="g233" />
      <g
         id="g235" />
      <g
         id="g237" />
      <g
         id="g239" />
      <g
         id="g241" />
      <g
         id="g243" />
      <g
         id="g245" />
      <g
         id="g247" />
      <g
         id="g249" />
      <g
         id="g251" />
      <g
         id="g253" />
      <g
         id="g255" />
      <g
         id="g257" />
    </g>
  </g>
</svg>
