<?xml version="1.0" encoding="UTF-8" standalone="no"?>
<!-- Created with Inkscape (http://www.inkscape.org/) -->

<svg
   xmlns:dc="http://purl.org/dc/elements/1.1/"
   xmlns:cc="http://creativecommons.org/ns#"
   xmlns:rdf="http://www.w3.org/1999/02/22-rdf-syntax-ns#"
   xmlns:svg="http://www.w3.org/2000/svg"
   xmlns="http://www.w3.org/2000/svg"
   xmlns:xlink="http://www.w3.org/1999/xlink"
   xmlns:sodipodi="http://sodipodi.sourceforge.net/DTD/sodipodi-0.dtd"
   xmlns:inkscape="http://www.inkscape.org/namespaces/inkscape"
   width="143.63092mm"
   height="143.63092mm"
   viewBox="0 0 143.63092 143.63092"
   version="1.1"
   id="svg31"
   inkscape:version="0.92.1 r15371"
   sodipodi:docname="Oso.svg">
  <defs
     id="defs25">
    <radialGradient
       inkscape:collect="always"
       xlink:href="#linearGradient43"
       id="radialGradient45"
       cx="32.606884"
       cy="6.1048827"
       fx="32.606884"
       fy="6.1048827"
       r="64.633911"
       gradientUnits="userSpaceOnUse"
       gradientTransform="matrix(-1.4614512,1.8803868,-1.7177367,-1.3350561,90.746839,-47.058306)" />
    <linearGradient
       inkscape:collect="always"
       id="linearGradient43">
      <stop
         style="stop-color:#66ff00;stop-opacity:1;"
         offset="0"
         id="stop39" />
      <stop
         style="stop-color:#00ff00;stop-opacity:0.44"
         offset="1"
         id="stop41" />
    </linearGradient>
  </defs>
  <sodipodi:namedview
     id="base"
     pagecolor="#ffffff"
     bordercolor="#666666"
     borderopacity="1.0"
     inkscape:pageopacity="0.0"
     inkscape:pageshadow="2"
     inkscape:zoom="0.49497475"
     inkscape:cx="209.75943"
     inkscape:cy="115.06841"
     inkscape:document-units="px"
     inkscape:current-layer="layer1"
     showgrid="false"
     inkscape:snap-object-midpoints="false"
     inkscape:snap-center="true"
     inkscape:pagecheckerboard="true"
     fit-margin-top="0"
     fit-margin-left="0"
     fit-margin-right="0"
     fit-margin-bottom="0"
     borderlayer="true"
     inkscape:window-width="667"
     inkscape:window-height="729"
     inkscape:window-x="683"
     inkscape:window-y="0"
     inkscape:window-maximized="0" />
  <metadata
     id="metadata28">
    <rdf:RDF>
      <cc:Work
         rdf:about="">
        <dc:format>image/svg+xml</dc:format>
        <dc:type
           rdf:resource="http://purl.org/dc/dcmitype/StillImage" />
        <dc:title></dc:title>
      </cc:Work>
    </rdf:RDF>
  </metadata>
  <g
     inkscape:label="Capa 1"
     inkscape:groupmode="layer"
     id="layer1"
     transform="translate(5.4495665e-7,16.720213)">
    <rect
       style="fill:#00112b;stroke-width:0.28221554"
       id="rect33"
       width="143.63092"
       height="143.63092"
       x="-5.4495666e-007"
       y="-16.720213"
       ry="20.641569" />
    <rect
       ry="13.318157"
       y="-9.5386639"
       x="7.1815486"
       height="129.26782"
       width="129.26782"
       id="rect41"
       style="fill:url(#radialGradient45);fill-opacity:1;stroke-width:0.25399399"
       rx="12.82894" />
    <g
       id="g508"
       transform="matrix(0.26458335,0,0,0.26458335,21.133196,4.4129837)">
      <g
         id="g446">
        <path
           id="path432"
           d="m 340.25,191.55 c 0,18.35 -2.9,36.02 -8.28,52.57 v 0.01 c -22.15,68.23 -86.24,117.55 -161.84,117.55 -19.98,0 -39.16,-3.44 -56.97,-9.78 C 89.22,343.4 67.74,329.68 50.1,312.11 48.98,311 47.88,309.87 46.78,308.72 17.79,278.22 0,236.97 0,191.55 0,135 27.59,84.9 70.04,53.97 98.13,33.5 132.72,21.43 170.13,21.43 c 79.58,0 146.41,54.65 164.98,128.47 3.36,13.33 5.14,27.28 5.14,41.65 z"
           style="fill:#efe373"
           inkscape:connector-curvature="0" />
        <path
           id="path434"
           d="m 383.11,173.1 -3.49,10.78 c -1.96,6.04 -4.41,11.86 -7.33,17.4 -2.29,4.36 -4.87,8.55 -7.71,12.54 h -24.35 c 0,3.86 1.57,7.36 4.1,9.9 2.23,2.22 5.19,3.7 8.49,4.02 -6.22,6.25 -13.22,11.76 -20.85,16.38 v 0.01 c -3.43,2.09 -7,3.99 -10.68,5.7 -16.38,7.62 -33.98,11.39 -51.55,11.39 -9.51,0 -19.01,-1.11 -28.29,-3.31 -0.16,-0.04 -0.31,-0.08 -0.46,-0.11 -8.83,-2.13 -17.87,-2.37 -26.55,-0.81 -10.74,1.93 -20.94,6.61 -29.52,13.86 -0.06,0.05 -0.11,0.09 -0.16,0.14 -21.78,18.09 -45.73,55.02 -71.6,80.91 C 89.22,343.4 67.74,329.68 50.1,312.11 48.98,311 47.88,309.87 46.78,308.72 17.79,278.22 0,236.97 0,191.55 0,135 27.59,84.9 70.04,53.97 c 39.57,0.99 78.91,5.66 117.5,13.91 20.11,4.3 40.02,9.56 59.66,15.79 13.11,4.16 26.1,8.75 38.95,13.76 8.84,3.46 14.66,11.96 14.66,21.45 0,4.42 1.26,8.64 3.51,12.24 2.26,3.59 5.51,6.57 9.49,8.49 l 21.3,10.29 20.83,10.06 z"
           style="fill:#9f692b"
           inkscape:connector-curvature="0" />
        <path
           id="path436"
           d="m 298.855,150.575 h -18.621 c -8.769,0 -15.878,-7.109 -15.878,-15.878 v 0 h 18.621 c 8.769,0 15.878,7.109 15.878,15.878 z"
           style="fill:#4d4d4d"
           inkscape:connector-curvature="0" />
        <path
           id="path438"
           d="m 245.054,97.024 c 0,0 12.468,-39.67 -21.535,-53.272 -34.003,-13.602 -43.071,29.469 -32.87,58.939 z"
           style="fill:#9f692b"
           inkscape:connector-curvature="0" />
        <path
           id="path440"
           d="m 210.455,88.597 c -1.35,-11.874 -0.292,-24.125 2.985,-30.653 1.666,-3.319 3.27,-3.776 4.755,-3.776 1.445,0 3.159,0.557 5.096,1.656 6.69,3.796 10.142,10.446 10.863,20.928 0.205,2.984 0.147,5.859 -0.017,8.346 z"
           style="fill:#7c5228"
           inkscape:connector-curvature="0" />
        <path
           id="path442"
           d="m 383.108,173.103 -3.484,10.781 c -1.961,6.035 -4.417,11.851 -7.339,17.393 -11.316,-4.348 -19.354,-15.321 -19.354,-28.174 0,-4.718 1.084,-9.176 3.004,-13.14 z"
           style="fill:#4d4d4d"
           inkscape:connector-curvature="0" />
        <path
           id="path444"
           d="m 364.58,213.82 h -24.35 c 0,3.86 1.57,7.36 4.1,9.9 2.23,2.22 5.2,3.7 8.5,4.02 l -0.03,0.03 c -6.22,6.24 -13.21,11.74 -20.83,16.35 v 0.01 c -3.43,2.09 -7,3.99 -10.68,5.7 -16.38,7.62 -33.98,11.39 -51.55,11.39 -9.51,0 -19.01,-1.11 -28.29,-3.31 -0.16,-0.04 -0.31,-0.08 -0.46,-0.11 -8.83,-2.13 -17.87,-2.37 -26.55,-0.81 4.11,-16.37 13.53,-30.3 26.13,-40.14 12.61,-9.83 28.42,-15.57 45.3,-15.57 h 86.42 c -2.29,4.36 -4.87,8.55 -7.71,12.54 z"
           style="fill:#b27538"
           inkscape:connector-curvature="0" />
      </g>
      <g
         id="g448" />
      <g
         id="g450" />
      <g
         id="g452" />
      <g
         id="g454" />
      <g
         id="g456" />
      <g
         id="g458" />
      <g
         id="g460" />
      <g
         id="g462" />
      <g
         id="g464" />
      <g
         id="g466" />
      <g
         id="g468" />
      <g
         id="g470" />
      <g
         id="g472" />
      <g
         id="g474" />
      <g
         id="g476" />
    </g>
  </g>
</svg>
