<?xml version="1.0" encoding="UTF-8" standalone="no"?>
<!-- Created with Inkscape (http://www.inkscape.org/) -->

<svg
   xmlns:dc="http://purl.org/dc/elements/1.1/"
   xmlns:cc="http://creativecommons.org/ns#"
   xmlns:rdf="http://www.w3.org/1999/02/22-rdf-syntax-ns#"
   xmlns:svg="http://www.w3.org/2000/svg"
   xmlns="http://www.w3.org/2000/svg"
   xmlns:xlink="http://www.w3.org/1999/xlink"
   xmlns:sodipodi="http://sodipodi.sourceforge.net/DTD/sodipodi-0.dtd"
   xmlns:inkscape="http://www.inkscape.org/namespaces/inkscape"
   width="143.63092mm"
   height="143.63092mm"
   viewBox="0 0 143.63092 143.63092"
   version="1.1"
   id="svg31"
   inkscape:version="0.92.1 r15371"
   sodipodi:docname="Oso2.svg">
  <defs
     id="defs25">
    <radialGradient
       inkscape:collect="always"
       xlink:href="#linearGradient43"
       id="radialGradient45"
       cx="32.606884"
       cy="6.1048827"
       fx="32.606884"
       fy="6.1048827"
       r="64.633911"
       gradientUnits="userSpaceOnUse"
       gradientTransform="matrix(-1.4614512,1.8803868,-1.7177367,-1.3350561,90.746839,-47.058306)" />
    <linearGradient
       inkscape:collect="always"
       id="linearGradient43">
      <stop
         style="stop-color:#66ff00;stop-opacity:1;"
         offset="0"
         id="stop39" />
      <stop
         style="stop-color:#00ff00;stop-opacity:0.44"
         offset="1"
         id="stop41" />
    </linearGradient>
  </defs>
  <sodipodi:namedview
     id="base"
     pagecolor="#ffffff"
     bordercolor="#666666"
     borderopacity="1.0"
     inkscape:pageopacity="0.0"
     inkscape:pageshadow="2"
     inkscape:zoom="0.49497475"
     inkscape:cx="209.75943"
     inkscape:cy="115.06841"
     inkscape:document-units="px"
     inkscape:current-layer="layer1"
     showgrid="false"
     inkscape:snap-object-midpoints="true"
     inkscape:snap-center="true"
     inkscape:pagecheckerboard="true"
     fit-margin-top="0"
     fit-margin-left="0"
     fit-margin-right="0"
     fit-margin-bottom="0"
     borderlayer="true"
     inkscape:window-width="667"
     inkscape:window-height="729"
     inkscape:window-x="683"
     inkscape:window-y="0"
     inkscape:window-maximized="0" />
  <metadata
     id="metadata28">
    <rdf:RDF>
      <cc:Work
         rdf:about="">
        <dc:format>image/svg+xml</dc:format>
        <dc:type
           rdf:resource="http://purl.org/dc/dcmitype/StillImage" />
        <dc:title></dc:title>
      </cc:Work>
    </rdf:RDF>
  </metadata>
  <g
     inkscape:label="Capa 1"
     inkscape:groupmode="layer"
     id="layer1"
     transform="translate(5.4495665e-7,16.720213)">
    <rect
       style="fill:#00112b;stroke-width:0.28221554"
       id="rect33"
       width="143.63092"
       height="143.63092"
       x="-5.4495666e-007"
       y="-16.720213"
       ry="20.641569" />
    <rect
       ry="13.318157"
       y="-9.5386639"
       x="7.1815486"
       height="129.26782"
       width="129.26782"
       id="rect41"
       style="fill:url(#radialGradient45);fill-opacity:1;stroke-width:0.25399399"
       rx="12.82894" />
    <g
       id="g604"
       transform="matrix(0.19672221,0,0,0.21447041,21.454377,-2.4659299)">
      <g
         id="g514">
        <path
           id="path510"
           d="M 363.356,74.323 C 407.399,74.323 404.646,0 464.473,0 c 36.473,0 59.183,35.785 41.29,74.323 -13.911,29.96 -33.032,66.065 -24.774,90.839 z"
           style="fill:#c39b6e"
           inkscape:connector-curvature="0" />
        <path
           id="path512"
           d="M 148.645,74.323 C 104.602,74.323 107.355,0 47.528,0 11.056,0 -11.654,35.785 6.238,74.323 c 13.911,29.96 33.032,66.065 24.774,90.839 z"
           style="fill:#c39b6e"
           inkscape:connector-curvature="0" />
      </g>
      <path
         id="path516"
         d="M 256.001,41.29 C 114.615,41.29 0,115.613 0,297.291 c 0,140.387 114.615,214.71 256.001,214.71 141.386,0 256.001,-74.323 256.001,-214.71 C 512,115.613 397.385,41.29 256.001,41.29 Z"
         style="fill:#aa825a"
         inkscape:connector-curvature="0" />
      <path
         id="path518"
         d="m 256.001,82.581 c -91.217,0 -198.194,58.676 -198.194,202.105 0,110.833 88.734,169.508 198.194,169.508 109.46,0 198.194,-58.676 198.194,-169.507 C 454.194,141.257 347.216,82.581 256.001,82.581 Z"
         style="fill:#8c705c"
         inkscape:connector-curvature="0" />
      <g
         id="g524">
        <path
           id="path520"
           d="m 220.251,272.517 c -4.96,-16.735 -15.819,-49.548 -47.457,-49.548 -23.729,0 -92.525,50.321 -110.734,107.355 -15.819,49.548 78.327,132.129 166.101,132.129 42.656,0 5.547,-144.531 -7.91,-189.936 z"
           style="fill:#7c665d"
           inkscape:connector-curvature="0" />
        <path
           id="path522"
           d="m 292.081,272.517 c 4.96,-16.735 15.819,-49.548 47.457,-49.548 23.729,0 92.525,50.321 110.734,107.355 15.819,49.548 -78.327,132.129 -166.101,132.129 -42.655,0 -5.545,-144.531 7.91,-189.936 z"
           style="fill:#7c665d"
           inkscape:connector-curvature="0" />
      </g>
      <path
         id="path526"
         d="m 189.936,421.162 c 0,26.604 43.261,49.548 66.065,49.548 22.804,0 66.065,-22.944 66.065,-49.548 z"
         style="fill:#c39b6e"
         inkscape:connector-curvature="0" />
      <path
         id="path528"
         d="m 273.813,256.001 h -35.626 c -9.457,0 -18.061,5.342 -22.229,13.83 -16.545,33.698 -47.421,120.167 -34.28,159.589 7.386,22.159 57.807,0 74.323,0 16.516,0 66.937,22.159 74.323,0 13.141,-39.422 -17.735,-125.891 -34.28,-159.589 -4.169,-8.489 -12.774,-13.83 -22.231,-13.83 z"
         style="fill:#d7b487"
         inkscape:connector-curvature="0" />
      <g
         id="g536">
        <circle
           id="circle530"
           r="16.516001"
           cy="256.00101"
           cx="173.42"
           style="fill:#464655" />
        <circle
           id="circle532"
           r="16.516001"
           cy="256.00101"
           cx="338.58099"
           style="fill:#464655" />
        <ellipse
           id="ellipse534"
           ry="33.032001"
           rx="41.290001"
           cy="371.61401"
           cx="256.00101"
           style="fill:#464655" />
      </g>
      <g
         id="g538" />
      <g
         id="g540" />
      <g
         id="g542" />
      <g
         id="g544" />
      <g
         id="g546" />
      <g
         id="g548" />
      <g
         id="g550" />
      <g
         id="g552" />
      <g
         id="g554" />
      <g
         id="g556" />
      <g
         id="g558" />
      <g
         id="g560" />
      <g
         id="g562" />
      <g
         id="g564" />
      <g
         id="g566" />
    </g>
  </g>
</svg>
