<?xml version="1.0" encoding="UTF-8" standalone="no"?>
<!-- Created with Inkscape (http://www.inkscape.org/) -->

<svg
   xmlns:dc="http://purl.org/dc/elements/1.1/"
   xmlns:cc="http://creativecommons.org/ns#"
   xmlns:rdf="http://www.w3.org/1999/02/22-rdf-syntax-ns#"
   xmlns:svg="http://www.w3.org/2000/svg"
   xmlns="http://www.w3.org/2000/svg"
   xmlns:xlink="http://www.w3.org/1999/xlink"
   xmlns:sodipodi="http://sodipodi.sourceforge.net/DTD/sodipodi-0.dtd"
   xmlns:inkscape="http://www.inkscape.org/namespaces/inkscape"
   width="143.63092mm"
   height="143.63092mm"
   viewBox="0 0 143.63092 143.63092"
   version="1.1"
   id="svg31"
   inkscape:version="0.92.1 r15371"
   sodipodi:docname="Oveja.svg">
  <defs
     id="defs25">
    <radialGradient
       inkscape:collect="always"
       xlink:href="#linearGradient43"
       id="radialGradient45"
       cx="32.606884"
       cy="6.1048827"
       fx="32.606884"
       fy="6.1048827"
       r="64.633911"
       gradientUnits="userSpaceOnUse"
       gradientTransform="matrix(-1.4614512,1.8803868,-1.7177367,-1.3350561,90.746839,-47.058306)" />
    <linearGradient
       inkscape:collect="always"
       id="linearGradient43">
      <stop
         style="stop-color:#66ff00;stop-opacity:1;"
         offset="0"
         id="stop39" />
      <stop
         style="stop-color:#00ff00;stop-opacity:0.44"
         offset="1"
         id="stop41" />
    </linearGradient>
  </defs>
  <sodipodi:namedview
     id="base"
     pagecolor="#ffffff"
     bordercolor="#666666"
     borderopacity="1.0"
     inkscape:pageopacity="0.0"
     inkscape:pageshadow="2"
     inkscape:zoom="0.49497475"
     inkscape:cx="209.75943"
     inkscape:cy="115.06841"
     inkscape:document-units="px"
     inkscape:current-layer="layer1"
     showgrid="false"
     inkscape:snap-object-midpoints="true"
     inkscape:snap-center="true"
     inkscape:pagecheckerboard="true"
     fit-margin-top="0"
     fit-margin-left="0"
     fit-margin-right="0"
     fit-margin-bottom="0"
     borderlayer="true"
     inkscape:window-width="667"
     inkscape:window-height="729"
     inkscape:window-x="683"
     inkscape:window-y="0"
     inkscape:window-maximized="0" />
  <metadata
     id="metadata28">
    <rdf:RDF>
      <cc:Work
         rdf:about="">
        <dc:format>image/svg+xml</dc:format>
        <dc:type
           rdf:resource="http://purl.org/dc/dcmitype/StillImage" />
        <dc:title></dc:title>
      </cc:Work>
    </rdf:RDF>
  </metadata>
  <g
     inkscape:label="Capa 1"
     inkscape:groupmode="layer"
     id="layer1"
     transform="translate(5.4495665e-7,16.720213)">
    <rect
       style="fill:#00112b;stroke-width:0.28221554"
       id="rect33"
       width="143.63092"
       height="143.63092"
       x="-5.4495666e-007"
       y="-16.720213"
       ry="20.641569" />
    <rect
       ry="13.318157"
       y="-9.5386639"
       x="7.1815486"
       height="129.26782"
       width="129.26782"
       id="rect41"
       style="fill:url(#radialGradient45);fill-opacity:1;stroke-width:0.25399399"
       rx="12.82894" />
    <g
       id="g3982"
       transform="matrix(0.19985439,0,0,0.2036353,20.652436,2.964305)">
      <g
         id="g3922">
        <g
           id="g3920">
          <g
             id="g3918">
            <path
               id="path3912"
               d="m 455.279,105.987 h -7.188 c -2.475,-14.786 -15.362,-26.091 -30.84,-26.091 -5.478,0 -10.742,1.4 -15.383,4.031 -7.369,-6.578 -17.016,-10.348 -27.028,-10.348 -12.239,0 -23.616,5.483 -31.227,14.698 -4.923,-2.066 -10.216,-3.159 -15.65,-3.159 -1.831,0 -3.661,0.123 -5.472,0.37 -7.379,-6.567 -16.961,-10.258 -26.935,-10.258 -9.586,0 -18.658,3.325 -25.856,9.316 -10.823,-8.252 -23.982,-12.723 -37.804,-12.723 -11.015,0 -21.631,2.839 -31.059,8.261 -7.001,-5.307 -15.628,-8.261 -24.498,-8.261 -14.732,0 -27.905,7.804 -35.031,20.112 -6.935,-2.57 -14.33,-3.907 -21.774,-3.907 -19.503,0 -37.953,9.276 -49.691,24.607 -3.771,-1.075 -7.791,-1.351 -11.707,-0.763 -4.32,-3.805 -9.92,-5.967 -15.804,-5.967 -5.74,0 -11.197,2.035 -15.488,5.688 C 11.94,112.188 0,124.501 0,139.549 c 0,14.368 10.884,26.241 24.84,27.81 -0.039,0.302 -0.074,0.606 -0.106,0.91 -12.693,11.818 -19.903,28.289 -19.903,45.737 0,14.201 4.774,27.806 13.538,38.833 -2.073,6.286 -3.122,12.844 -3.122,19.558 0,30.804 22.427,56.896 52.571,61.707 2.325,1.95 4.738,3.833 7.217,5.631 v 8.61 c 0,17.055 9.651,31.892 23.773,39.359 v 44.369 c 0,4.478 3.628,8.107 8.107,8.107 h 25.239 c 4.478,0 8.106,-3.628 8.106,-8.107 v -44.359 c 0.735,-0.386 1.455,-0.797 2.165,-1.224 0.707,0.425 1.427,0.827 2.156,1.211 v 44.372 c 0,4.478 3.628,8.107 8.107,8.107 h 25.253 c 4.478,0 8.107,-3.628 8.107,-8.107 v -44.338 c 6.091,-3.2 11.403,-7.796 15.466,-13.479 8.56,3.899 17.916,5.969 27.532,5.969 11.615,0 22.732,-2.931 32.639,-8.55 4.208,6.857 10.175,12.362 17.18,16.045 v 44.353 c 0,4.478 3.628,8.107 8.107,8.107 h 25.24 c 4.478,0 8.107,-3.628 8.107,-8.107 v -44.302 c 0.754,-0.394 1.496,-0.811 2.223,-1.246 0.692,0.413 1.394,0.805 2.106,1.18 v 44.368 c 0,4.478 3.628,8.107 8.107,8.107 H 358 c 4.478,0 8.107,-3.628 8.107,-8.107 v -44.369 c 14.121,-7.467 23.772,-22.304 23.772,-39.359 v -1.774 c 19.926,-10.462 33.555,-31.349 33.555,-55.373 0,-1.965 -0.097,-3.954 -0.292,-5.951 8.368,-7.631 13.241,-18.496 13.241,-29.946 0,-10.01 -3.761,-19.71 -10.422,-27.115 -0.138,-2.926 -0.382,-5.849 -0.714,-8.757 h 30.034 c 31.276,0 56.722,-25.445 56.722,-56.721 C 512,131.433 486.555,105.987 455.279,105.987 Z M 124.048,423.966 h -9.026 v -31.352 c 1.484,0.151 2.99,0.228 4.513,0.228 1.523,0 3.024,-0.105 4.514,-0.254 v 31.378 z m 45.788,0 h -0.001 -9.04 v -31.365 c 1.5,0.154 3.01,0.242 4.528,0.242 1.52,0 3.025,-0.083 4.514,-0.233 v 31.356 z m -4.515,-47.337 c -3.484,0 -6.845,-0.632 -9.999,-1.825 1.807,-2.445 3.382,-5.084 4.67,-7.902 1.893,0.272 3.805,0.409 5.726,0.409 5.093,0 10.049,-0.935 14.757,-2.782 h 5.674 c 0.484,0.41 0.983,0.8 1.477,1.194 -5.273,6.78 -13.428,10.906 -22.305,10.906 z m 138.783,47.337 h -9.027 v -31.373 c 1.489,0.15 2.993,0.251 4.515,0.251 1.524,0 3.029,-0.083 4.513,-0.231 v 31.353 z m 45.788,0 h -10e-4 -9.032 v -31.365 c 1.498,0.154 3.006,0.242 4.52,0.242 1.523,0 3.029,-0.077 4.513,-0.228 z m -4.514,-47.337 c -3.47,0 -6.82,-0.626 -9.964,-1.81 4.095,-5.551 6.936,-12.102 8.089,-19.259 2.236,-0.878 4.442,-1.813 6.606,-2.803 3.591,0.63 7.218,0.949 10.815,0.949 4.256,0 8.415,-0.43 12.435,-1.245 -1.998,13.653 -13.781,24.168 -27.981,24.168 z m 64.454,-101.446 c -2.564,1.806 -3.857,4.928 -3.318,8.018 0.468,2.689 0.705,5.381 0.705,7.998 0,25.527 -20.768,46.294 -46.293,46.294 -3.355,0 -6.752,-0.377 -10.1,-1.12 -1.782,-0.396 -3.647,-0.178 -5.291,0.618 -3.924,1.901 -8.042,3.603 -12.241,5.058 -3.16,1.095 -5.323,4.019 -5.446,7.361 -0.564,15.263 -12.976,27.219 -28.257,27.219 -12.253,0 -23.052,-7.818 -26.872,-19.453 -0.825,-2.511 -2.821,-4.462 -5.349,-5.228 -2.534,-0.767 -5.273,-0.253 -7.353,1.376 -8.923,6.991 -19.633,10.686 -30.971,10.686 -12.766,0 -24.943,-4.799 -34.288,-13.515 -1.501,-1.4 -3.477,-2.179 -5.529,-2.179 h -10.372 c -1.133,0 -2.254,0.238 -3.289,0.697 -5.653,2.511 -12.132,2.768 -18.023,0.659 -2.15,-0.771 -4.526,-0.599 -6.545,0.477 -2.016,1.073 -3.487,2.95 -4.047,5.164 -3.178,12.549 -14.453,21.315 -27.419,21.315 -15.597,0 -28.285,-12.688 -28.285,-28.285 V 335.52 c 0,-2.69 -1.334,-5.204 -3.563,-6.713 -3.875,-2.623 -7.601,-5.488 -11.072,-8.515 -1.23,-1.071 -2.753,-1.748 -4.373,-1.94 -23.248,-2.756 -40.78,-22.512 -40.78,-45.955 0,-6.264 1.228,-12.335 3.647,-18.047 1.252,-2.953 0.645,-6.365 -1.549,-8.705 -8.071,-8.614 -12.515,-19.85 -12.515,-31.638 0,-13.816 6.107,-26.808 16.757,-35.645 1.83,-1.518 2.901,-3.762 2.929,-6.14 0.047,-3.829 0.965,-7.495 2.732,-10.893 1.599,-3.078 1.064,-6.831 -1.332,-9.339 -2.397,-2.508 -6.12,-3.213 -9.268,-1.756 -1.557,0.722 -3.199,1.088 -4.878,1.088 -6.491,0 -11.772,-5.281 -11.772,-11.773 0,-6.491 5.281,-11.772 11.772,-11.772 0.396,0 0.814,0.023 1.242,0.07 2.719,0.287 5.404,-0.799 7.141,-2.911 1.474,-1.794 3.649,-2.823 5.964,-2.823 2.543,0 4.924,1.259 6.371,3.368 2.095,3.059 5.998,4.304 9.478,3.03 3.493,-1.28 7.237,-0.832 10.274,1.081 1.85,1.165 4.09,1.533 6.215,1.025 2.126,-0.511 3.954,-1.858 5.073,-3.735 8.316,-13.967 23.564,-22.643 39.792,-22.643 7.686,0 15.295,1.92 22.005,5.553 2.133,1.154 4.665,1.295 6.912,0.383 2.245,-0.912 3.964,-2.78 4.687,-5.093 3.184,-10.197 12.508,-17.046 23.201,-17.046 6.806,0 13.118,2.749 17.771,7.738 2.791,2.991 7.369,3.434 10.682,1.038 7.931,-5.742 17.304,-8.776 27.104,-8.776 12.261,0 23.818,4.751 32.542,13.377 1.64,1.621 3.889,2.466 6.192,2.327 2.301,-0.141 4.434,-1.253 5.865,-3.061 4.647,-5.87 11.594,-9.237 19.062,-9.237 6.945,0 13.575,2.986 18.189,8.194 2.02,2.278 5.146,3.232 8.094,2.472 1.997,-0.515 4.058,-0.777 6.124,-0.777 2.76,0 5.458,0.476 8.012,1.368 -1.078,3.689 -1.65,7.531 -1.65,11.396 0,4.478 3.628,8.107 8.106,8.107 4.477,0 8.107,-3.628 8.107,-8.107 0,-4.045 0.957,-7.887 2.843,-11.419 4.242,-7.947 12.465,-12.882 21.46,-12.882 7.767,0 14.883,3.583 19.525,9.832 1.405,1.892 3.564,3.078 5.913,3.25 2.355,0.173 4.66,-0.685 6.325,-2.351 2.848,-2.846 6.63,-4.413 10.65,-4.413 8.302,0 15.056,6.753 15.056,15.055 0,0.559 -0.03,1.11 -0.09,1.653 -0.026,0.164 -0.048,0.33 -0.064,0.496 -1.046,7.288 -7.33,12.907 -14.903,12.907 -3.283,0 -6.417,-1.059 -9.063,-3.064 -1.88,-1.426 -4.29,-1.964 -6.594,-1.465 -2.308,0.494 -4.285,1.968 -5.415,4.038 -1.462,2.676 -3.4,5.034 -5.757,7.007 -3.141,2.629 -3.827,7.187 -1.6,10.625 4.857,7.496 7.426,16.186 7.426,25.13 0,2.429 -0.19,4.864 -0.564,7.239 -0.755,4.787 -2.261,9.413 -4.473,13.751 -1.755,3.443 -0.837,7.645 2.194,10.042 3.645,2.882 5.736,7.183 5.736,11.8 0,4.478 3.63,8.107 8.107,8.107 h 1.648 c 0.536,4.092 0.875,8.224 0.968,12.358 0.049,2.183 0.976,4.256 2.574,5.746 4.986,4.653 7.731,10.963 7.731,17.768 -0.004,7.886 -3.868,15.319 -10.34,19.878 z m 45.447,-71.965 h -40.985 c -1.163,-4.35 -3.259,-8.393 -6.161,-11.868 1.661,-4.218 2.857,-8.6 3.565,-13.089 0.507,-3.209 0.763,-6.495 0.763,-9.767 0,-9.854 -2.309,-19.482 -6.723,-28.193 l 0.041,-0.048 c 3.621,1.439 7.491,2.182 11.471,2.182 13.358,0 24.789,-8.422 29.258,-20.234 h 8.77 c 22.336,0 40.509,18.173 40.509,40.51 0,22.335 -18.171,40.507 -40.508,40.507 z"
               inkscape:connector-curvature="0" />
            <path
               id="path3914"
               d="m 432.903,144.463 c -3.35,0 -6.066,2.716 -6.066,6.068 0,3.352 2.717,6.067 6.066,6.067 3.354,0 6.069,-2.716 6.069,-6.067 0.001,-3.352 -2.716,-6.068 -6.069,-6.068 z"
               inkscape:connector-curvature="0" />
            <path
               id="path3916"
               d="m 370.792,149.933 c -4.478,0 -8.106,3.628 -8.106,8.107 v 26.084 c 0,4.478 3.628,8.107 8.106,8.107 4.478,0 8.107,-3.628 8.107,-8.107 V 158.04 c -10e-4,-4.478 -3.631,-8.107 -8.107,-8.107 z"
               inkscape:connector-curvature="0" />
          </g>
        </g>
      </g>
      <g
         id="g3924" />
      <g
         id="g3926" />
      <g
         id="g3928" />
      <g
         id="g3930" />
      <g
         id="g3932" />
      <g
         id="g3934" />
      <g
         id="g3936" />
      <g
         id="g3938" />
      <g
         id="g3940" />
      <g
         id="g3942" />
      <g
         id="g3944" />
      <g
         id="g3946" />
      <g
         id="g3948" />
      <g
         id="g3950" />
      <g
         id="g3952" />
    </g>
  </g>
</svg>
