<?xml version="1.0" encoding="UTF-8" standalone="no"?>
<!-- Created with Inkscape (http://www.inkscape.org/) -->

<svg
   xmlns:dc="http://purl.org/dc/elements/1.1/"
   xmlns:cc="http://creativecommons.org/ns#"
   xmlns:rdf="http://www.w3.org/1999/02/22-rdf-syntax-ns#"
   xmlns:svg="http://www.w3.org/2000/svg"
   xmlns="http://www.w3.org/2000/svg"
   xmlns:xlink="http://www.w3.org/1999/xlink"
   xmlns:sodipodi="http://sodipodi.sourceforge.net/DTD/sodipodi-0.dtd"
   xmlns:inkscape="http://www.inkscape.org/namespaces/inkscape"
   width="143.63092mm"
   height="143.63092mm"
   viewBox="0 0 143.63092 143.63092"
   version="1.1"
   id="svg31"
   inkscape:version="0.92.1 r15371"
   sodipodi:docname="Oveja2.svg">
  <defs
     id="defs25">
    <radialGradient
       inkscape:collect="always"
       xlink:href="#linearGradient43"
       id="radialGradient45"
       cx="32.606884"
       cy="6.1048827"
       fx="32.606884"
       fy="6.1048827"
       r="64.633911"
       gradientUnits="userSpaceOnUse"
       gradientTransform="matrix(-1.4614512,1.8803868,-1.7177367,-1.3350561,90.746839,-47.058306)" />
    <linearGradient
       inkscape:collect="always"
       id="linearGradient43">
      <stop
         style="stop-color:#66ff00;stop-opacity:1;"
         offset="0"
         id="stop39" />
      <stop
         style="stop-color:#00ff00;stop-opacity:0.44"
         offset="1"
         id="stop41" />
    </linearGradient>
  </defs>
  <sodipodi:namedview
     id="base"
     pagecolor="#ffffff"
     bordercolor="#666666"
     borderopacity="1.0"
     inkscape:pageopacity="0.0"
     inkscape:pageshadow="2"
     inkscape:zoom="0.49497475"
     inkscape:cx="209.75943"
     inkscape:cy="115.06841"
     inkscape:document-units="px"
     inkscape:current-layer="layer1"
     showgrid="false"
     inkscape:snap-object-midpoints="true"
     inkscape:snap-center="true"
     inkscape:pagecheckerboard="true"
     fit-margin-top="0"
     fit-margin-left="0"
     fit-margin-right="0"
     fit-margin-bottom="0"
     borderlayer="true"
     inkscape:window-width="667"
     inkscape:window-height="729"
     inkscape:window-x="683"
     inkscape:window-y="0"
     inkscape:window-maximized="0" />
  <metadata
     id="metadata28">
    <rdf:RDF>
      <cc:Work
         rdf:about="">
        <dc:format>image/svg+xml</dc:format>
        <dc:type
           rdf:resource="http://purl.org/dc/dcmitype/StillImage" />
        <dc:title></dc:title>
      </cc:Work>
    </rdf:RDF>
  </metadata>
  <g
     inkscape:label="Capa 1"
     inkscape:groupmode="layer"
     id="layer1"
     transform="translate(5.4495665e-7,16.720213)">
    <rect
       style="fill:#00112b;stroke-width:0.28221554"
       id="rect33"
       width="143.63092"
       height="143.63092"
       x="-5.4495666e-007"
       y="-16.720213"
       ry="20.641569" />
    <rect
       ry="13.318157"
       y="-9.5386639"
       x="7.1815486"
       height="129.26782"
       width="129.26782"
       id="rect41"
       style="fill:url(#radialGradient45);fill-opacity:1;stroke-width:0.25399399"
       rx="12.82894" />
    <g
       id="g4048"
       transform="matrix(0.26458335,0,0,0.26458335,16.253003,-0.46725623)">
      <g
         id="g3990">
        <g
           id="g3988">
          <path
             id="path3984"
             d="m 379.709,151.004 c 6.405,-15.926 5.895,-33.502 -1.635,-49.253 -7.522,-15.735 -21.2,-27.771 -38.137,-33.8 C 336.081,51.33 325.475,36.869 310.083,27.559 299.03,20.873 286.264,17.338 273.17,17.338 c -4.922,0 -9.809,0.496 -14.602,1.476 C 245.785,6.786 228.531,0 210.25,0 h -0.501 c -18.28,0 -35.536,6.786 -48.32,18.814 -4.792,-0.98 -9.68,-1.476 -14.6,-1.476 -13.096,0 -25.859,3.535 -36.914,10.221 -15.394,9.31 -25.996,23.771 -29.854,40.392 -16.935,6.029 -30.614,18.065 -38.137,33.8 -7.528,15.75 -8.038,33.327 -1.632,49.253 -10.614,13.799 -15.003,30.906 -12.1,47.97 2.9,17.057 12.756,32.03 27.427,42.014 -0.835,17.005 5.44,33.554 17.771,46.308 12.203,12.623 29.321,20.164 47.38,20.974 3.443,5.574 7.713,10.569 12.646,14.871 v 83.583 c 0,7.332 5.944,13.276 13.276,13.276 7.333,0 13.276,-5.944 13.276,-13.276 v -69.278 c 0.79,0.226 1.577,0.453 2.377,0.652 5.751,1.437 11.659,2.164 17.561,2.164 12.087,0 19.74,-2.968 30.093,-8.628 10.352,5.66 18.006,8.628 30.094,8.628 5.902,0 11.81,-0.729 17.56,-2.164 0.801,-0.199 1.59,-0.427 2.378,-0.652 v 69.278 c 0,7.332 5.943,13.276 13.274,13.276 7.333,0 13.277,-5.944 13.277,-13.276 v -83.583 c 4.933,-4.301 9.203,-9.297 12.645,-14.871 18.061,-0.81 35.179,-8.352 47.384,-20.974 12.328,-12.754 18.604,-29.302 17.77,-46.308 14.672,-9.984 24.526,-24.957 27.428,-42.014 2.9,-17.063 -1.488,-34.17 -12.1,-47.97 z m -9.105,44.365 c -2.178,12.813 -10.461,23.93 -22.724,30.502 l -6.832,3.659 1.312,7.639 c 2.185,12.726 -1.901,25.547 -11.212,35.177 -8.902,9.209 -21.721,14.489 -35.165,14.489 -0.857,0 -1.727,-0.022 -2.583,-0.065 l -7.163,-0.357 -3.083,6.477 c -5.729,12.029 -16.801,21.43 -30.709,24.342 -20.154,4.223 -39.766,-5.26 -42.304,-6.549 l -0.141,-0.076 -0.143,0.072 c -2.538,1.291 -22.147,10.771 -42.303,6.551 -13.907,-2.914 -24.979,-12.313 -30.707,-24.342 l -3.083,-6.478 -7.165,0.358 c -0.855,0.043 -1.725,0.064 -2.584,0.064 -13.443,0 -26.259,-5.281 -35.161,-14.489 -9.312,-9.63 -13.398,-22.452 -11.214,-35.177 l 1.312,-7.639 -6.831,-3.659 C 59.858,219.296 51.576,208.179 49.397,195.366 47.237,182.672 51.361,169.861 60.711,160.22 l 5.53,-5.702 -3.822,-6.962 C 56.115,136.078 55.719,122.762 61.33,111.024 67.063,99.031 78.282,90.186 92.11,86.756 l 7.271,-1.803 0.828,-7.445 c 1.436,-12.909 9.03,-24.407 20.836,-31.548 7.698,-4.655 16.614,-7.116 25.784,-7.116 5.062,0 10.07,0.743 14.887,2.208 l 6.681,2.032 4.573,-5.276 c 8.668,-10 21.465,-15.867 35.289,-16.263 v 0.007 c 0.578,-0.021 1.158,-0.036 1.74,-0.04 0.581,0.004 1.161,0.018 1.739,0.04 l -0.001,-0.007 c 13.828,0.395 26.622,6.262 35.291,16.263 l 4.572,5.276 6.683,-2.032 c 4.816,-1.465 9.826,-2.208 14.888,-2.208 9.171,0 18.086,2.461 25.783,7.116 11.807,7.141 19.4,18.639 20.836,31.548 l 0.829,7.445 7.27,1.803 c 13.827,3.43 25.048,12.275 30.781,24.268 5.611,11.738 5.214,25.054 -1.09,36.532 l -3.822,6.962 5.53,5.702 c 9.352,9.644 13.474,22.455 11.316,35.149 z"
             inkscape:connector-curvature="0" />
          <path
             id="path3986"
             d="m 286.88,183.164 c 0.927,-2.898 1.364,-5.912 1.303,-8.985 -0.159,-7.479 -3.276,-14.463 -8.775,-19.663 -4.148,-3.926 -9.278,-6.501 -14.899,-7.491 -4.797,-9.596 -14.836,-15.732 -25.905,-15.732 -0.225,0 -0.438,0.001 -0.64,0.008 -1.926,0.04 -3.835,0.264 -5.69,0.669 -5.442,-5.909 -13.164,-9.271 -21.394,-9.271 l -0.435,0.004 -0.519,-0.004 c -8.216,0 -15.934,3.363 -21.382,9.271 -1.855,-0.406 -3.764,-0.631 -5.688,-0.669 -11.346,-0.26 -21.65,5.936 -26.542,15.725 -5.625,0.989 -10.757,3.565 -14.905,7.491 -5.497,5.204 -8.611,12.187 -8.77,19.663 -0.066,3.069 0.371,6.083 1.299,8.987 -11.836,5.919 -22.727,16.333 -29.401,28.194 -5.09,9.048 -5.081,20.531 0.021,29.259 3.973,6.796 10.372,10.694 17.56,10.694 7.957,0 19.506,-4.782 30.851,-26.53 0.436,2.205 0.89,4.366 1.35,6.417 3.811,17.016 10.882,40.699 22.931,56.895 9.458,12.711 20.615,19.154 33.16,19.154 12.544,0 23.702,-6.443 33.161,-19.154 12.057,-16.207 19.127,-39.885 22.935,-56.896 0.462,-2.071 0.915,-4.232 1.346,-6.417 11.351,21.747 22.897,26.529 30.854,26.531 7.185,0 13.586,-3.896 17.562,-10.691 5.105,-8.729 5.112,-20.215 0.02,-29.261 -6.673,-11.86 -17.566,-22.275 -29.408,-28.198 z m -155.46,44.092 c -4.094,5.223 -7.491,7.083 -9.305,7.083 -1.301,0 -2.301,-1.243 -2.909,-2.284 -1.733,-2.966 -2.248,-8.169 0.12,-12.375 7.645,-13.59 19.877,-21.157 27.169,-23.381 -4.685,13.769 -9.75,24.172 -15.075,30.957 z m 137.002,-45.255 c 0,0 -3.914,5.624 -14.164,4.187 2.188,9.146 -6.837,73.199 -27.517,95.671 -5.207,5.666 -10.551,8.42 -16.334,8.42 -5.776,0 -11.119,-2.754 -16.336,-8.42 -20.71,-22.506 -29.069,-94.722 -29.069,-94.722 0,0 -15.396,-0.304 -15.396,-12.596 0,-6.064 5.455,-10.993 11.874,-10.993 l 7.542,0.278 1.597,-6.796 c 1.197,-5.081 6.076,-8.766 11.599,-8.766 l 0.279,0.004 c 1.9,0.039 3.714,0.492 5.389,1.345 l 7.504,3.832 3.881,-7.479 c 2.017,-3.883 6.114,-6.294 10.692,-6.294 l 0.444,0.007 0.459,-0.008 c 4.573,0 8.666,2.412 10.679,6.295 l 3.885,7.479 7.498,-3.83 c 1.683,-0.855 3.497,-1.309 5.4,-1.348 l 0.273,-0.004 c 5.525,0 10.401,3.685 11.593,8.765 l 1.6,6.796 6.999,-0.262 0.546,-0.015 c 6.416,0 11.744,4.931 11.875,10.992 0.057,2.723 -0.936,5.374 -2.792,7.462 z m 33.189,50.053 c -0.609,1.044 -1.611,2.286 -2.911,2.286 -1.816,0 -5.212,-1.861 -9.307,-7.086 -5.32,-6.781 -10.387,-17.184 -15.074,-30.953 7.294,2.225 19.522,9.791 27.17,23.383 2.367,4.202 1.854,9.405 0.122,12.37 z"
             inkscape:connector-curvature="0" />
        </g>
      </g>
      <g
         id="g3992" />
      <g
         id="g3994" />
      <g
         id="g3996" />
      <g
         id="g3998" />
      <g
         id="g4000" />
      <g
         id="g4002" />
      <g
         id="g4004" />
      <g
         id="g4006" />
      <g
         id="g4008" />
      <g
         id="g4010" />
      <g
         id="g4012" />
      <g
         id="g4014" />
      <g
         id="g4016" />
      <g
         id="g4018" />
      <g
         id="g4020" />
    </g>
  </g>
</svg>
