<?xml version="1.0" encoding="UTF-8" standalone="no"?>
<!-- Created with Inkscape (http://www.inkscape.org/) -->

<svg
   xmlns:dc="http://purl.org/dc/elements/1.1/"
   xmlns:cc="http://creativecommons.org/ns#"
   xmlns:rdf="http://www.w3.org/1999/02/22-rdf-syntax-ns#"
   xmlns:svg="http://www.w3.org/2000/svg"
   xmlns="http://www.w3.org/2000/svg"
   xmlns:xlink="http://www.w3.org/1999/xlink"
   xmlns:sodipodi="http://sodipodi.sourceforge.net/DTD/sodipodi-0.dtd"
   xmlns:inkscape="http://www.inkscape.org/namespaces/inkscape"
   width="143.63092mm"
   height="143.63092mm"
   viewBox="0 0 143.63092 143.63092"
   version="1.1"
   id="svg31"
   inkscape:version="0.92.1 r15371"
   sodipodi:docname="Pato.svg">
  <defs
     id="defs25">
    <radialGradient
       inkscape:collect="always"
       xlink:href="#linearGradient43"
       id="radialGradient45"
       cx="32.606884"
       cy="6.1048827"
       fx="32.606884"
       fy="6.1048827"
       r="64.633911"
       gradientUnits="userSpaceOnUse"
       gradientTransform="matrix(-1.4614512,1.8803868,-1.7177367,-1.3350561,90.746839,-47.058306)" />
    <linearGradient
       inkscape:collect="always"
       id="linearGradient43">
      <stop
         style="stop-color:#66ff00;stop-opacity:1;"
         offset="0"
         id="stop39" />
      <stop
         style="stop-color:#00ff00;stop-opacity:0.44"
         offset="1"
         id="stop41" />
    </linearGradient>
  </defs>
  <sodipodi:namedview
     id="base"
     pagecolor="#ffffff"
     bordercolor="#666666"
     borderopacity="1.0"
     inkscape:pageopacity="0.0"
     inkscape:pageshadow="2"
     inkscape:zoom="0.49497475"
     inkscape:cx="209.75943"
     inkscape:cy="115.06841"
     inkscape:document-units="px"
     inkscape:current-layer="layer1"
     showgrid="false"
     inkscape:snap-object-midpoints="true"
     inkscape:snap-center="true"
     inkscape:pagecheckerboard="true"
     fit-margin-top="0"
     fit-margin-left="0"
     fit-margin-right="0"
     fit-margin-bottom="0"
     borderlayer="true"
     inkscape:window-width="667"
     inkscape:window-height="729"
     inkscape:window-x="683"
     inkscape:window-y="0"
     inkscape:window-maximized="0" />
  <metadata
     id="metadata28">
    <rdf:RDF>
      <cc:Work
         rdf:about="">
        <dc:format>image/svg+xml</dc:format>
        <dc:type
           rdf:resource="http://purl.org/dc/dcmitype/StillImage" />
        <dc:title></dc:title>
      </cc:Work>
    </rdf:RDF>
  </metadata>
  <g
     inkscape:label="Capa 1"
     inkscape:groupmode="layer"
     id="layer1"
     transform="translate(5.4495665e-7,16.720213)">
    <rect
       style="fill:#00112b;stroke-width:0.28221554"
       id="rect33"
       width="143.63092"
       height="143.63092"
       x="-5.4495666e-007"
       y="-16.720213"
       ry="20.641569" />
    <rect
       ry="13.318157"
       y="-9.5386639"
       x="7.1815486"
       height="129.26782"
       width="129.26782"
       id="rect41"
       style="fill:url(#radialGradient45);fill-opacity:1;stroke-width:0.25399399"
       rx="12.82894" />
    <g
       id="g1303"
       transform="matrix(0.18983447,0,0,0.20852448,23.217757,1.7129941)">
      <g
         id="g1219">
        <path
           id="path1215"
           d="m 266.808,506.063 c -4.532,0 -8.207,-3.673 -8.207,-8.207 v -24.739 c 0,-4.532 3.674,-8.207 8.207,-8.207 4.533,0 8.207,3.674 8.207,8.207 v 24.739 c 0,4.533 -3.675,8.207 -8.207,8.207 z"
           style="fill:#824533"
           inkscape:connector-curvature="0" />
        <path
           id="path1217"
           d="m 217.448,512 c -2.706,0 -5.354,-1.336 -6.92,-3.783 -2.442,-3.817 -1.33,-8.893 2.487,-11.336 l 15.127,-9.685 c 2.124,-1.361 4.758,-1.67 7.138,-0.834 l 26.334,9.223 h 28.874 c 4.532,0 8.207,3.674 8.207,8.207 0,4.533 -3.674,8.207 -8.207,8.207 h -30.269 c -0.924,0 -1.841,-0.155 -2.713,-0.462 l -23.881,-8.364 -11.761,7.531 c -1.368,0.877 -2.902,1.296 -4.416,1.296 z"
           style="fill:#824533"
           inkscape:connector-curvature="0" />
      </g>
      <path
         id="path1221"
         d="m 289.186,421.529 c -0.96,-0.934 -2.298,-1.38 -3.625,-1.2 -15.472,2.053 -31.293,2.105 -46.788,0.16 -1.508,-0.19 -3.007,0.418 -3.96,1.604 -0.951,1.186 -1.218,2.782 -0.706,4.214 l 16.103,45.002 c 0.622,1.741 2.272,2.902 4.121,2.902 h 27.119 c 2.242,0 4.122,-1.695 4.354,-3.925 l 4.687,-45.166 c 0.137,-1.334 -0.343,-2.657 -1.305,-3.591 z"
         style="fill:#f4d2b5"
         inkscape:connector-curvature="0" />
      <path
         id="path1223"
         d="M 100.193,108.474 C 90.37,104.14 82.04,97.997 76.102,90.709 c -1.834,-2.25 -5.101,-2.678 -7.451,-0.977 -6.507,4.711 -26.311,19.044 -51.461,28.037 -2.296,0.821 -3.77,3.062 -3.619,5.494 0.154,2.434 1.897,4.471 4.277,4.999 8.966,1.986 18.168,2.994 27.342,2.994 19.196,0 37.769,-4.328 55.197,-12.864 1.911,-0.936 3.108,-2.895 3.065,-5.023 -0.04,-2.126 -1.312,-4.036 -3.259,-4.895 z"
         style="fill:#f9bc50"
         inkscape:connector-curvature="0" />
      <path
         id="path1225"
         d="m 489.548,190.775 c -0.265,0.155 -0.532,0.299 -0.799,0.452 -0.16,0.097 -0.254,0.159 -0.254,0.159 l 0.009,-0.019 c -10.106,5.792 -20.245,10.695 -30.361,14.78 -23.47,78.613 -96.281,135.935 -182.526,135.935 -23.708,0 -46.386,-4.361 -67.323,-12.275 l 0.049,-0.086 c -12.46,-4.722 -23.616,-12.078 -32.816,-21.373 -0.002,-0.001 -0.002,-0.002 -0.004,-0.003 -4.086,-4.13 -7.783,-8.642 -11.037,-13.482 -0.036,-0.054 -0.072,-0.107 -0.107,-0.161 -2.381,-3.561 -4.518,-7.294 -6.393,-11.181 -0.088,-0.184 -0.175,-0.368 -0.263,-0.553 -0.536,-1.133 -1.052,-2.277 -1.543,-3.435 -0.067,-0.158 -0.137,-0.312 -0.201,-0.469 -1.085,-2.598 -2.054,-5.255 -2.902,-7.966 -0.088,-0.281 -0.169,-0.565 -0.254,-0.846 -0.318,-1.056 -0.617,-2.118 -0.899,-3.189 -0.092,-0.352 -0.186,-0.704 -0.274,-1.056 -0.284,-1.139 -0.547,-2.287 -0.789,-3.443 -0.047,-0.221 -0.101,-0.44 -0.146,-0.662 -0.278,-1.375 -0.524,-2.762 -0.74,-4.16 -0.045,-0.293 -0.079,-0.589 -0.121,-0.883 -0.156,-1.091 -0.297,-2.186 -0.415,-3.289 -0.049,-0.449 -0.09,-0.898 -0.133,-1.348 -0.093,-1.009 -0.167,-2.022 -0.23,-3.039 -0.026,-0.428 -0.056,-0.855 -0.074,-1.285 -0.065,-1.418 -0.107,-2.843 -0.107,-4.277 0,-1.416 0.043,-2.822 0.107,-4.223 0.018,-0.384 0.038,-0.766 0.06,-1.149 0.069,-1.158 0.154,-2.309 0.263,-3.455 0.026,-0.262 0.043,-0.525 0.071,-0.786 0.141,-1.357 0.314,-2.704 0.513,-4.041 0.054,-0.357 0.115,-0.711 0.172,-1.067 0.167,-1.046 0.353,-2.086 0.557,-3.12 0.072,-0.371 0.143,-0.743 0.219,-1.113 0.27,-1.288 0.564,-2.567 0.885,-3.834 0.079,-0.311 0.169,-0.618 0.253,-0.93 0.263,-0.991 0.543,-1.978 0.84,-2.958 0.13,-0.436 0.265,-0.871 0.402,-1.304 0.329,-1.032 0.675,-2.057 1.041,-3.075 0.139,-0.385 0.278,-0.768 0.421,-1.151 0.376,-1.007 0.769,-2.005 1.18,-2.994 0.204,-0.49 0.413,-0.976 0.624,-1.461 0.325,-0.75 0.662,-1.49 1.007,-2.229 0.218,-0.466 0.43,-0.936 0.654,-1.397 0.502,-1.03 1.026,-2.048 1.567,-3.056 0.291,-0.547 0.596,-1.084 0.899,-1.624 0.318,-0.567 0.641,-1.13 0.971,-1.69 0.338,-0.572 0.675,-1.146 1.026,-1.71 0.344,-0.557 0.704,-1.104 1.06,-1.653 0.63,-0.974 1.278,-1.934 1.944,-2.88 0.278,-0.393 0.554,-0.788 0.836,-1.175 0.464,-0.637 0.934,-1.269 1.413,-1.893 0.222,-0.291 0.453,-0.574 0.677,-0.862 1.018,-1.294 2.069,-2.562 3.153,-3.799 0.117,-0.133 0.231,-0.269 0.348,-0.402 0.605,-0.682 1.22,-1.351 1.844,-2.016 0.156,-0.165 0.314,-0.329 0.471,-0.493 2.009,-2.103 4.112,-4.11 6.309,-6.016 0.074,-0.063 0.148,-0.126 0.22,-0.19 5.444,-4.691 11.438,-8.754 17.88,-12.082 l -1.563,-29.316 c 2.755,-29.266 12.864,-66.159 13.148,-67.182 2.543,-8.283 2.953,-16.856 0.78,-25.219 C 203.035,8.864 162.29,-7.559 120.137,3.396 77.991,14.352 50.401,48.536 58.516,79.747 c 5.873,22.601 28.86,37.431 57.094,39.743 l -0.01,0.004 c 0,0 0.022,0 0.056,0 0.486,0.038 0.972,0.083 1.462,0.115 2.706,0.395 7.879,2.147 5.762,9.761 -0.562,1.513 -1.157,2.999 -1.774,4.469 -0.329,0.675 -0.59,1.282 -0.8,1.841 -8.636,19.613 -22.11,35.92 -38.753,57.645 -20.247,26.424 -24.453,61.66 -24.453,76.439 0,5.889 0.607,30.555 14.698,58.09 h -0.001 c 0,0 0.028,0.056 0.069,0.136 0.659,1.284 1.336,2.57 2.054,3.863 v 0 c 0,0 0.007,0.011 0.008,0.014 5.621,10.121 13.128,20.518 23.125,30.429 23.981,26.093 66.217,58.907 131.612,67.751 0.071,0.011 0.143,0.02 0.213,0.03 0.206,0.027 0.405,0.061 0.611,0.088 l -0.008,-0.004 c 10.46,1.503 21.152,2.289 32.029,2.289 85.237,0 159.322,-47.712 197.029,-117.882 17.818,-29.69 31.216,-67.993 39.619,-117.024 1.833,-11.361 -5.747,-8.293 -8.61,-6.769 z"
         style="fill:#efc49a"
         inkscape:connector-curvature="0" />
      <path
         id="path1227"
         d="m 309.632,427.248 c -6.568,0.542 -13.209,0.826 -19.916,0.826 -11.62,0 -23.044,-0.84 -34.22,-2.445 l 0.009,0.004 c -0.219,-0.027 -0.432,-0.065 -0.652,-0.094 -0.077,-0.01 -0.152,-0.021 -0.229,-0.032 -69.87,-9.451 -114.995,-44.51 -140.617,-72.387 -10.681,-10.589 -18.703,-21.698 -24.708,-32.511 -0.001,-0.003 -0.009,-0.015 -0.009,-0.015 h 10e-4 c -0.767,-1.382 -1.49,-2.755 -2.194,-4.128 -0.045,-0.085 -0.074,-0.146 -0.074,-0.146 h 0.001 C 71.968,286.9 71.32,260.547 71.32,254.254 c 0,-14.45 3.772,-47.197 20.988,-74.291 h -0.475 c -3.273,4.263 -6.7,8.682 -10.284,13.36 -20.248,26.425 -24.454,61.661 -24.454,76.44 0,5.889 0.607,30.555 14.698,58.09 h -0.001 c 0,0 0.028,0.056 0.069,0.136 0.659,1.284 1.336,2.57 2.054,3.863 v 0 c 0,0 0.007,0.011 0.008,0.014 5.621,10.121 13.128,20.518 23.125,30.429 23.981,26.093 66.217,58.907 131.612,67.751 0.071,0.011 0.143,0.02 0.213,0.03 0.206,0.027 0.405,0.061 0.611,0.088 l -0.008,-0.004 c 10.46,1.503 21.152,2.289 32.029,2.289 16.523,10e-4 32.624,-1.799 48.127,-5.201 z"
         style="opacity:0.18000004;fill:#231f20;enable-background:new"
         inkscape:connector-curvature="0" />
      <path
         id="path1229"
         d="m 460.82,190.187 c -0.855,-1.069 -2.167,-1.635 -3.795,-1.635 -2.046,0 -4.128,0.88 -4.811,1.196 -0.065,0.018 -0.128,0.04 -0.19,0.07 -19.596,9.494 -40.605,14.306 -62.448,14.306 -6.212,0 -12.605,-0.429 -19.003,-1.275 -1.137,-0.321 -2.605,-0.535 -4.485,-0.657 -7.623,-1.258 -15.243,-3.171 -22.595,-5.668 -8.292,-3.311 -17.38,-8.002 -27.01,-13.943 -8.13,-5.014 -14.698,-9.739 -17.865,-12.091 -0.936,-0.739 -1.891,-1.462 -2.877,-2.182 -0.053,-0.046 -0.108,-0.085 -0.166,-0.119 -15.981,-11.6 -34.866,-17.73 -54.613,-17.73 -51.368,0 -93.162,41.791 -93.162,93.161 0,38.319 23.977,73.202 59.715,86.954 0.109,0.112 0.244,0.199 0.392,0.255 21.673,8.192 44.455,12.345 67.711,12.345 88.068,0 164.488,-59.618 185.847,-145.005 0.855,-3.754 0.644,-6.366 -0.645,-7.982 z"
         style="fill:#f4d2b5"
         inkscape:connector-curvature="0" />
      <g
         id="g1235">
        <path
           id="path1231"
           d="m 381.805,274.354 c -2.276,0 -4.541,-0.941 -6.164,-2.785 -2.994,-3.402 -2.663,-8.589 0.74,-11.583 1.038,-0.915 2.065,-1.844 3.078,-2.786 3.317,-3.087 8.51,-2.903 11.599,0.415 3.088,3.317 2.902,8.51 -0.415,11.599 -1.124,1.047 -2.263,2.078 -3.417,3.093 -1.56,1.373 -3.495,2.047 -5.421,2.047 z"
           style="fill:#f9ece4"
           inkscape:connector-curvature="0" />
        <path
           id="path1233"
           d="m 278.975,313.144 c -19.898,0 -39.394,-3.554 -57.944,-10.565 -0.387,-0.146 -0.757,-0.32 -1.114,-0.519 -12.701,-5.032 -24.076,-13.192 -32.955,-23.653 -2.935,-3.456 -2.51,-8.636 0.944,-11.567 3.456,-2.934 8.637,-2.51 11.568,0.945 7.354,8.665 16.831,15.363 27.405,19.37 0.35,0.134 0.69,0.29 1.015,0.466 16.372,6.045 33.55,9.109 51.079,9.109 28.643,0 56.412,-8.217 80.306,-23.763 3.8,-2.473 8.883,-1.394 11.355,2.404 2.472,3.799 1.395,8.882 -2.404,11.355 -26.563,17.283 -57.427,26.418 -89.255,26.418 z"
           style="fill:#f9ece4"
           inkscape:connector-curvature="0" />
      </g>
      <circle
         id="circle1237"
         r="13.281"
         cy="52.313"
         cx="122.598"
         style="fill:#918d8f" />
      <g
         id="g1239" />
      <g
         id="g1241" />
      <g
         id="g1243" />
      <g
         id="g1245" />
      <g
         id="g1247" />
      <g
         id="g1249" />
      <g
         id="g1251" />
      <g
         id="g1253" />
      <g
         id="g1255" />
      <g
         id="g1257" />
      <g
         id="g1259" />
      <g
         id="g1261" />
      <g
         id="g1263" />
      <g
         id="g1265" />
      <g
         id="g1267" />
    </g>
  </g>
</svg>
