<?xml version="1.0" encoding="UTF-8" standalone="no"?>
<!-- Created with Inkscape (http://www.inkscape.org/) -->

<svg
   xmlns:dc="http://purl.org/dc/elements/1.1/"
   xmlns:cc="http://creativecommons.org/ns#"
   xmlns:rdf="http://www.w3.org/1999/02/22-rdf-syntax-ns#"
   xmlns:svg="http://www.w3.org/2000/svg"
   xmlns="http://www.w3.org/2000/svg"
   xmlns:xlink="http://www.w3.org/1999/xlink"
   xmlns:sodipodi="http://sodipodi.sourceforge.net/DTD/sodipodi-0.dtd"
   xmlns:inkscape="http://www.inkscape.org/namespaces/inkscape"
   width="143.63092mm"
   height="143.63092mm"
   viewBox="0 0 143.63092 143.63092"
   version="1.1"
   id="svg31"
   inkscape:version="0.92.1 r15371"
   sodipodi:docname="Pato2.svg">
  <defs
     id="defs25">
    <radialGradient
       inkscape:collect="always"
       xlink:href="#linearGradient43"
       id="radialGradient45"
       cx="32.606884"
       cy="6.1048827"
       fx="32.606884"
       fy="6.1048827"
       r="64.633911"
       gradientUnits="userSpaceOnUse"
       gradientTransform="matrix(-1.4614512,1.8803868,-1.7177367,-1.3350561,90.746839,-47.058306)" />
    <linearGradient
       inkscape:collect="always"
       id="linearGradient43">
      <stop
         style="stop-color:#66ff00;stop-opacity:1;"
         offset="0"
         id="stop39" />
      <stop
         style="stop-color:#00ff00;stop-opacity:0.44"
         offset="1"
         id="stop41" />
    </linearGradient>
  </defs>
  <sodipodi:namedview
     id="base"
     pagecolor="#ffffff"
     bordercolor="#666666"
     borderopacity="1.0"
     inkscape:pageopacity="0.0"
     inkscape:pageshadow="2"
     inkscape:zoom="0.49497475"
     inkscape:cx="209.75943"
     inkscape:cy="115.06841"
     inkscape:document-units="px"
     inkscape:current-layer="layer1"
     showgrid="false"
     inkscape:snap-object-midpoints="true"
     inkscape:snap-center="true"
     inkscape:pagecheckerboard="true"
     fit-margin-top="0"
     fit-margin-left="0"
     fit-margin-right="0"
     fit-margin-bottom="0"
     borderlayer="true"
     inkscape:window-width="667"
     inkscape:window-height="729"
     inkscape:window-x="683"
     inkscape:window-y="0"
     inkscape:window-maximized="0" />
  <metadata
     id="metadata28">
    <rdf:RDF>
      <cc:Work
         rdf:about="">
        <dc:format>image/svg+xml</dc:format>
        <dc:type
           rdf:resource="http://purl.org/dc/dcmitype/StillImage" />
        <dc:title></dc:title>
      </cc:Work>
    </rdf:RDF>
  </metadata>
  <g
     inkscape:label="Capa 1"
     inkscape:groupmode="layer"
     id="layer1"
     transform="translate(5.4495665e-7,16.720213)">
    <rect
       style="fill:#00112b;stroke-width:0.28221554"
       id="rect33"
       width="143.63092"
       height="143.63092"
       x="-5.4495666e-007"
       y="-16.720213"
       ry="20.641569" />
    <rect
       ry="13.318157"
       y="-9.5386639"
       x="7.1815486"
       height="129.26782"
       width="129.26782"
       id="rect41"
       style="fill:url(#radialGradient45);fill-opacity:1;stroke-width:0.25399399"
       rx="12.82894" />
    <g
       id="g1390"
       transform="matrix(0.26458335,0,0,0.26458335,26.803217,10.083004)">
      <g
         id="g1325">
        <path
           id="path1305"
           d="m 340.25,170.12 c 0,93.96 -76.16,170.13 -170.12,170.13 -9.27,0 -18.36,-0.74 -27.23,-2.17 C 87.96,329.25 41.82,294.1 17.81,245.98 6.41,223.14 0,197.38 0,170.12 0,76.16 76.17,0 170.13,0 264.09,0 340.25,76.16 340.25,170.12 Z"
           style="fill:#cccccc"
           inkscape:connector-curvature="0" />
        <path
           id="path1307"
           d="m 200.23,211.39 v 12.98 c 0,45.91 -22.11,87.65 -57.33,113.71 C 87.96,329.25 41.82,294.1 17.81,245.98 l 43.75,-34.59 z"
           style="fill:#bc8a58"
           inkscape:connector-curvature="0" />
        <path
           id="path1309"
           d="m 263.48,93.61 c 0,32.17 -26.08,58.25 -58.26,58.25 h -4.99 v 59.53 H 61.56 l 5.58,-17 25.45,-77.49 C 108.58,68.24 154,35.35 205.22,35.35 c 16.09,0 30.66,6.52 41.2,17.06 10.54,10.54 17.06,25.11 17.06,41.2 z"
           style="fill:#00a99d"
           inkscape:connector-curvature="0" />
        <path
           id="path1311"
           d="m 231.292,88.352 v 0 c -9.734,7.72 -23.882,6.087 -31.602,-3.646 v 0 0 c 9.734,-7.72 23.882,-6.088 31.602,3.646 z"
           style="fill:#4d4d4d"
           inkscape:connector-curvature="0" />
        <g
           id="g1319">
          <path
             id="path1313"
             d="m 332.22,143.93 c -2.9,4.5 -6.89,8.08 -11.51,10.44 -4.14,2.12 -8.79,3.29 -13.58,3.29 h -0.05 c -19.45,-0.03 -51.05,-2.47 -68.1,-16.65 0.74,-1.46 1.4,-2.94 1.98,-4.45 17.42,12.81 47.4,15.07 66.12,15.1 h 0.05 c 4.79,0 9.44,-1.17 13.58,-3.29 2.77,-1.42 5.32,-3.27 7.54,-5.51 1.31,0.38 2.63,0.74 3.97,1.07 z"
             style="fill:#ddcf6b"
             inkscape:connector-curvature="0" />
          <path
             id="path1315"
             d="m 328.25,142.86 c -2.22,2.24 -4.77,4.09 -7.54,5.51 -4.14,2.12 -8.79,3.29 -13.58,3.29 h -0.05 c -18.72,-0.03 -48.7,-2.29 -66.12,-15.1 2.22,-5.72 3.34,-11.78 3.34,-17.86 0,-0.98 -0.03,-1.97 -0.09,-2.95 -0.23,-3.83 -0.9,-7.65 -2.03,-11.38 l -1.01,-3.33 1.92,0.8 2.66,1.1 c 5.79,2.4 12.93,0.6 17.46,-3.72 0,0 21.18,26.49 54.24,39.87 3.48,1.41 7.08,2.68 10.8,3.77 z"
             style="fill:#efe373"
             inkscape:connector-curvature="0" />
          <path
             id="path1317"
             d="m 332.222,143.931 c -2.897,4.501 -6.891,8.078 -11.516,10.443 -2.504,-2.758 -4.035,-6.417 -4.035,-10.443 0,-1.694 0.27,-3.323 0.777,-4.845 4.699,1.907 9.634,3.56 14.774,4.845 z"
             style="fill:#4d4d4d"
             inkscape:connector-curvature="0" />
        </g>
        <polygon
           id="polygon1321"
           points="200.23,194.39 200.23,211.39 61.56,211.39 67.14,194.39 "
           style="fill:#f2f2f2" />
        <path
           id="path1323"
           d="m 269.684,119.854 -7.997,-3.341 c -1.359,-0.568 -2,-2.13 -1.433,-3.489 v 0 c 0.568,-1.359 2.13,-2 3.489,-1.433 l 7.997,3.341 c 1.359,0.568 2,2.13 1.433,3.489 v 0 c -0.569,1.36 -2.13,2.001 -3.489,1.433 z"
           style="fill:#4d4d4d"
           inkscape:connector-curvature="0" />
      </g>
      <g
         id="g1327" />
      <g
         id="g1329" />
      <g
         id="g1331" />
      <g
         id="g1333" />
      <g
         id="g1335" />
      <g
         id="g1337" />
      <g
         id="g1339" />
      <g
         id="g1341" />
      <g
         id="g1343" />
      <g
         id="g1345" />
      <g
         id="g1347" />
      <g
         id="g1349" />
      <g
         id="g1351" />
      <g
         id="g1353" />
      <g
         id="g1355" />
    </g>
  </g>
</svg>
