<?xml version="1.0" encoding="UTF-8" standalone="no"?>
<!-- Created with Inkscape (http://www.inkscape.org/) -->

<svg
   xmlns:dc="http://purl.org/dc/elements/1.1/"
   xmlns:cc="http://creativecommons.org/ns#"
   xmlns:rdf="http://www.w3.org/1999/02/22-rdf-syntax-ns#"
   xmlns:svg="http://www.w3.org/2000/svg"
   xmlns="http://www.w3.org/2000/svg"
   xmlns:xlink="http://www.w3.org/1999/xlink"
   xmlns:sodipodi="http://sodipodi.sourceforge.net/DTD/sodipodi-0.dtd"
   xmlns:inkscape="http://www.inkscape.org/namespaces/inkscape"
   width="143.63092mm"
   height="143.63092mm"
   viewBox="0 0 143.63092 143.63092"
   version="1.1"
   id="svg31"
   inkscape:version="0.92.1 r15371"
   sodipodi:docname="Perro2.svg">
  <defs
     id="defs25">
    <radialGradient
       inkscape:collect="always"
       xlink:href="#linearGradient43"
       id="radialGradient45"
       cx="32.606884"
       cy="6.1048827"
       fx="32.606884"
       fy="6.1048827"
       r="64.633911"
       gradientUnits="userSpaceOnUse"
       gradientTransform="matrix(-1.4614512,1.8803868,-1.7177367,-1.3350561,90.746839,-47.058306)" />
    <linearGradient
       inkscape:collect="always"
       id="linearGradient43">
      <stop
         style="stop-color:#66ff00;stop-opacity:1;"
         offset="0"
         id="stop39" />
      <stop
         style="stop-color:#00ff00;stop-opacity:0.44"
         offset="1"
         id="stop41" />
    </linearGradient>
  </defs>
  <sodipodi:namedview
     id="base"
     pagecolor="#ffffff"
     bordercolor="#666666"
     borderopacity="1.0"
     inkscape:pageopacity="0.0"
     inkscape:pageshadow="2"
     inkscape:zoom="0.49497475"
     inkscape:cx="209.75943"
     inkscape:cy="115.06841"
     inkscape:document-units="px"
     inkscape:current-layer="layer1"
     showgrid="false"
     inkscape:snap-object-midpoints="true"
     inkscape:snap-center="true"
     inkscape:pagecheckerboard="true"
     fit-margin-top="0"
     fit-margin-left="0"
     fit-margin-right="0"
     fit-margin-bottom="0"
     borderlayer="true"
     inkscape:window-width="667"
     inkscape:window-height="729"
     inkscape:window-x="683"
     inkscape:window-y="0"
     inkscape:window-maximized="0" />
  <metadata
     id="metadata28">
    <rdf:RDF>
      <cc:Work
         rdf:about="">
        <dc:format>image/svg+xml</dc:format>
        <dc:type
           rdf:resource="http://purl.org/dc/dcmitype/StillImage" />
        <dc:title></dc:title>
      </cc:Work>
    </rdf:RDF>
  </metadata>
  <g
     inkscape:label="Capa 1"
     inkscape:groupmode="layer"
     id="layer1"
     transform="translate(5.4495665e-7,16.720213)">
    <rect
       style="fill:#00112b;stroke-width:0.28221554"
       id="rect33"
       width="143.63092"
       height="143.63092"
       x="-5.4495666e-007"
       y="-16.720213"
       ry="20.641569" />
    <rect
       ry="13.318157"
       y="-9.5386639"
       x="7.1815486"
       height="129.26782"
       width="129.26782"
       id="rect41"
       style="fill:url(#radialGradient45);fill-opacity:1;stroke-width:0.25399399"
       rx="12.82894" />
    <g
       id="g3061"
       transform="matrix(0.21529324,0,0,0.20248838,16.70039,3.2581207)">
      <g
         id="g2996">
        <g
           id="g2994">
          <g
             id="g2992">
            <path
               id="path2976"
               d="m 115.652,306.304 c 4.181,2.074 9.284,0.401 11.401,-3.789 2.125,-4.181 0.444,-9.31 -3.729,-11.46 -1.237,-0.64 -30.455,-16.171 -38.11,-62.063 -0.623,-3.772 -3.686,-6.664 -7.501,-7.074 -3.9,-0.435 -7.415,1.766 -8.841,5.308 -18.517,46.31 16.401,99.533 17.894,101.777 1.638,2.466 4.352,3.797 7.1,3.797 1.621,0 3.268,-0.469 4.727,-1.434 3.917,-2.611 4.983,-7.902 2.381,-11.827 -0.213,-0.324 -14.66,-22.417 -19.115,-48.435 14.039,25.028 32.692,34.645 33.793,35.2 z"
               inkscape:connector-curvature="0" />
            <path
               id="path2978"
               d="m 155.273,324.096 c 4.617,-0.922 7.62,-5.419 6.699,-10.035 -0.93,-4.617 -5.376,-7.62 -10.044,-6.69 -17.126,3.422 -49.528,22.067 -49.528,68.096 0,33.399 6.997,56.568 12.399,69.453 -18.68,3.627 -29.466,15.377 -29.466,32.947 0,19.78 17.946,34.133 42.667,34.133 h 8.533 c 14.148,0 22.852,-10.607 23.791,-11.81 2.901,-3.712 2.244,-9.079 -1.476,-11.981 -3.712,-2.91 -9.079,-2.236 -11.972,1.468 -0.043,0.06 -4.378,5.257 -10.342,5.257 H 128 c -12.723,0 -25.6,-5.862 -25.6,-17.067 0,-4.224 0,-17.067 25.6,-17.067 3.132,0 5.999,-1.732 7.492,-4.489 1.493,-2.756 1.34,-6.118 -0.367,-8.738 -0.162,-0.247 -15.659,-24.559 -15.659,-72.107 0.001,-43.272 34.39,-51.063 35.807,-51.37 z"
               inkscape:connector-curvature="0" />
            <path
               id="path2980"
               d="m 397.201,444.919 c 5.402,-12.885 12.399,-36.053 12.399,-69.453 0,-46.029 -32.401,-64.674 -49.527,-68.096 -4.625,-0.913 -9.114,2.065 -10.044,6.69 -0.922,4.617 2.082,9.114 6.699,10.035 1.468,0.299 35.806,7.672 35.806,51.371 0,47.548 -15.497,71.859 -15.633,72.064 -1.741,2.62 -1.911,5.99 -0.427,8.764 1.485,2.773 4.378,4.506 7.526,4.506 25.6,0 25.6,12.843 25.6,17.067 0,11.204 -12.877,17.067 -25.6,17.067 h -8.533 c -5.888,0 -10.223,-5.111 -10.394,-5.316 -2.91,-3.644 -8.226,-4.292 -11.921,-1.408 -3.721,2.901 -4.378,8.269 -1.476,11.981 0.939,1.203 9.643,11.81 23.791,11.81 H 384 c 24.73,0 42.667,-14.353 42.667,-34.133 0,-17.571 -10.786,-29.322 -29.466,-32.949 z"
               inkscape:connector-curvature="0" />
            <path
               id="path2982"
               d="m 308.634,444.382 15.514,-93.107 c 0.776,-4.651 -2.364,-9.045 -7.014,-9.822 -4.668,-0.768 -9.045,2.364 -9.813,7.006 l -15.881,95.275 h -1.306 c -4.719,0 -8.533,3.823 -8.533,8.533 0,4.71 3.814,8.533 8.533,8.533 h 8.533 c 25.6,0 25.6,12.843 25.6,17.067 0,11.204 -12.877,17.067 -25.6,17.067 h -8.533 c -14.114,0 -25.6,-11.486 -25.6,-25.6 V 349.867 c 0,-4.71 -3.814,-8.533 -8.533,-8.533 -4.719,0 -8.533,3.823 -8.533,8.533 v 119.467 c 0,14.114 -11.486,25.6 -25.6,25.6 h -8.533 c -12.723,0 -25.6,-5.862 -25.6,-17.067 0,-4.224 0,-17.067 25.6,-17.067 h 8.533 c 4.719,0 8.533,-3.823 8.533,-8.533 0,-4.71 -3.814,-8.533 -8.533,-8.533 h -1.306 l -15.88,-95.275 c -0.759,-4.642 -5.154,-7.774 -9.813,-7.006 -4.651,0.777 -7.791,5.171 -7.014,9.822 l 15.514,93.107 c -20.668,2.859 -32.7,14.925 -32.7,33.485 0,19.78 17.946,34.133 42.667,34.133 h 8.533 c 13.943,0 26.342,-6.724 34.133,-17.092 7.789,10.368 20.188,17.092 34.131,17.092 h 8.533 c 24.73,0 42.667,-14.353 42.667,-34.133 0,-18.56 -12.032,-30.626 -32.699,-33.485 z"
               inkscape:connector-curvature="0" />
            <path
               id="path2984"
               d="M 468.429,72.986 C 449.673,35.465 404.489,0 375.467,0 358.989,0 330.633,25.549 316.391,39.475 299.93,25.37 279.893,17.067 256,17.067 c -23.893,0 -43.93,8.303 -60.39,22.409 C 181.367,25.549 153.011,0 136.533,0 107.511,0 62.327,35.465 43.571,72.986 c -5.649,11.281 -9.438,26.53 -9.438,37.948 0,23.526 19.14,42.667 42.667,42.667 21.205,0 30.694,-13.943 38.306,-25.148 0.93,-1.357 1.852,-2.722 2.927,-4.25 l 34.133,-51.2 c 2.62,-3.925 1.562,-9.225 -2.364,-11.836 -3.942,-2.628 -9.225,-1.562 -11.836,2.364 l -34.005,51.012 c -1.007,1.425 -1.988,2.867 -2.97,4.309 -7.672,11.298 -12.587,17.681 -24.192,17.681 -14.114,0 -25.6,-11.486 -25.6,-25.6 0,-8.866 3.14,-21.333 7.637,-30.319 16.811,-33.63 57.455,-63.548 77.696,-63.548 7.279,0 28.945,16.947 47.01,34.509 -32.06,37.274 -47.01,99.678 -47.01,161.758 0,78.788 34.611,110.933 119.467,110.933 84.856,0 119.467,-32.145 119.467,-110.933 0,-62.089 -14.95,-124.484 -47.01,-161.758 18.065,-17.562 39.723,-34.509 47.01,-34.509 20.241,0 60.885,29.918 77.705,63.548 4.489,8.986 7.629,21.453 7.629,30.319 0,14.114 -11.486,25.6 -25.6,25.6 -12.023,0 -16.768,-6.315 -24.772,-18.406 L 374.033,63.531 c -2.611,-3.925 -7.91,-4.992 -11.836,-2.364 -3.925,2.611 -4.983,7.91 -2.364,11.836 l 36.361,54.545 c 8.09,12.211 17.246,26.052 39.006,26.052 23.526,0 42.667,-19.14 42.667,-42.667 0,-11.417 -3.789,-26.666 -9.438,-37.947 z M 358.4,213.333 c 0,69.308 -26.803,93.867 -102.4,93.867 -75.597,0 -102.4,-24.559 -102.4,-93.867 0,-89.199 31.667,-179.2 102.4,-179.2 70.733,0 102.4,90.001 102.4,179.2 z"
               inkscape:connector-curvature="0" />
            <path
               id="path2986"
               d="m 299.614,252.092 c -1.459,2.842 -7.159,3.874 -9.481,3.908 -9.992,0 -20.318,-8.508 -24.047,-18.287 14.029,-3.174 24.047,-12.689 24.047,-24.38 0,-14.353 -14.993,-25.6 -34.133,-25.6 -19.14,0 -34.133,11.247 -34.133,25.6 0,11.691 10.018,21.205 24.047,24.38 -3.721,9.779 -14.046,18.287 -23.988,18.287 -2.449,-0.034 -8.03,-1.067 -9.591,-4.002 -2.21,-4.164 -7.373,-5.743 -11.537,-3.533 -4.164,2.21 -5.751,7.373 -3.533,11.537 6.741,12.698 22.793,13.065 24.602,13.065 13.252,0 26.069,-7.569 34.133,-18.398 8.064,10.829 20.881,18.398 34.133,18.398 1.826,0 18.057,-0.375 24.653,-13.158 2.159,-4.19 0.512,-9.335 -3.678,-11.494 -4.19,-2.159 -9.327,-0.522 -11.494,3.677 z M 256,221.867 c -10.257,0 -17.067,-5.137 -17.067,-8.533 0,-3.396 6.81,-8.533 17.067,-8.533 10.419,0 17.067,5.052 17.067,8.533 0,3.481 -6.648,8.533 -17.067,8.533 z"
               inkscape:connector-curvature="0" />
            <path
               id="path2988"
               d="m 294.4,153.6 c 7.057,0 12.8,-5.743 12.8,-12.8 0,-7.057 -5.743,-12.8 -12.8,-12.8 -7.057,0 -12.8,5.743 -12.8,12.8 0,7.057 5.743,12.8 12.8,12.8 z"
               inkscape:connector-curvature="0" />
            <path
               id="path2990"
               d="m 217.6,153.6 c 7.057,0 12.8,-5.743 12.8,-12.8 0,-7.057 -5.743,-12.8 -12.8,-12.8 -7.057,0 -12.8,5.743 -12.8,12.8 0,7.057 5.743,12.8 12.8,12.8 z"
               inkscape:connector-curvature="0" />
          </g>
        </g>
      </g>
      <g
         id="g2998" />
      <g
         id="g3000" />
      <g
         id="g3002" />
      <g
         id="g3004" />
      <g
         id="g3006" />
      <g
         id="g3008" />
      <g
         id="g3010" />
      <g
         id="g3012" />
      <g
         id="g3014" />
      <g
         id="g3016" />
      <g
         id="g3018" />
      <g
         id="g3020" />
      <g
         id="g3022" />
      <g
         id="g3024" />
      <g
         id="g3026" />
    </g>
  </g>
</svg>
