<?xml version="1.0" encoding="UTF-8" standalone="no"?>
<!-- Created with Inkscape (http://www.inkscape.org/) -->

<svg
   xmlns:dc="http://purl.org/dc/elements/1.1/"
   xmlns:cc="http://creativecommons.org/ns#"
   xmlns:rdf="http://www.w3.org/1999/02/22-rdf-syntax-ns#"
   xmlns:svg="http://www.w3.org/2000/svg"
   xmlns="http://www.w3.org/2000/svg"
   xmlns:xlink="http://www.w3.org/1999/xlink"
   xmlns:sodipodi="http://sodipodi.sourceforge.net/DTD/sodipodi-0.dtd"
   xmlns:inkscape="http://www.inkscape.org/namespaces/inkscape"
   width="143.63092mm"
   height="143.63092mm"
   viewBox="0 0 143.63092 143.63092"
   version="1.1"
   id="svg31"
   inkscape:version="0.92.1 r15371"
   sodipodi:docname="Perro.svg">
  <defs
     id="defs25">
    <radialGradient
       inkscape:collect="always"
       xlink:href="#linearGradient43"
       id="radialGradient45"
       cx="32.606884"
       cy="6.1048827"
       fx="32.606884"
       fy="6.1048827"
       r="64.633911"
       gradientUnits="userSpaceOnUse"
       gradientTransform="matrix(-1.4614512,1.8803868,-1.7177367,-1.3350561,90.746839,-47.058306)" />
    <linearGradient
       inkscape:collect="always"
       id="linearGradient43">
      <stop
         style="stop-color:#66ff00;stop-opacity:1;"
         offset="0"
         id="stop39" />
      <stop
         style="stop-color:#00ff00;stop-opacity:0.44"
         offset="1"
         id="stop41" />
    </linearGradient>
  </defs>
  <sodipodi:namedview
     id="base"
     pagecolor="#ffffff"
     bordercolor="#666666"
     borderopacity="1.0"
     inkscape:pageopacity="0.0"
     inkscape:pageshadow="2"
     inkscape:zoom="0.49497475"
     inkscape:cx="209.75943"
     inkscape:cy="115.06841"
     inkscape:document-units="px"
     inkscape:current-layer="layer1"
     showgrid="false"
     inkscape:snap-object-midpoints="true"
     inkscape:snap-center="true"
     inkscape:pagecheckerboard="true"
     fit-margin-top="0"
     fit-margin-left="0"
     fit-margin-right="0"
     fit-margin-bottom="0"
     borderlayer="true"
     inkscape:window-width="667"
     inkscape:window-height="729"
     inkscape:window-x="683"
     inkscape:window-y="0"
     inkscape:window-maximized="0" />
  <metadata
     id="metadata28">
    <rdf:RDF>
      <cc:Work
         rdf:about="">
        <dc:format>image/svg+xml</dc:format>
        <dc:type
           rdf:resource="http://purl.org/dc/dcmitype/StillImage" />
        <dc:title></dc:title>
      </cc:Work>
    </rdf:RDF>
  </metadata>
  <g
     inkscape:label="Capa 1"
     inkscape:groupmode="layer"
     id="layer1"
     transform="translate(5.4495665e-7,16.720213)">
    <rect
       style="fill:#00112b;stroke-width:0.28221554"
       id="rect33"
       width="143.63092"
       height="143.63092"
       x="-5.4495666e-007"
       y="-16.720213"
       ry="20.641569" />
    <rect
       ry="13.318157"
       y="-9.5386639"
       x="7.1815486"
       height="129.26782"
       width="129.26782"
       id="rect41"
       style="fill:url(#radialGradient45);fill-opacity:1;stroke-width:0.25399399"
       rx="12.82894" />
    <g
       id="g2974"
       transform="matrix(0.21380385,0,0,0.21295769,17.362826,-1.6815089)">
      <path
         id="path2865"
         d="m 151.522,489.301 32.542,-235.932 h 141.241 l 32.542,235.932 c 1.463,10.609 -6.78,20.068 -17.49,20.068 H 169.011 c -10.709,0 -18.952,-9.458 -17.489,-20.068 z"
         style="fill:#d7b48d"
         inkscape:connector-curvature="0" />
      <path
         id="path2867"
         d="m 331.114,295.476 -5.808,-42.107 H 184.064 l -5.808,42.107 c 17.774,22.699 45.364,37.341 76.429,37.341 31.065,0 58.655,-14.642 76.429,-37.341 z"
         style="fill:#c09b78"
         inkscape:connector-curvature="0" />
      <path
         id="path2869"
         d="M 316.478,32.679 346.539,2.618 c 3.034,-3.034 7.888,-3.513 11.371,-1.008 48.884,35.151 73.326,84.035 73.326,84.035 0,0 -17.655,61.793 -61.793,79.448 z"
         style="fill:#64463c"
         inkscape:connector-curvature="0" />
      <path
         id="path2871"
         d="m 353.481,0.153 c 1.555,0.109 3.097,0.498 4.43,1.457 48.884,35.151 73.326,84.035 73.326,84.035 0,0 -17.655,61.793 -61.793,79.448 0,0 43.225,-69.283 -15.963,-164.94 z"
         style="fill:#553732"
         inkscape:connector-curvature="0" />
      <path
         id="path2873"
         d="M 192.892,32.679 162.83,2.618 c -3.034,-3.034 -7.887,-3.513 -11.371,-1.008 -48.884,35.151 -73.326,84.035 -73.326,84.035 0,0 17.655,61.793 61.793,79.448 z"
         style="fill:#64463c"
         inkscape:connector-curvature="0" />
      <path
         id="path2875"
         d="m 254.685,279.852 v 0 c -63.38,0 -114.759,-51.379 -114.759,-114.758 v -35.311 c 0,-63.379 51.379,-114.759 114.758,-114.759 v 0 c 63.379,0 114.758,51.379 114.758,114.759 v 35.311 c 0.002,63.379 -51.378,114.758 -114.757,114.758 z"
         style="fill:#ebc9a0"
         inkscape:connector-curvature="0" />
      <path
         id="path2877"
         d="m 201.719,165.093 v -35.31 c 0,-52.659 35.512,-96.924 83.862,-110.429 -9.843,-2.749 -20.176,-4.329 -30.897,-4.329 -63.379,0 -114.759,51.379 -114.759,114.759 v 35.31 c 0,63.379 51.379,114.759 114.759,114.759 10.72,0 21.053,-1.58 30.897,-4.329 -48.35,-13.507 -83.862,-57.772 -83.862,-110.431 z"
         style="fill:#d7b48d"
         inkscape:connector-curvature="0" />
      <path
         id="path2879"
         d="m 184.674,226.886 c -0.362,2.898 -0.61,5.831 -0.61,8.828 0,39.003 31.618,70.621 70.621,70.621 39.003,0 70.621,-31.618 70.621,-70.621 0,-2.996 -0.248,-5.929 -0.61,-8.828 z"
         style="fill:#f5dcb4"
         inkscape:connector-curvature="0" />
      <path
         id="path2881"
         d="m 184.674,226.886 c -0.362,2.898 -0.61,5.831 -0.61,8.828 0,20.83 9.073,39.495 23.418,52.421 2.454,0.322 4.939,0.545 7.479,0.545 14.029,0 26.874,-5.086 36.849,-13.482 1.671,-1.406 4.08,-1.406 5.751,0 9.975,8.396 22.82,13.482 36.849,13.482 2.54,0 5.025,-0.223 7.479,-0.545 14.345,-12.926 23.418,-31.591 23.418,-52.421 0,-2.996 -0.248,-5.929 -0.61,-8.828 z"
         style="fill:#ebc9a0"
         inkscape:connector-curvature="0" />
      <g
         id="g2887">
        <circle
           id="circle2883"
           r="39.723999"
           cy="231.299"
           cx="214.965"
           style="fill:#faebc8" />
        <circle
           id="circle2885"
           r="39.723999"
           cy="231.299"
           cx="294.405"
           style="fill:#faebc8" />
      </g>
      <g
         id="g2893">
        <circle
           id="circle2889"
           r="17.655001"
           cy="218.05901"
           cx="254.685"
           style="fill:#553732" />
        <path
           id="path2891"
           d="m 155.889,0.153 c -1.555,0.109 -3.097,0.498 -4.43,1.457 -48.884,35.151 -73.326,84.035 -73.326,84.035 0,0 17.655,61.793 61.793,79.448 0,0 -43.225,-69.283 15.963,-164.94 z"
           style="fill:#553732"
           inkscape:connector-curvature="0" />
      </g>
      <path
         id="path2895"
         d="m 316.444,420.296 c -0.448,-4.858 -4.655,-8.384 -9.595,-7.996 -4.853,0.444 -8.431,4.737 -7.991,9.591 l 1.044,11.482 c 2.417,26.589 -18.518,49.513 -45.216,49.513 v 0 c -26.698,0 -47.633,-22.925 -45.216,-49.513 l 1.044,-11.482 c 0.44,-4.853 -3.138,-9.147 -7.991,-9.591 -4.957,-0.405 -9.147,3.138 -9.595,7.996 l -8.099,89.073 h 139.712 z"
         style="fill:#c09b78"
         inkscape:connector-curvature="0" />
      <g
         id="g2901">
        <path
           id="path2897"
           d="m 201.719,165.093 c -4.879,0 -8.828,-3.953 -8.828,-8.828 v -8.828 c 0,-4.875 3.948,-8.828 8.828,-8.828 4.879,0 8.828,3.953 8.828,8.828 v 8.828 c 0,4.876 -3.948,8.828 -8.828,8.828 z"
           style="fill:#553732"
           inkscape:connector-curvature="0" />
        <path
           id="path2899"
           d="m 307.651,165.093 c -4.879,0 -8.828,-3.953 -8.828,-8.828 v -8.828 c 0,-4.875 3.948,-8.828 8.828,-8.828 4.88,0 8.828,3.953 8.828,8.828 v 8.828 c -10e-4,4.876 -3.949,8.828 -8.828,8.828 z"
           style="fill:#553732"
           inkscape:connector-curvature="0" />
      </g>
      <g
         id="g2903" />
      <g
         id="g2905" />
      <g
         id="g2907" />
      <g
         id="g2909" />
      <g
         id="g2911" />
      <g
         id="g2913" />
      <g
         id="g2915" />
      <g
         id="g2917" />
      <g
         id="g2919" />
      <g
         id="g2921" />
      <g
         id="g2923" />
      <g
         id="g2925" />
      <g
         id="g2927" />
      <g
         id="g2929" />
      <g
         id="g2931" />
    </g>
  </g>
</svg>
