<?xml version="1.0" encoding="UTF-8" standalone="no"?>
<!-- Created with Inkscape (http://www.inkscape.org/) -->

<svg
   xmlns:dc="http://purl.org/dc/elements/1.1/"
   xmlns:cc="http://creativecommons.org/ns#"
   xmlns:rdf="http://www.w3.org/1999/02/22-rdf-syntax-ns#"
   xmlns:svg="http://www.w3.org/2000/svg"
   xmlns="http://www.w3.org/2000/svg"
   xmlns:xlink="http://www.w3.org/1999/xlink"
   xmlns:sodipodi="http://sodipodi.sourceforge.net/DTD/sodipodi-0.dtd"
   xmlns:inkscape="http://www.inkscape.org/namespaces/inkscape"
   width="143.63092mm"
   height="143.63092mm"
   viewBox="0 0 143.63092 143.63092"
   version="1.1"
   id="svg31"
   inkscape:version="0.92.1 r15371"
   sodipodi:docname="Pollito.svg">
  <defs
     id="defs25">
    <radialGradient
       inkscape:collect="always"
       xlink:href="#linearGradient43"
       id="radialGradient45"
       cx="32.606884"
       cy="6.1048827"
       fx="32.606884"
       fy="6.1048827"
       r="64.633911"
       gradientUnits="userSpaceOnUse"
       gradientTransform="matrix(-1.4614512,1.8803868,-1.7177367,-1.3350561,90.746839,-47.058306)" />
    <linearGradient
       inkscape:collect="always"
       id="linearGradient43">
      <stop
         style="stop-color:#66ff00;stop-opacity:1;"
         offset="0"
         id="stop39" />
      <stop
         style="stop-color:#00ff00;stop-opacity:0.44"
         offset="1"
         id="stop41" />
    </linearGradient>
  </defs>
  <sodipodi:namedview
     id="base"
     pagecolor="#ffffff"
     bordercolor="#666666"
     borderopacity="1.0"
     inkscape:pageopacity="0.0"
     inkscape:pageshadow="2"
     inkscape:zoom="0.49497475"
     inkscape:cx="209.75943"
     inkscape:cy="115.06841"
     inkscape:document-units="px"
     inkscape:current-layer="layer1"
     showgrid="false"
     inkscape:snap-object-midpoints="true"
     inkscape:snap-center="true"
     inkscape:pagecheckerboard="true"
     fit-margin-top="0"
     fit-margin-left="0"
     fit-margin-right="0"
     fit-margin-bottom="0"
     borderlayer="true"
     inkscape:window-width="667"
     inkscape:window-height="729"
     inkscape:window-x="683"
     inkscape:window-y="0"
     inkscape:window-maximized="0" />
  <metadata
     id="metadata28">
    <rdf:RDF>
      <cc:Work
         rdf:about="">
        <dc:format>image/svg+xml</dc:format>
        <dc:type
           rdf:resource="http://purl.org/dc/dcmitype/StillImage" />
        <dc:title></dc:title>
      </cc:Work>
    </rdf:RDF>
  </metadata>
  <g
     inkscape:label="Capa 1"
     inkscape:groupmode="layer"
     id="layer1"
     transform="translate(5.4495665e-7,16.720213)">
    <rect
       style="fill:#00112b;stroke-width:0.28221554"
       id="rect33"
       width="143.63092"
       height="143.63092"
       x="-5.4495666e-007"
       y="-16.720213"
       ry="20.641569" />
    <rect
       ry="13.318157"
       y="-9.5386639"
       x="7.1815486"
       height="129.26782"
       width="129.26782"
       id="rect41"
       style="fill:url(#radialGradient45);fill-opacity:1;stroke-width:0.25399399"
       rx="12.82894" />
    <g
       id="g1567"
       transform="matrix(0.21571472,0,0,0.20835563,18.569517,0.62785512)">
      <path
         id="path1467"
         d="m 420.718,280.206 c 0,76.997 -77.848,101.825 -173.891,101.825 -96.028,0 -173.875,-24.82 -173.875,-101.825 0,-77.005 77.848,-139.406 173.875,-139.406 96.044,0 173.891,62.401 173.891,139.406 z"
         style="fill:#e09b00"
         inkscape:connector-curvature="0" />
      <path
         id="path1469"
         d="m 420.718,280.206 c 0,-38.164 -19.157,-72.72 -50.121,-97.902 l -17.92,17.92 -21.173,-21.173 -21.173,21.173 -21.173,-21.173 -21.173,21.173 -21.157,-21.165 -21.173,21.173 -21.173,-21.173 -21.173,21.173 -21.173,-21.173 -21.173,21.173 -17.92,-17.912 c -30.972,25.167 -50.105,59.731 -50.105,97.894 0,76.997 77.848,101.825 173.875,101.825 96.058,-0.008 173.905,-24.836 173.905,-101.833 z"
         style="fill:#d89103"
         inkscape:connector-curvature="0" />
      <path
         id="path1471"
         d="m 375.993,103.558 c 0,57.202 -57.832,75.642 -129.166,75.642 -71.334,0 -129.166,-18.44 -129.166,-75.642 C 117.661,46.356 175.486,0 246.827,0 318.168,0 375.993,46.356 375.993,103.558 Z"
         style="fill:#f4c237"
         inkscape:connector-curvature="0" />
      <path
         id="path1473"
         d="m 375.993,103.558 c 0,57.202 -57.832,75.642 -129.166,75.642 -71.334,0 -129.166,-18.44 -129.166,-75.642 0,-57.202 57.825,-93.223 129.166,-93.223 71.341,0 129.166,36.021 129.166,93.223 z"
         style="fill:#efb600"
         inkscape:connector-curvature="0" />
      <path
         id="path1475"
         d="m 375.993,103.558 c 0,57.202 -57.832,75.642 -129.166,75.642 -71.334,0 -129.166,-18.44 -129.166,-75.642"
         style="fill:#eda900"
         inkscape:connector-curvature="0" />
      <ellipse
         id="ellipse1477"
         ry="40.07"
         rx="165.25"
         cy="453.55301"
         cx="246.819"
         style="fill:#97a8aa" />
      <path
         id="path1479"
         d="m 412.077,453.553 c 0,22.142 -73.988,40.07 -165.258,40.07 -91.27,0 -165.25,-17.936 -165.25,-40.07"
         style="fill:#aeb9ba"
         inkscape:connector-curvature="0" />
      <path
         id="path1481"
         d="m 419.552,195.379 -24.537,24.537 -21.173,-21.173 -21.173,21.173 -21.173,-21.173 -21.173,21.173 -21.173,-21.173 -21.173,21.173 -21.15,-21.165 -21.173,21.173 -21.173,-21.173 -21.173,21.173 -21.173,-21.173 -21.173,21.173 -21.173,-21.173 -21.173,21.173 -24.537,-24.529 C 64.91,227.21 59.83,257.898 59.83,283.286 c 0,103.282 83.724,186.998 186.951,186.998 103.29,0 186.982,-83.716 186.982,-186.998 0.031,-25.396 -5.042,-56.084 -14.211,-87.907 z"
         style="fill:#e8b277"
         inkscape:connector-curvature="0" />
      <path
         id="path1483"
         d="M 98.647,219.916 74.11,195.387 c -9.169,31.815 -14.249,62.503 -14.249,87.891 l 43,-67.576 z"
         style="fill:#efbf8b"
         inkscape:connector-curvature="0" />
      <path
         id="path1485"
         d="m 419.552,195.379 -24.537,24.537 -21.173,-21.173 -21.173,21.173 -21.173,-21.173 -21.173,21.173 -21.173,-21.173 -21.173,21.173 -21.15,-21.165 -0.016,0.008 v 271.525 c 103.29,0 186.982,-83.716 186.982,-186.998 10e-4,-25.396 -5.072,-56.084 -14.241,-87.907 z"
         style="fill:#d89e60"
         inkscape:connector-curvature="0" />
      <circle
         id="circle1487"
         r="14.108"
         cy="71.223"
         cx="189.405"
         style="fill:#2d2612" />
      <path
         id="path1489"
         d="m 175.289,71.223 c 0,1.434 0.276,2.788 0.662,4.08 1.308,0.402 2.662,0.677 4.096,0.677 7.782,0 14.108,-6.317 14.108,-14.108 0,-1.434 -0.276,-2.788 -0.677,-4.096 -1.292,-0.394 -2.647,-0.67 -4.08,-0.67 -7.799,0.002 -14.109,6.319 -14.109,14.117 z"
         style="fill:#443b23"
         inkscape:connector-curvature="0" />
      <circle
         id="circle1491"
         r="14.108"
         cy="71.223"
         cx="304.258"
         style="fill:#2d2612" />
      <path
         id="path1493"
         d="m 290.15,71.223 c 0,1.434 0.276,2.788 0.677,4.08 1.292,0.402 2.647,0.677 4.08,0.677 7.798,0 14.123,-6.317 14.123,-14.108 0,-1.434 -0.276,-2.788 -0.677,-4.096 -1.308,-0.394 -2.647,-0.67 -4.096,-0.67 -7.781,0.002 -14.107,6.319 -14.107,14.117 z"
         style="fill:#443b23"
         inkscape:connector-curvature="0" />
      <path
         id="path1495"
         d="M 276.949,93.767 249.104,74.075 c -1.371,-0.969 -3.182,-0.969 -4.553,0 l -27.845,19.692 c -1.095,0.772 -1.709,2.032 -1.662,3.363 0.047,1.331 0.772,2.544 1.906,3.23 l 27.845,16.738 c 0.614,0.378 1.323,0.559 2.032,0.559 0.709,0 1.418,-0.181 2.032,-0.559 l 27.845,-16.738 c 1.142,-0.685 1.859,-1.898 1.906,-3.23 0.047,-1.332 -0.566,-2.599 -1.661,-3.363 z"
         style="fill:#d15400"
         inkscape:connector-curvature="0" />
      <path
         id="path1497"
         d="M 276.949,93.767 249.104,74.075 c -1.371,-0.969 -3.182,-0.969 -4.553,0 l -27.845,19.692 c -1.095,0.772 -1.709,2.032 -1.662,3.363 0.047,1.331 0.772,2.544 1.906,3.23 l 27.845,5.238 c 0.614,0.378 1.323,0.559 2.032,0.559 0.709,0 1.418,-0.181 2.032,-0.559 l 27.845,-5.238 c 1.142,-0.685 1.859,-1.898 1.906,-3.23 0.047,-1.332 -0.566,-2.599 -1.661,-3.363 z"
         style="fill:#ff6d00"
         inkscape:connector-curvature="0" />
      <g
         id="g1499" />
      <g
         id="g1501" />
      <g
         id="g1503" />
      <g
         id="g1505" />
      <g
         id="g1507" />
      <g
         id="g1509" />
      <g
         id="g1511" />
      <g
         id="g1513" />
      <g
         id="g1515" />
      <g
         id="g1517" />
      <g
         id="g1519" />
      <g
         id="g1521" />
      <g
         id="g1523" />
      <g
         id="g1525" />
      <g
         id="g1527" />
    </g>
  </g>
</svg>
