<?xml version="1.0" encoding="UTF-8" standalone="no"?>
<!-- Created with Inkscape (http://www.inkscape.org/) -->

<svg
   xmlns:dc="http://purl.org/dc/elements/1.1/"
   xmlns:cc="http://creativecommons.org/ns#"
   xmlns:rdf="http://www.w3.org/1999/02/22-rdf-syntax-ns#"
   xmlns:svg="http://www.w3.org/2000/svg"
   xmlns="http://www.w3.org/2000/svg"
   xmlns:xlink="http://www.w3.org/1999/xlink"
   xmlns:sodipodi="http://sodipodi.sourceforge.net/DTD/sodipodi-0.dtd"
   xmlns:inkscape="http://www.inkscape.org/namespaces/inkscape"
   width="143.63092mm"
   height="143.63092mm"
   viewBox="0 0 143.63092 143.63092"
   version="1.1"
   id="svg31"
   inkscape:version="0.92.1 r15371"
   sodipodi:docname="Rana.svg">
  <defs
     id="defs25">
    <radialGradient
       inkscape:collect="always"
       xlink:href="#linearGradient43"
       id="radialGradient45"
       cx="32.606884"
       cy="6.1048827"
       fx="32.606884"
       fy="6.1048827"
       r="64.633911"
       gradientUnits="userSpaceOnUse"
       gradientTransform="matrix(-1.4614512,1.8803868,-1.7177367,-1.3350561,90.746839,-47.058306)" />
    <linearGradient
       inkscape:collect="always"
       id="linearGradient43">
      <stop
         style="stop-color:#66ff00;stop-opacity:1;"
         offset="0"
         id="stop39" />
      <stop
         style="stop-color:#00ff00;stop-opacity:0.44"
         offset="1"
         id="stop41" />
    </linearGradient>
  </defs>
  <sodipodi:namedview
     id="base"
     pagecolor="#ffffff"
     bordercolor="#666666"
     borderopacity="1.0"
     inkscape:pageopacity="0.0"
     inkscape:pageshadow="2"
     inkscape:zoom="0.49497475"
     inkscape:cx="209.75943"
     inkscape:cy="115.06841"
     inkscape:document-units="px"
     inkscape:current-layer="layer1"
     showgrid="false"
     inkscape:snap-object-midpoints="true"
     inkscape:snap-center="true"
     inkscape:pagecheckerboard="true"
     fit-margin-top="0"
     fit-margin-left="0"
     fit-margin-right="0"
     fit-margin-bottom="0"
     borderlayer="true"
     inkscape:window-width="667"
     inkscape:window-height="729"
     inkscape:window-x="683"
     inkscape:window-y="0"
     inkscape:window-maximized="0" />
  <metadata
     id="metadata28">
    <rdf:RDF>
      <cc:Work
         rdf:about="">
        <dc:format>image/svg+xml</dc:format>
        <dc:type
           rdf:resource="http://purl.org/dc/dcmitype/StillImage" />
        <dc:title></dc:title>
      </cc:Work>
    </rdf:RDF>
  </metadata>
  <g
     inkscape:label="Capa 1"
     inkscape:groupmode="layer"
     id="layer1"
     transform="translate(5.4495665e-7,16.720213)">
    <rect
       style="fill:#00112b;stroke-width:0.28221554"
       id="rect33"
       width="143.63092"
       height="143.63092"
       x="-5.4495666e-007"
       y="-16.720213"
       ry="20.641569" />
    <rect
       ry="13.318157"
       y="-9.5386639"
       x="7.1815486"
       height="129.26782"
       width="129.26782"
       id="rect41"
       style="fill:url(#radialGradient45);fill-opacity:1;stroke-width:0.25399399"
       rx="12.82894" />
    <g
       id="g3787"
       transform="matrix(0.18641091,0,0,0.2498844,24.094267,-8.8750679)">
      <path
         id="path3699"
         d="m 16.516,280.774 c 0,48.171 75.388,140.387 239.484,140.387 164.096,0 239.484,-92.215 239.484,-140.387 z"
         style="fill:#bee178"
         inkscape:connector-curvature="0" />
      <path
         id="path3701"
         d="M 256.001,284.903 H 16.516 c 0,0 0,37.161 41.29,37.161 33.032,0 115.613,-18.581 198.194,-18.581 82.581,0 165.162,18.581 198.194,18.581 41.29,0 41.29,-37.161 41.29,-37.161 z"
         style="fill:#d2f0a0"
         inkscape:connector-curvature="0" />
      <path
         id="path3703"
         d="M 500.458,242.797 C 462.452,214.709 381.771,167.822 338.581,150.296 319.314,142.478 305.549,132.128 256,132.128 c -49.549,0 -63.314,10.349 -82.581,18.168 C 130.229,167.822 49.548,214.709 11.542,242.797 5.012,247.623 0,255.363 0,264.734 c 0,13.419 9.065,24.298 20.248,24.298 h 471.504 c 11.182,0 20.248,-10.879 20.248,-24.298 0,-9.371 -5.011,-17.111 -11.542,-21.937 z"
         style="fill:#82c35f"
         inkscape:connector-curvature="0" />
      <g
         id="g3709">
        <path
           id="path3705"
           d="m 214.71,247.742 c -4.565,0 -8.258,-3.693 -8.258,-8.258 v -8.258 c 0,-4.565 3.693,-8.258 8.258,-8.258 4.565,0 8.258,3.693 8.258,8.258 v 8.258 c 0,4.564 -3.693,8.258 -8.258,8.258 z"
           style="fill:#5a9646"
           inkscape:connector-curvature="0" />
        <path
           id="path3707"
           d="m 297.291,247.742 c -4.565,0 -8.258,-3.693 -8.258,-8.258 v -8.258 c 0,-4.565 3.693,-8.258 8.258,-8.258 4.565,0 8.258,3.693 8.258,8.258 v 8.258 c 0,4.564 -3.693,8.258 -8.258,8.258 z"
           style="fill:#5a9646"
           inkscape:connector-curvature="0" />
      </g>
      <path
         id="path3711"
         d="m 94.968,227.774 c 70.194,0 93.708,-38.28 101.408,-56.714 2.876,-6.885 2.327,-14.686 -1.442,-21.125 C 182.427,128.565 146.552,78.836 90.178,93.5 c -14.69,3.821 -24.318,17.977 -23.392,33.128 2.125,34.757 10.036,101.146 28.182,101.146 z"
         style="fill:#96cd78"
         inkscape:connector-curvature="0" />
      <path
         id="path3713"
         d="m 148.645,198.193 c 0,0 -24.032,29.58 -53.678,29.58 -29.646,0 -53.678,-27.73 -53.678,-61.936 0,-34.206 24.032,-61.936 53.678,-61.936 28.904,0.001 53.678,60.086 53.678,94.292 z"
         style="fill:#73af55"
         inkscape:connector-curvature="0" />
      <path
         id="path3715"
         d="m 70.194,140.387 c -9.114,0 -17.688,1.085 -25.206,2.985 -2.357,6.972 -3.698,14.532 -3.698,22.466 0,7.935 1.341,15.494 3.698,22.466 7.518,1.9 16.092,2.985 25.206,2.985 29.645,0 45.419,-11.395 45.419,-25.451 0,-14.056 -15.774,-25.451 -45.419,-25.451 z"
         style="fill:#464655"
         inkscape:connector-curvature="0" />
      <path
         id="path3717"
         d="m 417.033,227.774 c -70.194,0 -93.708,-38.28 -101.408,-56.714 -2.876,-6.885 -2.327,-14.686 1.442,-21.125 12.507,-21.369 48.382,-71.098 104.756,-56.434 14.69,3.821 24.318,17.977 23.392,33.128 -2.126,34.756 -10.036,101.145 -28.182,101.145 z"
         style="fill:#96cd78"
         inkscape:connector-curvature="0" />
      <path
         id="path3719"
         d="m 363.356,198.193 c 0,0 24.032,29.58 53.678,29.58 29.646,0 53.678,-27.73 53.678,-61.936 0,-34.206 -24.032,-61.936 -53.678,-61.936 -28.904,0.001 -53.678,60.086 -53.678,94.292 z"
         style="fill:#73af55"
         inkscape:connector-curvature="0" />
      <path
         id="path3721"
         d="m 441.807,140.387 c 9.114,0 17.688,1.085 25.206,2.985 2.356,6.972 3.698,14.532 3.698,22.466 0,7.935 -1.341,15.494 -3.698,22.466 -7.518,1.9 -16.092,2.985 -25.206,2.985 -29.645,0 -45.419,-11.395 -45.419,-25.451 0,-14.056 15.774,-25.451 45.419,-25.451 z"
         style="fill:#464655"
         inkscape:connector-curvature="0" />
      <g
         id="g3723" />
      <g
         id="g3725" />
      <g
         id="g3727" />
      <g
         id="g3729" />
      <g
         id="g3731" />
      <g
         id="g3733" />
      <g
         id="g3735" />
      <g
         id="g3737" />
      <g
         id="g3739" />
      <g
         id="g3741" />
      <g
         id="g3743" />
      <g
         id="g3745" />
      <g
         id="g3747" />
      <g
         id="g3749" />
      <g
         id="g3751" />
    </g>
  </g>
</svg>
