<?xml version="1.0" encoding="UTF-8" standalone="no"?>
<!-- Created with Inkscape (http://www.inkscape.org/) -->

<svg
   xmlns:dc="http://purl.org/dc/elements/1.1/"
   xmlns:cc="http://creativecommons.org/ns#"
   xmlns:rdf="http://www.w3.org/1999/02/22-rdf-syntax-ns#"
   xmlns:svg="http://www.w3.org/2000/svg"
   xmlns="http://www.w3.org/2000/svg"
   xmlns:xlink="http://www.w3.org/1999/xlink"
   xmlns:sodipodi="http://sodipodi.sourceforge.net/DTD/sodipodi-0.dtd"
   xmlns:inkscape="http://www.inkscape.org/namespaces/inkscape"
   width="143.63092mm"
   height="143.63092mm"
   viewBox="0 0 143.63092 143.63092"
   version="1.1"
   id="svg31"
   inkscape:version="0.92.1 r15371"
   sodipodi:docname="Vaca2.svg">
  <defs
     id="defs25">
    <radialGradient
       inkscape:collect="always"
       xlink:href="#linearGradient43"
       id="radialGradient45"
       cx="32.606884"
       cy="6.1048827"
       fx="32.606884"
       fy="6.1048827"
       r="64.633911"
       gradientUnits="userSpaceOnUse"
       gradientTransform="matrix(-1.4614512,1.8803868,-1.7177367,-1.3350561,90.746839,-47.058306)" />
    <linearGradient
       inkscape:collect="always"
       id="linearGradient43">
      <stop
         style="stop-color:#66ff00;stop-opacity:1;"
         offset="0"
         id="stop39" />
      <stop
         style="stop-color:#00ff00;stop-opacity:0.44"
         offset="1"
         id="stop41" />
    </linearGradient>
  </defs>
  <sodipodi:namedview
     id="base"
     pagecolor="#ffffff"
     bordercolor="#666666"
     borderopacity="1.0"
     inkscape:pageopacity="0.0"
     inkscape:pageshadow="2"
     inkscape:zoom="0.49497475"
     inkscape:cx="209.75943"
     inkscape:cy="115.06841"
     inkscape:document-units="px"
     inkscape:current-layer="layer1"
     showgrid="false"
     inkscape:snap-object-midpoints="true"
     inkscape:snap-center="true"
     inkscape:pagecheckerboard="true"
     fit-margin-top="0"
     fit-margin-left="0"
     fit-margin-right="0"
     fit-margin-bottom="0"
     borderlayer="true"
     inkscape:window-width="667"
     inkscape:window-height="729"
     inkscape:window-x="683"
     inkscape:window-y="0"
     inkscape:window-maximized="0" />
  <metadata
     id="metadata28">
    <rdf:RDF>
      <cc:Work
         rdf:about="">
        <dc:format>image/svg+xml</dc:format>
        <dc:type
           rdf:resource="http://purl.org/dc/dcmitype/StillImage" />
        <dc:title></dc:title>
      </cc:Work>
    </rdf:RDF>
  </metadata>
  <g
     inkscape:label="Capa 1"
     inkscape:groupmode="layer"
     id="layer1"
     transform="translate(5.4495665e-7,16.720213)">
    <rect
       style="fill:#00112b;stroke-width:0.28221554"
       id="rect33"
       width="143.63092"
       height="143.63092"
       x="-5.4495666e-007"
       y="-16.720213"
       ry="20.641569" />
    <rect
       ry="13.318157"
       y="-9.5386639"
       x="7.1815486"
       height="129.26782"
       width="129.26782"
       id="rect41"
       style="fill:url(#radialGradient45);fill-opacity:1;stroke-width:0.25399399"
       rx="12.82894" />
    <g
       id="g3565"
       transform="matrix(0.21986003,0,0,0.23566896,15.531292,-5.2362214)">
      <g
         id="g3441">
        <path
           id="path3435"
           d="m 205.468,364.297 c -4.465,0 -8.084,-3.613 -8.084,-8.072 v -20.73 c 0,-4.459 3.62,-8.072 8.084,-8.072 4.464,0 8.084,3.613 8.084,8.072 v 20.73 c 0,4.459 -3.619,8.072 -8.084,8.072 z"
           style="fill:#ff968a"
           inkscape:connector-curvature="0" />
        <path
           id="path3437"
           d="m 154.03,364.297 c -4.465,0 -8.084,-3.613 -8.084,-8.072 v -20.73 c 0,-4.459 3.62,-8.072 8.084,-8.072 4.464,0 8.084,3.613 8.084,8.072 v 20.73 c 0,4.459 -3.62,8.072 -8.084,8.072 z"
           style="fill:#ff968a"
           inkscape:connector-curvature="0" />
        <path
           id="path3439"
           d="m 179.956,371.374 c -4.465,0 -8.084,-3.613 -8.084,-8.072 v -20.73 c 0,-4.459 3.62,-8.072 8.084,-8.072 4.464,0 8.084,3.613 8.084,8.072 v 20.73 c 0.001,4.459 -3.619,8.072 -8.084,8.072 z"
           style="fill:#ff968a"
           inkscape:connector-curvature="0" />
      </g>
      <g
         id="g3447">
        <path
           id="path3443"
           d="m 26.781,258.527 c -4.465,0 -8.084,-3.613 -8.084,-8.072 v -42.263 c 0,-22.218 18.077,-40.291 40.295,-40.291 4.465,0 8.084,3.613 8.084,8.072 0,4.459 -3.62,8.072 -8.084,8.072 -13.304,0 -24.127,10.833 -24.127,24.149 v 42.263 c 0,4.457 -3.619,8.07 -8.084,8.07 z"
           style="fill:#91aac4"
           inkscape:connector-curvature="0" />
        <path
           id="path3445"
           d="m 309.021,418.272 -2.758,14.481 c -0.325,1.724 -1.729,2.963 -3.357,2.963 h -32.492 c -2.235,0 -3.982,-2.097 -3.768,-4.52 l 1.815,-22.85 11.414,-143.801 42.931,-20.614 -29.8,158.534 c -0.086,0.457 -0.094,0.913 -0.017,1.36 0.163,1.091 0.771,2.06 1.686,2.628 l 12.674,7.81 c 1.296,0.803 1.972,2.416 1.672,4.009 z"
           style="fill:#91aac4"
           inkscape:connector-curvature="0" />
      </g>
      <path
         id="path3449"
         d="m 309.021,418.272 -2.758,14.481 c -0.325,1.724 -1.729,2.963 -3.357,2.963 h -32.492 c -2.235,0 -3.982,-2.097 -3.768,-4.52 l 1.815,-22.85 24.529,-4.52 c 0.163,1.091 0.771,2.06 1.686,2.628 l 12.674,7.81 c 1.295,0.802 1.971,2.415 1.671,4.008 z"
         style="fill:#3f5666"
         inkscape:connector-curvature="0" />
      <path
         id="path3451"
         d="m 115.2,349.517 v 50.443 c 0,0.858 0.288,1.677 0.811,2.321 0.261,0.335 0.578,0.615 0.95,0.848 l 15.121,9.347 c 0.894,0.559 1.518,1.472 1.705,2.507 l 2.972,16.336 c 0.419,2.293 -1.342,4.399 -3.661,4.399 h -36.66 c -2.058,0 -3.726,-1.668 -3.726,-3.727 V 329.455 l 11.562,-62.875 74.065,13.979 -40.629,67.096 z"
         style="fill:#91aac4"
         inkscape:connector-curvature="0" />
      <path
         id="path3453"
         d="m 133.097,435.718 h -36.66 c -2.058,0 -3.726,-1.668 -3.726,-3.727 v -25.683 l 23.3,-4.026 c 0.261,0.335 0.578,0.615 0.95,0.848 l 15.121,9.347 c 0.894,0.559 1.518,1.472 1.705,2.507 l 2.972,16.336 c 0.418,2.291 -1.342,4.398 -3.662,4.398 z"
         style="fill:#3f5666"
         inkscape:connector-curvature="0" />
      <ellipse
         id="ellipse3455"
         ry="48.689999"
         rx="54.417999"
         cy="297.168"
         cx="179.952"
         style="fill:#e8c1b5" />
      <path
         id="path3457"
         d="m 146.302,297.169 c 0,-23.713 18.948,-43.457 44.034,-47.795 -3.361,-0.581 -6.829,-0.895 -10.38,-0.895 -30.052,0 -54.414,21.8 -54.414,48.69 0,26.89 24.362,48.69 54.414,48.69 3.551,0 7.019,-0.315 10.38,-0.895 -25.084,-4.336 -44.034,-24.081 -44.034,-47.795 z"
         style="fill:#cca295"
         inkscape:connector-curvature="0" />
      <path
         id="path3459"
         d="m 512,128.02 v 22.471 c 0,13.495 -24.522,24.828 -24.522,24.828 l -11.21,2.562 -48.516,11.095 c 0,0 -0.087,0.032 -0.237,0.086 h -0.01 c -2.328,0.871 -28.952,71.383 -47.147,81.607 -33.587,18.876 -22.236,127.84 -22.236,127.84 0.054,0.451 0.194,0.893 0.399,1.281 0.259,0.485 0.604,0.904 1.034,1.237 l 19.337,14.743 c 1.174,0.893 1.703,2.39 1.358,3.832 l -3.169,13.259 c -0.41,1.679 -1.898,2.863 -3.633,2.863 h -34.729 c -1.898,0 -3.568,-1.313 -4.009,-3.175 l -5.207,-25.279 -1.498,-101.205 c -0.432,-1.808 -2.026,-3.111 -3.881,-3.154 l -3.751,-0.14 -118.946,-4.197 -62.938,-2.228 c -1.089,-0.032 -2.156,0.354 -2.942,1.109 l -54.413,50.549 c -0.765,0.699 -1.768,1.097 -2.824,1.097 H 60.362 c -2.275,0 -4.128,1.84 -4.128,4.122 v 50.527 c 0,0.668 0.172,1.324 0.474,1.905 0.28,0.538 0.679,1.033 1.174,1.399 l 9.55,7.168 c 0.754,0.571 1.304,1.389 1.531,2.293 l 3.524,14.087 c 0.647,2.604 -1.314,5.122 -3.999,5.122 H 34.601 c -2.275,0 -4.118,-1.84 -4.118,-4.111 V 325.942 c 0,-1.604 0.916,-3.056 2.36,-3.734 l 11.76,-13.238 c 1.444,-0.689 2.372,-2.141 2.372,-3.734 l -0.377,-67.563 -0.292,-52.991 c -0.086,-16.132 5.368,-31.048 14.628,-42.865 12.17,-15.55 30.882,-25.785 52.105,-26.475 l 68.425,-0.269 111.648,-0.419 24.544,-0.097 109.87,-15.68 c 7.136,0 13.959,2.852 18.982,7.91 l 5.81,5.855 c 5.023,5.047 11.856,7.889 18.982,7.889 h 33.22 c 4.128,-0.001 7.48,3.357 7.48,7.489 z"
         style="fill:#e1e9f2"
         inkscape:connector-curvature="0" />
      <path
         id="path3461"
         d="m 51.499,328.052 c 0,-1.655 0.921,-3.168 2.361,-3.868 l 11.757,-13.717 c 1.45,-0.711 2.371,-2.214 2.371,-3.868 l -0.372,-69.99 -0.294,-54.901 c -0.088,-16.724 5.37,-32.168 14.628,-44.413 7.119,-9.427 16.487,-16.944 27.277,-21.723 -19.645,1.72 -36.861,11.633 -48.296,26.248 -9.259,11.819 -14.716,26.726 -14.628,42.867 l 0.294,52.99 0.372,67.555 c 0,1.597 -0.921,3.048 -2.371,3.733 l -11.757,13.241 c -1.44,0.676 -2.361,2.137 -2.361,3.734 v 105.667 c 0,2.274 1.842,4.116 4.115,4.116 h 16.904 c 0,-0.001 0,-107.671 0,-107.671 z"
         style="fill:#b3d2f2"
         inkscape:connector-curvature="0" />
      <g
         id="g3467">
        <path
           id="path3463"
           d="M 68.488,435.718 H 34.594 c -2.282,0 -4.118,-1.845 -4.118,-4.128 v -22.03 l 26.235,-3.905 c 0.271,0.54 0.671,1.025 1.173,1.398 l 9.549,7.166 c 0.754,0.568 1.304,1.389 1.528,2.292 l 3.521,14.09 c 0.645,2.6 -1.311,5.117 -3.994,5.117 z"
           style="fill:#3f5666"
           inkscape:connector-curvature="0" />
        <path
           id="path3465"
           d="m 380.253,419.596 -3.177,13.261 c -0.4,1.677 -1.891,2.861 -3.624,2.861 H 338.72 c -1.901,0 -3.568,-1.305 -4.006,-3.168 l -5.217,-25.282 29.021,-7.474 c 0.252,0.485 0.606,0.904 1.044,1.239 l 19.332,14.733 c 1.172,0.894 1.703,2.394 1.359,3.83 z"
           style="fill:#3f5666"
           inkscape:connector-curvature="0" />
      </g>
      <path
         id="path3469"
         d="m 294.716,128.187 c 0,31.694 -25.69,57.391 -57.375,57.391 -31.696,0 -57.386,-25.696 -57.386,-57.391 0,-4.509 0.519,-8.898 1.509,-13.113 l 111.645,-0.421 c 1.049,4.339 1.607,8.868 1.607,13.534 z"
         style="fill:#2f3f4a"
         inkscape:connector-curvature="0" />
      <path
         id="path3471"
         d="m 512,128.02 v 22.471 c 0,13.495 -24.522,24.828 -24.522,24.828 l -11.21,2.562 c -10.974,-19.436 -4.15,-41.681 3.859,-57.35 h 24.393 c 4.128,-0.001 7.48,3.357 7.48,7.489 z"
         style="fill:#e8c1b5"
         inkscape:connector-curvature="0" />
      <g
         id="g3479">
        <path
           id="path3473"
           d="m 102.131,189.732 c 0,26.765 -21.692,48.463 -48.44,48.463 -2.411,0 -4.781,-0.177 -7.094,-0.519 l -0.294,-52.991 c -0.088,-16.142 5.369,-31.048 14.628,-42.867 23.319,3.499 41.2,23.619 41.2,47.914 z"
           style="fill:#2f3f4a"
           inkscape:connector-curvature="0" />
        <path
           id="path3475"
           d="m 320.376,302.77 -118.954,-4.194 c 5.771,-24.579 30.03,-43.024 59.081,-43.024 30.685,0 56.023,20.57 59.873,47.218 z"
           style="fill:#2f3f4a"
           inkscape:connector-curvature="0" />
        <ellipse
           id="ellipse3477"
           ry="8.0719995"
           rx="8.0839996"
           cy="128.41701"
           cx="440.54999"
           style="fill:#2f3f4a" />
      </g>
      <path
         id="path3481"
         d="m 429.166,104.571 c -3.867,-6.263 -13.804,-20.388 -28.686,-27.866 -2.567,-1.29 -5.616,0.489 -5.707,3.361 -0.336,10.642 -0.138,33.61 6.898,46.136 1.244,2.216 4.251,2.648 6.099,0.904 4.147,-3.914 11.824,-10.887 20.416,-17.353 1.618,-1.216 2.042,-3.46 0.98,-5.182 z"
         style="fill:#e1e9f2"
         inkscape:connector-curvature="0" />
      <path
         id="path3483"
         d="m 421.323,103.487 c -2.078,-3.366 -7.418,-10.955 -15.413,-14.973 -1.379,-0.694 -3.018,0.262 -3.067,1.807 -0.181,5.719 -0.074,18.059 3.707,24.79 0.669,1.19 2.284,1.423 3.277,0.486 2.228,-2.103 6.353,-5.849 10.97,-9.324 0.869,-0.654 1.097,-1.86 0.526,-2.786 z"
         style="fill:#91aac4"
         inkscape:connector-curvature="0" />
      <path
         id="path3485"
         d="m 34.865,283.472 v -37.426 c 0,-2.318 -1.878,-4.195 -4.194,-4.195 v 0 C 13.732,241.851 0,255.586 0,272.529 v 37.426 c 0,2.318 1.878,4.195 4.194,4.195 v 0 c 16.939,0 30.671,-13.735 30.671,-30.678 z"
         style="fill:#2f3f4a"
         inkscape:connector-curvature="0" />
      <g
         id="g3487" />
      <g
         id="g3489" />
      <g
         id="g3491" />
      <g
         id="g3493" />
      <g
         id="g3495" />
      <g
         id="g3497" />
      <g
         id="g3499" />
      <g
         id="g3501" />
      <g
         id="g3503" />
      <g
         id="g3505" />
      <g
         id="g3507" />
      <g
         id="g3509" />
      <g
         id="g3511" />
      <g
         id="g3513" />
      <g
         id="g3515" />
    </g>
  </g>
</svg>
